G04 #@! TF.GenerationSoftware,KiCad,Pcbnew,(5.1.0)-1*
G04 #@! TF.CreationDate,2021-03-01T10:42:37+01:00*
G04 #@! TF.ProjectId,Atari simm expansion,41746172-6920-4736-996d-6d2065787061,rev?*
G04 #@! TF.SameCoordinates,Original*
G04 #@! TF.FileFunction,Copper,L2,Bot*
G04 #@! TF.FilePolarity,Positive*
%FSLAX46Y46*%
G04 Gerber Fmt 4.6, Leading zero omitted, Abs format (unit mm)*
G04 Created by KiCad (PCBNEW (5.1.0)-1) date 2021-03-01 10:42:37*
%MOMM*%
%LPD*%
G04 APERTURE LIST*
%ADD10O,1.350000X1.350000*%
%ADD11R,1.350000X1.350000*%
%ADD12O,1.700000X1.700000*%
%ADD13R,1.700000X1.700000*%
%ADD14O,1.600000X1.600000*%
%ADD15R,1.600000X1.600000*%
%ADD16C,0.800000*%
%ADD17C,1.000000*%
%ADD18C,0.900000*%
%ADD19C,1.100000*%
%ADD20C,0.812800*%
%ADD21C,0.254000*%
%ADD22C,0.406400*%
%ADD23C,1.016000*%
%ADD24C,0.250000*%
G04 APERTURE END LIST*
D10*
X142927320Y-85633040D03*
X144927320Y-85633040D03*
X142927320Y-87633040D03*
X144927320Y-87633040D03*
X142927320Y-89633040D03*
X144927320Y-89633040D03*
X142927320Y-91633040D03*
D11*
X144927320Y-91633040D03*
D12*
X167563800Y-110312200D03*
X165023800Y-110312200D03*
X162483800Y-110312200D03*
X159943800Y-110312200D03*
X157403800Y-110312200D03*
X154863800Y-110312200D03*
X152323800Y-110312200D03*
D13*
X149783800Y-110312200D03*
D12*
X137820400Y-108534200D03*
X140360400Y-108534200D03*
X137820400Y-111074200D03*
D13*
X140360400Y-111074200D03*
D14*
X190420000Y-108380000D03*
X213280000Y-116000000D03*
X192960000Y-108380000D03*
X210740000Y-116000000D03*
X195500000Y-108380000D03*
X208200000Y-116000000D03*
X198040000Y-108380000D03*
X205660000Y-116000000D03*
X200580000Y-108380000D03*
X203120000Y-116000000D03*
X203120000Y-108380000D03*
X200580000Y-116000000D03*
X205660000Y-108380000D03*
X198040000Y-116000000D03*
X208200000Y-108380000D03*
X195500000Y-116000000D03*
X210740000Y-108380000D03*
X192960000Y-116000000D03*
X213280000Y-108380000D03*
D15*
X190420000Y-116000000D03*
D14*
X108000000Y-116434600D03*
X135940000Y-124054600D03*
X110540000Y-116434600D03*
X133400000Y-124054600D03*
X113080000Y-116434600D03*
X130860000Y-124054600D03*
X115620000Y-116434600D03*
X128320000Y-124054600D03*
X118160000Y-116434600D03*
X125780000Y-124054600D03*
X120700000Y-116434600D03*
X123240000Y-124054600D03*
X123240000Y-116434600D03*
X120700000Y-124054600D03*
X125780000Y-116434600D03*
X118160000Y-124054600D03*
X128320000Y-116434600D03*
X115620000Y-124054600D03*
X130860000Y-116434600D03*
X113080000Y-124054600D03*
X133400000Y-116434600D03*
X110540000Y-124054600D03*
X135940000Y-116434600D03*
D15*
X108000000Y-124054600D03*
D12*
X213280000Y-105814600D03*
X210740000Y-105814600D03*
X208200000Y-105814600D03*
X205660000Y-105814600D03*
X203120000Y-105814600D03*
X200580000Y-105814600D03*
X198040000Y-105814600D03*
X195500000Y-105814600D03*
X192960000Y-105814600D03*
D13*
X190420000Y-105814600D03*
D12*
X213280000Y-113434600D03*
X210740000Y-113434600D03*
X208200000Y-113434600D03*
X205660000Y-113434600D03*
X203120000Y-113434600D03*
X200580000Y-113434600D03*
X198040000Y-113434600D03*
X195500000Y-113434600D03*
X192960000Y-113434600D03*
D13*
X190420000Y-113434600D03*
D12*
X172680000Y-116434600D03*
X170140000Y-116434600D03*
X167600000Y-116434600D03*
X165060000Y-116434600D03*
X162520000Y-116434600D03*
X159980000Y-116434600D03*
X157440000Y-116434600D03*
X154900000Y-116434600D03*
X152360000Y-116434600D03*
D13*
X149820000Y-116434600D03*
D12*
X172680000Y-124054600D03*
X170140000Y-124054600D03*
X167600000Y-124054600D03*
X165060000Y-124054600D03*
X162520000Y-124054600D03*
X159980000Y-124054600D03*
X157440000Y-124054600D03*
X154900000Y-124054600D03*
X152360000Y-124054600D03*
D13*
X149820000Y-124054600D03*
D12*
X126320000Y-85680000D03*
X123780000Y-85680000D03*
X121240000Y-85680000D03*
X118700000Y-85680000D03*
X116160000Y-85680000D03*
X113620000Y-85680000D03*
X111080000Y-85680000D03*
X108540000Y-85680000D03*
D13*
X106000000Y-85680000D03*
D12*
X126320000Y-93300000D03*
X123780000Y-93300000D03*
X121240000Y-93300000D03*
X118700000Y-93300000D03*
X116160000Y-93300000D03*
X113620000Y-93300000D03*
X111080000Y-93300000D03*
X108540000Y-93300000D03*
D13*
X106000000Y-93300000D03*
D12*
X126320000Y-73000000D03*
X123780000Y-73000000D03*
X121240000Y-73000000D03*
X118700000Y-73000000D03*
X116160000Y-73000000D03*
X113620000Y-73000000D03*
X111080000Y-73000000D03*
X108540000Y-73000000D03*
D13*
X106000000Y-73000000D03*
D12*
X126320000Y-80620000D03*
X123780000Y-80620000D03*
X121240000Y-80620000D03*
X118700000Y-80620000D03*
X116160000Y-80620000D03*
X113620000Y-80620000D03*
X111080000Y-80620000D03*
X108540000Y-80620000D03*
D13*
X106000000Y-80620000D03*
D16*
X120675400Y-102158800D03*
D17*
X107000000Y-77622400D03*
X105511600Y-77622400D03*
D16*
X127482600Y-102412800D03*
X126212600Y-102362000D03*
X130515360Y-92837000D03*
X129895600Y-89281000D03*
X119405400Y-102362000D03*
X140182600Y-102311200D03*
X118135400Y-102336600D03*
X138912600Y-102311200D03*
X116865400Y-102336600D03*
X137642600Y-102336600D03*
X115595400Y-102311200D03*
X136372600Y-102336600D03*
D17*
X130073400Y-111810800D03*
X104978200Y-111887000D03*
X104978200Y-121285000D03*
X116332000Y-111480600D03*
D18*
X105435400Y-95148400D03*
D17*
X105441200Y-98774800D03*
D16*
X124917200Y-96901000D03*
D19*
X154152600Y-119862600D03*
X165074600Y-119888000D03*
X163804600Y-119862600D03*
X155473400Y-119862600D03*
D18*
X134696200Y-112801400D03*
D17*
X140573760Y-91313000D03*
X144160240Y-99430840D03*
X123494800Y-101655880D03*
D16*
X123393200Y-103149400D03*
D17*
X144119600Y-97078800D03*
X144094200Y-94462600D03*
X146481800Y-94411800D03*
X146481800Y-97104200D03*
X146532600Y-99415600D03*
X144170400Y-106299000D03*
X113500000Y-75500000D03*
X118500000Y-75500000D03*
X123500000Y-75500000D03*
X128000000Y-75500000D03*
X105867200Y-89357200D03*
X105867200Y-83083400D03*
X109400000Y-110400000D03*
X112800000Y-110400000D03*
D16*
X118800000Y-113000000D03*
D17*
X122200000Y-109200000D03*
X125200000Y-109200000D03*
X127800000Y-109200000D03*
X105000000Y-124600000D03*
X133172200Y-111379000D03*
X146500000Y-102750000D03*
D16*
X134750000Y-87500000D03*
D19*
X116332000Y-110032800D03*
D17*
X130048000Y-110490000D03*
D16*
X108000800Y-102336600D03*
X128752600Y-102412800D03*
X122367040Y-84074000D03*
X126420880Y-82529680D03*
X106705400Y-102336600D03*
X105435400Y-102336600D03*
X112293400Y-91922600D03*
X119075200Y-88315800D03*
X116509800Y-90017600D03*
D18*
X111785400Y-122682000D03*
D16*
X124993400Y-111836200D03*
X135001000Y-99517200D03*
X111683800Y-104140000D03*
X132257800Y-107645200D03*
X122428000Y-111785400D03*
X119075200Y-89662000D03*
X117398800Y-90957400D03*
X131277360Y-102321360D03*
X130271520Y-94960440D03*
X131953000Y-109220000D03*
X113207800Y-105156000D03*
D18*
X111760000Y-125526800D03*
X163804600Y-114985800D03*
X114325400Y-122707400D03*
X116890800Y-122707400D03*
D16*
X178054000Y-110871000D03*
X180467000Y-110871000D03*
X123723400Y-111810800D03*
D18*
X168935400Y-112344200D03*
X113969800Y-119557800D03*
D16*
X127533400Y-111861600D03*
X111226600Y-111760000D03*
X124510800Y-115138200D03*
D18*
X168884600Y-114960400D03*
X186588400Y-113334800D03*
X109296200Y-117881400D03*
X186817000Y-115417600D03*
X184810400Y-114096800D03*
D16*
X136702800Y-89509600D03*
X109245400Y-102311200D03*
X131419600Y-106908600D03*
X130058160Y-102392480D03*
D18*
X115646200Y-119964200D03*
D20*
X126320000Y-79888800D02*
X126320000Y-80620000D01*
X105511600Y-77622400D02*
X124053600Y-77622400D01*
X124053600Y-77622400D02*
X126320000Y-79888800D01*
X126320000Y-94502081D02*
X126320000Y-93300000D01*
X125216481Y-95605600D02*
X126320000Y-94502081D01*
X123875800Y-95605600D02*
X125216481Y-95605600D01*
X122021600Y-97459800D02*
X123875800Y-95605600D01*
X120675400Y-102158800D02*
X122021600Y-100812600D01*
X122021600Y-100812600D02*
X122021600Y-97459800D01*
D21*
X111929999Y-81469999D02*
X111080000Y-80620000D01*
X127482600Y-100380800D02*
X128270000Y-99593400D01*
X127482600Y-102412800D02*
X127482600Y-100380800D01*
X128270000Y-99593400D02*
X128270000Y-85444604D01*
X128270000Y-85444604D02*
X124918196Y-82092800D01*
X124918196Y-82092800D02*
X112552800Y-82092800D01*
X112552800Y-82092800D02*
X111929999Y-81469999D01*
X109389999Y-81469999D02*
X108540000Y-80620000D01*
X110571600Y-82651600D02*
X109389999Y-81469999D01*
X123987560Y-82651600D02*
X110571600Y-82651600D01*
X126212600Y-100812600D02*
X127751840Y-99273360D01*
X126212600Y-102362000D02*
X126212600Y-100812600D01*
X127751840Y-99273360D02*
X127751840Y-90058240D01*
X127751840Y-90058240D02*
X125059440Y-87365840D01*
X125059440Y-87365840D02*
X125059440Y-83723480D01*
X125059440Y-83723480D02*
X123987560Y-82651600D01*
X130515360Y-92837000D02*
X129895600Y-92217240D01*
X129895600Y-92217240D02*
X129895600Y-89846685D01*
X129895600Y-89846685D02*
X129895600Y-89281000D01*
X123780000Y-90785400D02*
X123780000Y-85680000D01*
X125069600Y-92075000D02*
X123780000Y-90785400D01*
X125069600Y-93938360D02*
X125069600Y-92075000D01*
X119405400Y-101708667D02*
X121104010Y-100010057D01*
X121104010Y-100010057D02*
X121104010Y-96853390D01*
X119405400Y-102362000D02*
X119405400Y-101708667D01*
X121104010Y-96853390D02*
X123190000Y-94767400D01*
X123190000Y-94767400D02*
X124240560Y-94767400D01*
X124240560Y-94767400D02*
X125069600Y-93938360D01*
X138436380Y-100564980D02*
X140182600Y-102311200D01*
X135564686Y-100564980D02*
X138436380Y-100564980D01*
X119405400Y-103581200D02*
X120446800Y-104622600D01*
X120446800Y-104622600D02*
X132816600Y-104622600D01*
X119405400Y-102362000D02*
X119405400Y-103581200D01*
X132816600Y-104622600D02*
X134626380Y-102812820D01*
X134626380Y-102812820D02*
X134626380Y-101503286D01*
X134626380Y-101503286D02*
X135564686Y-100564980D01*
X121240000Y-90785400D02*
X121240000Y-85680000D01*
X118135400Y-102057200D02*
X120523000Y-99669600D01*
X118135400Y-102336600D02*
X118135400Y-102057200D01*
X120523000Y-99669600D02*
X120523000Y-96393000D01*
X120523000Y-96393000D02*
X122504200Y-94411800D01*
X122504200Y-94411800D02*
X122504200Y-92049600D01*
X122504200Y-92049600D02*
X121240000Y-90785400D01*
X138512601Y-101911201D02*
X138912600Y-102311200D01*
X137620391Y-101018991D02*
X138512601Y-101911201D01*
X135752743Y-101018991D02*
X137620391Y-101018991D01*
X118135400Y-102336600D02*
X118135400Y-103632000D01*
X119608600Y-105105200D02*
X133070600Y-105105200D01*
X133070600Y-105105200D02*
X135080390Y-103095410D01*
X118135400Y-103632000D02*
X119608600Y-105105200D01*
X135080390Y-103095410D02*
X135080390Y-101691344D01*
X135080390Y-101691344D02*
X135752743Y-101018991D01*
X118700000Y-86696000D02*
X118700000Y-85680000D01*
X119964200Y-87960200D02*
X118700000Y-86696000D01*
X116865400Y-102336600D02*
X119964200Y-99237800D01*
X119964200Y-99237800D02*
X119964200Y-87960200D01*
X137242601Y-101936601D02*
X137642600Y-102336600D01*
X136779002Y-101473002D02*
X137242601Y-101936601D01*
X135940800Y-101473002D02*
X136779002Y-101473002D01*
X116865400Y-104165400D02*
X118287800Y-105587800D01*
X116865400Y-102336600D02*
X116865400Y-104165400D01*
X118287800Y-105587800D02*
X133322906Y-105587800D01*
X133322906Y-105587800D02*
X135534401Y-103376305D01*
X135534401Y-103376305D02*
X135534401Y-101879401D01*
X135534401Y-101879401D02*
X135940800Y-101473002D01*
X115493800Y-86346200D02*
X116160000Y-85680000D01*
X115493800Y-90474800D02*
X115493800Y-86346200D01*
X117424200Y-92405200D02*
X115493800Y-90474800D01*
X117424200Y-100431600D02*
X117424200Y-92405200D01*
X115595400Y-102311200D02*
X115595400Y-102260400D01*
X115595400Y-102260400D02*
X117424200Y-100431600D01*
X136372600Y-103276400D02*
X136372600Y-102336600D01*
X133578600Y-106070400D02*
X136372600Y-103276400D01*
X117551200Y-106070400D02*
X133578600Y-106070400D01*
X115595400Y-102311200D02*
X115595400Y-104114600D01*
X115595400Y-104114600D02*
X117551200Y-106070400D01*
D22*
X165060000Y-124054600D02*
X167600000Y-124054600D01*
X167600000Y-124054600D02*
X170140000Y-124054600D01*
X170140000Y-124054600D02*
X172680000Y-124054600D01*
X170140000Y-116434600D02*
X172680000Y-116434600D01*
D20*
X104978200Y-111887000D02*
X104978200Y-121285000D01*
X104337200Y-73000000D02*
X106000000Y-73000000D01*
X104038400Y-73298800D02*
X104337200Y-73000000D01*
X104978200Y-104546400D02*
X104038400Y-103606600D01*
X104134200Y-85680000D02*
X106000000Y-85680000D01*
X104038400Y-85775800D02*
X104134200Y-85680000D01*
X104038400Y-85775800D02*
X104038400Y-73298800D01*
X104978200Y-111887000D02*
X104978200Y-110007400D01*
X104978200Y-110007400D02*
X104978200Y-104546400D01*
X104089200Y-95148400D02*
X104038400Y-95199200D01*
X105435400Y-95148400D02*
X104089200Y-95148400D01*
X104038400Y-96799400D02*
X104038400Y-95199200D01*
X104038400Y-95199200D02*
X104038400Y-85775800D01*
X104044200Y-98774800D02*
X105441200Y-98774800D01*
X104038400Y-98780600D02*
X104044200Y-98774800D01*
X104038400Y-98780600D02*
X104038400Y-96799400D01*
X104038400Y-103606600D02*
X104038400Y-98780600D01*
X124917200Y-96901000D02*
X124917200Y-100152200D01*
X124917200Y-100152200D02*
X123494800Y-101574600D01*
X123494800Y-101574600D02*
X123494800Y-101655880D01*
D23*
X165049200Y-119862600D02*
X165074600Y-119888000D01*
X154152600Y-119862600D02*
X165049200Y-119862600D01*
D21*
X114469999Y-92450001D02*
X113620000Y-93300000D01*
X114884200Y-92035800D02*
X114469999Y-92450001D01*
X114884200Y-92035800D02*
X114884200Y-85013800D01*
X114884200Y-85013800D02*
X115824000Y-84074000D01*
X115824000Y-84074000D02*
X122367040Y-84074000D01*
X113620000Y-93644000D02*
X113620000Y-93300000D01*
X108000800Y-102336600D02*
X108000800Y-99263200D01*
X108000800Y-99263200D02*
X113620000Y-93644000D01*
X128752600Y-84861400D02*
X128752600Y-102412800D01*
X126420880Y-82529680D02*
X128752600Y-84861400D01*
X111080000Y-95197934D02*
X111080000Y-93300000D01*
X107416600Y-98861334D02*
X111080000Y-95197934D01*
X107416600Y-101015800D02*
X107416600Y-98861334D01*
X106705400Y-102336600D02*
X106705400Y-101727000D01*
X106705400Y-101727000D02*
X107416600Y-101015800D01*
X108540000Y-94304400D02*
X108540000Y-93300000D01*
X108540000Y-96895200D02*
X108540000Y-94304400D01*
X106857800Y-98577400D02*
X108540000Y-96895200D01*
X106857800Y-100348515D02*
X106857800Y-98577400D01*
X105435400Y-102336600D02*
X105435400Y-101770915D01*
X105435400Y-101770915D02*
X106857800Y-100348515D01*
D24*
X106000000Y-92200000D02*
X106000000Y-93300000D01*
X106277400Y-91922600D02*
X106000000Y-92200000D01*
X112293400Y-91922600D02*
X106277400Y-91922600D01*
D21*
X119075200Y-88315800D02*
X117373400Y-90017600D01*
X117373400Y-90017600D02*
X116509800Y-90017600D01*
X162520000Y-124054600D02*
X159874211Y-121408811D01*
X159874211Y-121408811D02*
X113058589Y-121408811D01*
X113058589Y-121408811D02*
X112185399Y-122282001D01*
X112185399Y-122282001D02*
X111785400Y-122682000D01*
X135458200Y-99974400D02*
X135001000Y-99517200D01*
X141325600Y-101803200D02*
X139496800Y-99974400D01*
X139496800Y-99974400D02*
X135458200Y-99974400D01*
X141325600Y-102793800D02*
X141325600Y-101803200D01*
X136982200Y-103454200D02*
X140665200Y-103454200D01*
X134416800Y-106019600D02*
X136982200Y-103454200D01*
X133045200Y-113106200D02*
X134416800Y-111734600D01*
X140665200Y-103454200D02*
X141325600Y-102793800D01*
X124993400Y-111270515D02*
X125824715Y-110439200D01*
X134416800Y-111734600D02*
X134416800Y-106019600D01*
X129844800Y-113106200D02*
X133045200Y-113106200D01*
X124993400Y-111836200D02*
X124993400Y-111270515D01*
X125824715Y-110439200D02*
X128295400Y-110439200D01*
X128295400Y-110439200D02*
X129032000Y-111175800D01*
X129032000Y-111175800D02*
X129032000Y-112293400D01*
X129032000Y-112293400D02*
X129844800Y-113106200D01*
X131953000Y-107950000D02*
X132257800Y-107645200D01*
X131216400Y-107950000D02*
X131953000Y-107950000D01*
X130657600Y-107391200D02*
X131216400Y-107950000D01*
X116945800Y-107391200D02*
X130657600Y-107391200D01*
X111683800Y-104140000D02*
X113694600Y-104140000D01*
X113694600Y-104140000D02*
X116945800Y-107391200D01*
X122428000Y-113614200D02*
X122428000Y-111785400D01*
X121564400Y-114477800D02*
X122428000Y-113614200D01*
X113080000Y-116434600D02*
X115036800Y-114477800D01*
X115036800Y-114477800D02*
X121564400Y-114477800D01*
X118567200Y-90957400D02*
X117398800Y-90957400D01*
X119075200Y-89662000D02*
X119075200Y-90449400D01*
X119075200Y-90449400D02*
X118567200Y-90957400D01*
X131277360Y-102321360D02*
X130271520Y-101315520D01*
X130271520Y-101315520D02*
X130271520Y-94960440D01*
X113792000Y-105156000D02*
X113207800Y-105156000D01*
X116636800Y-108000800D02*
X113792000Y-105156000D01*
X130447334Y-108000800D02*
X116636800Y-108000800D01*
X131953000Y-109220000D02*
X131666534Y-109220000D01*
X131666534Y-109220000D02*
X130447334Y-108000800D01*
D22*
X208200000Y-113434600D02*
X208200000Y-116000000D01*
X205660000Y-113434600D02*
X205660000Y-116000000D01*
D21*
X112064800Y-125831600D02*
X111760000Y-125526800D01*
X152360000Y-124054600D02*
X150583000Y-125831600D01*
X150583000Y-125831600D02*
X112064800Y-125831600D01*
X113879999Y-124854599D02*
X113080000Y-124054600D01*
X114399800Y-125374400D02*
X113879999Y-124854599D01*
X147396200Y-125374400D02*
X114399800Y-125374400D01*
X149820000Y-124054600D02*
X148716000Y-124054600D01*
X148716000Y-124054600D02*
X147396200Y-125374400D01*
D22*
X213280000Y-105814600D02*
X213280000Y-108380000D01*
D21*
X210052400Y-111607600D02*
X213280000Y-108380000D01*
X188823600Y-112217200D02*
X189433200Y-111607600D01*
X188823600Y-115544600D02*
X188823600Y-112217200D01*
X187299600Y-117068600D02*
X188823600Y-115544600D01*
X176047400Y-117068600D02*
X187299600Y-117068600D01*
X174599600Y-118516400D02*
X176047400Y-117068600D01*
X174599600Y-121869200D02*
X174599600Y-118516400D01*
X110540000Y-122276400D02*
X111861600Y-120954800D01*
X110540000Y-124054600D02*
X110540000Y-122276400D01*
X111861600Y-120954800D02*
X162153600Y-120954800D01*
X162153600Y-120954800D02*
X163882999Y-122684199D01*
X163882999Y-122684199D02*
X173784601Y-122684199D01*
X189433200Y-111607600D02*
X210052400Y-111607600D01*
X173784601Y-122684199D02*
X174599600Y-121869200D01*
D22*
X210740000Y-105814600D02*
X210740000Y-108380000D01*
X208200000Y-105814600D02*
X208200000Y-108380000D01*
X205660000Y-105814600D02*
X205660000Y-108380000D01*
X203120000Y-105814600D02*
X203120000Y-108380000D01*
X200580000Y-105814600D02*
X200580000Y-108380000D01*
X198040000Y-105814600D02*
X198040000Y-108380000D01*
X192960000Y-105814600D02*
X192960000Y-108380000D01*
D21*
X110540000Y-117565970D02*
X110540000Y-116434600D01*
X110540000Y-117626600D02*
X110540000Y-117565970D01*
X111020210Y-118106810D02*
X110540000Y-117626600D01*
X151776800Y-119557800D02*
X122539064Y-119557800D01*
X154900000Y-116434600D02*
X151776800Y-119557800D01*
X122539064Y-119557800D02*
X121573864Y-118592600D01*
X121573864Y-118592600D02*
X117135932Y-118592599D01*
X117135932Y-118592599D02*
X116650144Y-118106810D01*
X116650144Y-118106810D02*
X111020210Y-118106810D01*
X163804600Y-117246400D02*
X163804600Y-114985800D01*
X163118800Y-117932200D02*
X163804600Y-117246400D01*
X154900000Y-116434600D02*
X156397600Y-117932200D01*
X156397600Y-117932200D02*
X163118800Y-117932200D01*
X114725399Y-122307401D02*
X114325400Y-122707400D01*
X159980000Y-124054600D02*
X157788222Y-121862822D01*
X157788222Y-121862822D02*
X115169978Y-121862822D01*
X115169978Y-121862822D02*
X114725399Y-122307401D01*
X116890800Y-122682000D02*
X116890800Y-122707400D01*
X117255967Y-122316833D02*
X116890800Y-122682000D01*
X157440000Y-124054600D02*
X155702233Y-122316833D01*
X155702233Y-122316833D02*
X117255967Y-122316833D01*
D24*
X176225200Y-109042200D02*
X178054000Y-110871000D01*
X157403800Y-110312200D02*
X158673800Y-109042200D01*
X158673800Y-109042200D02*
X176225200Y-109042200D01*
D21*
X118959999Y-123254601D02*
X118160000Y-124054600D01*
X119431000Y-122783600D02*
X118959999Y-123254601D01*
X154900000Y-124054600D02*
X153629000Y-122783600D01*
X153629000Y-122783600D02*
X119431000Y-122783600D01*
D24*
X178188191Y-108592191D02*
X180467000Y-110871000D01*
X154863800Y-110312200D02*
X156583809Y-108592191D01*
X156583809Y-108592191D02*
X178188191Y-108592191D01*
D21*
X134848800Y-114985800D02*
X134199999Y-115634601D01*
X137439400Y-115646200D02*
X136779000Y-114985800D01*
X138204590Y-117274990D02*
X137439400Y-116509800D01*
X164830400Y-113665000D02*
X148107400Y-113665000D01*
X134199999Y-115634601D02*
X133400000Y-116434600D01*
X137439400Y-116509800D02*
X137439400Y-115646200D01*
X167600000Y-116434600D02*
X164830400Y-113665000D01*
X136779000Y-114985800D02*
X134848800Y-114985800D01*
X148107400Y-113665000D02*
X147015200Y-114757200D01*
X147015200Y-114757200D02*
X147015200Y-116495668D01*
X147015200Y-116495668D02*
X146235878Y-117274990D01*
X146235878Y-117274990D02*
X138204590Y-117274990D01*
X127074400Y-117729000D02*
X125780000Y-116434600D01*
X160261590Y-114176190D02*
X148358210Y-114176190D01*
X162520000Y-116434600D02*
X160261590Y-114176190D01*
X148358210Y-114176190D02*
X147526390Y-115008010D01*
X147526390Y-116626544D02*
X146423934Y-117729000D01*
X147526390Y-115008010D02*
X147526390Y-116626544D01*
X146423934Y-117729000D02*
X127074400Y-117729000D01*
X146599233Y-118195767D02*
X147980400Y-116814600D01*
X147980400Y-116814600D02*
X147980400Y-115265200D01*
X147980400Y-115265200D02*
X148615400Y-114630200D01*
X148615400Y-114630200D02*
X158175600Y-114630200D01*
X159130001Y-115584601D02*
X159980000Y-116434600D01*
X158175600Y-114630200D02*
X159130001Y-115584601D01*
X125001167Y-118195767D02*
X146599233Y-118195767D01*
X123240000Y-116434600D02*
X125001167Y-118195767D01*
X121499999Y-117234599D02*
X120700000Y-116434600D01*
X122915178Y-118649778D02*
X121499999Y-117234599D01*
X156089611Y-115084211D02*
X151615789Y-115084211D01*
X157440000Y-116434600D02*
X156089611Y-115084211D01*
X151615789Y-115084211D02*
X151104600Y-115595400D01*
X151104600Y-115595400D02*
X151104600Y-117500400D01*
X151104600Y-117500400D02*
X149955222Y-118649778D01*
X149955222Y-118649778D02*
X122915178Y-118649778D01*
X116419999Y-117234599D02*
X115620000Y-116434600D01*
X152360000Y-116434600D02*
X152360000Y-117636681D01*
X152360000Y-117636681D02*
X150892892Y-119103789D01*
X150892892Y-119103789D02*
X122727121Y-119103789D01*
X122727121Y-119103789D02*
X121761921Y-118138589D01*
X121761921Y-118138589D02*
X117323989Y-118138589D01*
X117323989Y-118138589D02*
X116419999Y-117234599D01*
X165023800Y-110312200D02*
X167055800Y-112344200D01*
X167055800Y-112344200D02*
X168935400Y-112344200D01*
X124224515Y-112877600D02*
X123723400Y-112376485D01*
X125577600Y-112877600D02*
X124224515Y-112877600D01*
X125882400Y-112572800D02*
X125577600Y-112877600D01*
X125882400Y-111556800D02*
X125882400Y-112572800D01*
X126418990Y-111020210D02*
X125882400Y-111556800D01*
X152950602Y-108940600D02*
X151949866Y-108940600D01*
X129511410Y-113611010D02*
X128473200Y-112572800D01*
X153593800Y-111404400D02*
X153593800Y-109583798D01*
X145570590Y-113611010D02*
X129511410Y-113611010D01*
X123723400Y-112376485D02*
X123723400Y-111810800D01*
X153949400Y-111760000D02*
X153593800Y-111404400D01*
X147424790Y-109235143D02*
X147424790Y-111756810D01*
X165023800Y-110312200D02*
X163576000Y-111760000D01*
X163576000Y-111760000D02*
X153949400Y-111760000D01*
X128473200Y-112572800D02*
X128473200Y-111436866D01*
X153593800Y-109583798D02*
X152950602Y-108940600D01*
X151419657Y-108410390D02*
X148249543Y-108410390D01*
X148249543Y-108410390D02*
X147424790Y-109235143D01*
X147424790Y-111756810D02*
X145570590Y-113611010D01*
X151949866Y-108940600D02*
X151419657Y-108410390D01*
X128056544Y-111020210D02*
X126418990Y-111020210D01*
X128473200Y-111436866D02*
X128056544Y-111020210D01*
X194691000Y-111048800D02*
X195500000Y-110239800D01*
X189026800Y-111048800D02*
X194691000Y-111048800D01*
X187071000Y-116433600D02*
X188242590Y-115262010D01*
X188242590Y-111833010D02*
X189026800Y-111048800D01*
X188242590Y-115262010D02*
X188242590Y-111833010D01*
X173456600Y-118846600D02*
X175869600Y-116433600D01*
X153772134Y-118846600D02*
X173456600Y-118846600D01*
X152152914Y-120465820D02*
X153772134Y-118846600D01*
X114512770Y-119014830D02*
X116274031Y-119014830D01*
X195500000Y-110239800D02*
X195500000Y-108380000D01*
X113969800Y-119557800D02*
X114512770Y-119014830D01*
X116759818Y-119500617D02*
X121197752Y-119500620D01*
X175869600Y-116433600D02*
X187071000Y-116433600D01*
X121197752Y-119500620D02*
X122162950Y-120465820D01*
X116274031Y-119014830D02*
X116759818Y-119500617D01*
X122162950Y-120465820D02*
X152152914Y-120465820D01*
X152323800Y-109956600D02*
X152323800Y-110312200D01*
X151231600Y-108864400D02*
X152323800Y-109956600D01*
X148437600Y-108864400D02*
X151231600Y-108864400D01*
X127533400Y-112427285D02*
X129177515Y-114071400D01*
X127533400Y-111861600D02*
X127533400Y-112427285D01*
X129177515Y-114071400D02*
X145872200Y-114071400D01*
X145872200Y-114071400D02*
X147878800Y-112064800D01*
X147878800Y-112064800D02*
X147878800Y-109423200D01*
X147878800Y-109423200D02*
X148437600Y-108864400D01*
X165393536Y-112293400D02*
X153102919Y-112293400D01*
X194233800Y-107080800D02*
X194233800Y-110185200D01*
X166333336Y-113233200D02*
X165393536Y-112293400D01*
X195500000Y-105814600D02*
X194233800Y-107080800D01*
X152323800Y-111514281D02*
X152323800Y-110312200D01*
X194233800Y-110185200D02*
X193903600Y-110515400D01*
X193903600Y-110515400D02*
X187934600Y-110515400D01*
X187934600Y-110515400D02*
X185216800Y-113233200D01*
X153102919Y-112293400D02*
X152323800Y-111514281D01*
X185216800Y-113233200D02*
X166333336Y-113233200D01*
X114376200Y-115900200D02*
X115138200Y-115138200D01*
X114376200Y-117195600D02*
X114376200Y-115900200D01*
X111226600Y-111810800D02*
X111836200Y-112420400D01*
X111226600Y-111760000D02*
X111226600Y-111810800D01*
X111836200Y-112420400D02*
X111836200Y-117221000D01*
X111836200Y-117221000D02*
X112268000Y-117652800D01*
X112268000Y-117652800D02*
X113919000Y-117652800D01*
X113919000Y-117652800D02*
X114376200Y-117195600D01*
X115138200Y-115138200D02*
X124510800Y-115138200D01*
X168919570Y-114995370D02*
X168884600Y-114960400D01*
X185359630Y-114995370D02*
X168919570Y-114995370D01*
X186588400Y-113334800D02*
X186588400Y-113766600D01*
X186588400Y-113766600D02*
X185359630Y-114995370D01*
X166234467Y-114427000D02*
X168351200Y-114427000D01*
X165020610Y-113210990D02*
X165020610Y-113213143D01*
X146561190Y-114474610D02*
X147824810Y-113210990D01*
X168351200Y-114427000D02*
X168884600Y-114960400D01*
X146561190Y-116303410D02*
X146561190Y-114474610D01*
X146043620Y-116820980D02*
X146561190Y-116303410D01*
X138392646Y-116820980D02*
X146043620Y-116820980D01*
X132257800Y-115138200D02*
X132864210Y-114531790D01*
X124510800Y-115138200D02*
X132257800Y-115138200D01*
X147824810Y-113210990D02*
X165020610Y-113210990D01*
X132864210Y-114531790D02*
X136967057Y-114531790D01*
X136967057Y-114531790D02*
X137893410Y-115458143D01*
X137893410Y-115458143D02*
X137893410Y-116321744D01*
X165020610Y-113213143D02*
X166234467Y-114427000D01*
X137893410Y-116321744D02*
X138392646Y-116820980D01*
X173109076Y-118392589D02*
X175753865Y-115747800D01*
X153584077Y-118392589D02*
X173109076Y-118392589D01*
X175753865Y-115747800D02*
X186512200Y-115747800D01*
X151964857Y-120011809D02*
X153584077Y-118392589D01*
X122351006Y-120011809D02*
X151964857Y-120011809D01*
X109296200Y-117881400D02*
X109975620Y-118560820D01*
X116462089Y-118560820D02*
X116947876Y-119046607D01*
X116947876Y-119046607D02*
X119342494Y-119046608D01*
X119342494Y-119046608D02*
X121385810Y-119046611D01*
X109975620Y-118560820D02*
X116462089Y-118560820D01*
X121385810Y-119046611D02*
X122351006Y-120011809D01*
X186512200Y-115722400D02*
X186512200Y-115747800D01*
X186817000Y-115417600D02*
X186512200Y-115722400D01*
X184810400Y-114096800D02*
X184174004Y-114096800D01*
X149783800Y-111416200D02*
X149783800Y-110312200D01*
X151118200Y-112750600D02*
X149783800Y-111416200D01*
X165208668Y-112750600D02*
X151118200Y-112750600D01*
X166180246Y-113722178D02*
X165208668Y-112750600D01*
X183799382Y-113722178D02*
X166180246Y-113722178D01*
X184174004Y-114096800D02*
X183799382Y-113722178D01*
D22*
X210740000Y-113434600D02*
X210740000Y-116000000D01*
X200580000Y-113434600D02*
X200580000Y-116000000D01*
X198040000Y-113434600D02*
X198040000Y-116000000D01*
X195500000Y-113434600D02*
X195500000Y-116000000D01*
X192960000Y-113434600D02*
X192960000Y-116000000D01*
X190420000Y-113434600D02*
X190420000Y-116000000D01*
D20*
X213280000Y-113434600D02*
X213280000Y-116000000D01*
D21*
X138099800Y-89509600D02*
X136702800Y-89509600D01*
X142927320Y-85633040D02*
X141976360Y-85633040D01*
X141976360Y-85633040D02*
X138099800Y-89509600D01*
X110499810Y-120500790D02*
X115115840Y-120500790D01*
X108000000Y-124054600D02*
X108000000Y-123000600D01*
X108000000Y-123000600D02*
X110499810Y-120500790D01*
X112699800Y-102311200D02*
X109245400Y-102311200D01*
X117170200Y-106781600D02*
X112699800Y-102311200D01*
X131419600Y-106908600D02*
X131292600Y-106781600D01*
X131292600Y-106781600D02*
X117170200Y-106781600D01*
X144927320Y-85252560D02*
X144927320Y-85633040D01*
X144078960Y-84404200D02*
X144927320Y-85252560D01*
X141960600Y-84404200D02*
X144078960Y-84404200D01*
X138409680Y-87955120D02*
X141960600Y-84404200D01*
X136728200Y-87955120D02*
X138409680Y-87955120D01*
X129260600Y-101029235D02*
X129260600Y-94615000D01*
X130058160Y-102392480D02*
X130058160Y-101826795D01*
X129260600Y-94615000D02*
X129966720Y-93908880D01*
X130058160Y-101826795D02*
X129260600Y-101029235D01*
X129966720Y-93908880D02*
X130774440Y-93908880D01*
X130774440Y-93908880D02*
X136728200Y-87955120D01*
X115115840Y-120494560D02*
X115115840Y-120500790D01*
X115646200Y-119964200D02*
X115115840Y-120494560D01*
D20*
X190420000Y-105814600D02*
X190420000Y-108380000D01*
D21*
G36*
X129340001Y-83217571D02*
G01*
X129336807Y-83250000D01*
X129349550Y-83379383D01*
X129387290Y-83503793D01*
X129448575Y-83618450D01*
X129531052Y-83718948D01*
X129631550Y-83801425D01*
X129746207Y-83862710D01*
X129870617Y-83900450D01*
X129967581Y-83910000D01*
X130000000Y-83913193D01*
X130032419Y-83910000D01*
X141377169Y-83910000D01*
X138094050Y-87193120D01*
X136765622Y-87193120D01*
X136728199Y-87189434D01*
X136690776Y-87193120D01*
X136690774Y-87193120D01*
X136578822Y-87204146D01*
X136435185Y-87247718D01*
X136302808Y-87318475D01*
X136186778Y-87413698D01*
X136162921Y-87442768D01*
X131363023Y-92242667D01*
X131319297Y-92177226D01*
X131175134Y-92033063D01*
X131005616Y-91919795D01*
X130817258Y-91841774D01*
X130657600Y-91810016D01*
X130657600Y-89982711D01*
X130699537Y-89940774D01*
X130812805Y-89771256D01*
X130890826Y-89582898D01*
X130930600Y-89382939D01*
X130930600Y-89179061D01*
X130890826Y-88979102D01*
X130812805Y-88790744D01*
X130699537Y-88621226D01*
X130555374Y-88477063D01*
X130385856Y-88363795D01*
X130197498Y-88285774D01*
X129997539Y-88246000D01*
X129793661Y-88246000D01*
X129593702Y-88285774D01*
X129514600Y-88318539D01*
X129514600Y-84898822D01*
X129518286Y-84861399D01*
X129514600Y-84823974D01*
X129503574Y-84712022D01*
X129460002Y-84568385D01*
X129389245Y-84436008D01*
X129294022Y-84319978D01*
X129264953Y-84296122D01*
X127455880Y-82487050D01*
X127455880Y-82427741D01*
X127416106Y-82227782D01*
X127338085Y-82039424D01*
X127224817Y-81869906D01*
X127185595Y-81830684D01*
X127375134Y-81675134D01*
X127560706Y-81449014D01*
X127698599Y-81191034D01*
X127783513Y-80911111D01*
X127812185Y-80620000D01*
X127783513Y-80328889D01*
X127698599Y-80048966D01*
X127560706Y-79790986D01*
X127375134Y-79564866D01*
X127288403Y-79493688D01*
X127286783Y-79488346D01*
X127190081Y-79307430D01*
X127092551Y-79188589D01*
X127092547Y-79188585D01*
X127059943Y-79148857D01*
X127020215Y-79116253D01*
X124826152Y-76922191D01*
X124793543Y-76882457D01*
X124634970Y-76752319D01*
X124454054Y-76655617D01*
X124257750Y-76596069D01*
X124104752Y-76581000D01*
X124104741Y-76581000D01*
X124053600Y-76575963D01*
X124002459Y-76581000D01*
X107451736Y-76581000D01*
X107331067Y-76531017D01*
X107111788Y-76487400D01*
X106888212Y-76487400D01*
X106668933Y-76531017D01*
X106548264Y-76581000D01*
X105963336Y-76581000D01*
X105842667Y-76531017D01*
X105623388Y-76487400D01*
X105399812Y-76487400D01*
X105180533Y-76531017D01*
X104973976Y-76616576D01*
X104788080Y-76740788D01*
X104629988Y-76898880D01*
X104505776Y-77084776D01*
X104420217Y-77291333D01*
X104376600Y-77510612D01*
X104376600Y-77734188D01*
X104420217Y-77953467D01*
X104505776Y-78160024D01*
X104629988Y-78345920D01*
X104788080Y-78504012D01*
X104973976Y-78628224D01*
X105180533Y-78713783D01*
X105399812Y-78757400D01*
X105623388Y-78757400D01*
X105842667Y-78713783D01*
X105963336Y-78663800D01*
X106548264Y-78663800D01*
X106668933Y-78713783D01*
X106888212Y-78757400D01*
X107111788Y-78757400D01*
X107331067Y-78713783D01*
X107451736Y-78663800D01*
X123622239Y-78663800D01*
X124134004Y-79175565D01*
X124071111Y-79156487D01*
X123852950Y-79135000D01*
X123707050Y-79135000D01*
X123488889Y-79156487D01*
X123208966Y-79241401D01*
X122950986Y-79379294D01*
X122724866Y-79564866D01*
X122539294Y-79790986D01*
X122510000Y-79845791D01*
X122480706Y-79790986D01*
X122295134Y-79564866D01*
X122069014Y-79379294D01*
X121811034Y-79241401D01*
X121531111Y-79156487D01*
X121312950Y-79135000D01*
X121167050Y-79135000D01*
X120948889Y-79156487D01*
X120668966Y-79241401D01*
X120410986Y-79379294D01*
X120184866Y-79564866D01*
X119999294Y-79790986D01*
X119970000Y-79845791D01*
X119940706Y-79790986D01*
X119755134Y-79564866D01*
X119529014Y-79379294D01*
X119271034Y-79241401D01*
X118991111Y-79156487D01*
X118772950Y-79135000D01*
X118627050Y-79135000D01*
X118408889Y-79156487D01*
X118128966Y-79241401D01*
X117870986Y-79379294D01*
X117644866Y-79564866D01*
X117459294Y-79790986D01*
X117430000Y-79845791D01*
X117400706Y-79790986D01*
X117215134Y-79564866D01*
X116989014Y-79379294D01*
X116731034Y-79241401D01*
X116451111Y-79156487D01*
X116232950Y-79135000D01*
X116087050Y-79135000D01*
X115868889Y-79156487D01*
X115588966Y-79241401D01*
X115330986Y-79379294D01*
X115104866Y-79564866D01*
X114919294Y-79790986D01*
X114890000Y-79845791D01*
X114860706Y-79790986D01*
X114675134Y-79564866D01*
X114449014Y-79379294D01*
X114191034Y-79241401D01*
X113911111Y-79156487D01*
X113692950Y-79135000D01*
X113547050Y-79135000D01*
X113328889Y-79156487D01*
X113048966Y-79241401D01*
X112790986Y-79379294D01*
X112564866Y-79564866D01*
X112379294Y-79790986D01*
X112350000Y-79845791D01*
X112320706Y-79790986D01*
X112135134Y-79564866D01*
X111909014Y-79379294D01*
X111651034Y-79241401D01*
X111371111Y-79156487D01*
X111152950Y-79135000D01*
X111007050Y-79135000D01*
X110788889Y-79156487D01*
X110508966Y-79241401D01*
X110250986Y-79379294D01*
X110024866Y-79564866D01*
X109839294Y-79790986D01*
X109810000Y-79845791D01*
X109780706Y-79790986D01*
X109595134Y-79564866D01*
X109369014Y-79379294D01*
X109111034Y-79241401D01*
X108831111Y-79156487D01*
X108612950Y-79135000D01*
X108467050Y-79135000D01*
X108248889Y-79156487D01*
X107968966Y-79241401D01*
X107710986Y-79379294D01*
X107484866Y-79564866D01*
X107460393Y-79594687D01*
X107439502Y-79525820D01*
X107380537Y-79415506D01*
X107301185Y-79318815D01*
X107204494Y-79239463D01*
X107094180Y-79180498D01*
X106974482Y-79144188D01*
X106850000Y-79131928D01*
X105150000Y-79131928D01*
X105025518Y-79144188D01*
X104905820Y-79180498D01*
X104795506Y-79239463D01*
X104698815Y-79318815D01*
X104619463Y-79415506D01*
X104560498Y-79525820D01*
X104524188Y-79645518D01*
X104511928Y-79770000D01*
X104511928Y-81470000D01*
X104524188Y-81594482D01*
X104560498Y-81714180D01*
X104619463Y-81824494D01*
X104698815Y-81921185D01*
X104795506Y-82000537D01*
X104905820Y-82059502D01*
X105025518Y-82095812D01*
X105150000Y-82108072D01*
X106850000Y-82108072D01*
X106974482Y-82095812D01*
X107094180Y-82059502D01*
X107204494Y-82000537D01*
X107301185Y-81921185D01*
X107380537Y-81824494D01*
X107439502Y-81714180D01*
X107460393Y-81645313D01*
X107484866Y-81675134D01*
X107710986Y-81860706D01*
X107968966Y-81998599D01*
X108248889Y-82083513D01*
X108467050Y-82105000D01*
X108612950Y-82105000D01*
X108831111Y-82083513D01*
X108903825Y-82061455D01*
X110006320Y-83163951D01*
X110030178Y-83193022D01*
X110146208Y-83288245D01*
X110278585Y-83359002D01*
X110422222Y-83402574D01*
X110534174Y-83413600D01*
X110534176Y-83413600D01*
X110571599Y-83417286D01*
X110609022Y-83413600D01*
X115443050Y-83413600D01*
X115398607Y-83437355D01*
X115317653Y-83503793D01*
X115282578Y-83532578D01*
X115258721Y-83561649D01*
X114404741Y-84415629D01*
X114191034Y-84301401D01*
X113911111Y-84216487D01*
X113692950Y-84195000D01*
X113547050Y-84195000D01*
X113328889Y-84216487D01*
X113048966Y-84301401D01*
X112790986Y-84439294D01*
X112564866Y-84624866D01*
X112379294Y-84850986D01*
X112350000Y-84905791D01*
X112320706Y-84850986D01*
X112135134Y-84624866D01*
X111909014Y-84439294D01*
X111651034Y-84301401D01*
X111371111Y-84216487D01*
X111152950Y-84195000D01*
X111007050Y-84195000D01*
X110788889Y-84216487D01*
X110508966Y-84301401D01*
X110250986Y-84439294D01*
X110024866Y-84624866D01*
X109839294Y-84850986D01*
X109810000Y-84905791D01*
X109780706Y-84850986D01*
X109595134Y-84624866D01*
X109369014Y-84439294D01*
X109111034Y-84301401D01*
X108831111Y-84216487D01*
X108612950Y-84195000D01*
X108467050Y-84195000D01*
X108248889Y-84216487D01*
X107968966Y-84301401D01*
X107710986Y-84439294D01*
X107484866Y-84624866D01*
X107460393Y-84654687D01*
X107439502Y-84585820D01*
X107380537Y-84475506D01*
X107301185Y-84378815D01*
X107204494Y-84299463D01*
X107094180Y-84240498D01*
X106974482Y-84204188D01*
X106850000Y-84191928D01*
X106285750Y-84195000D01*
X106127000Y-84353750D01*
X106127000Y-85553000D01*
X106147000Y-85553000D01*
X106147000Y-85807000D01*
X106127000Y-85807000D01*
X106127000Y-87006250D01*
X106285750Y-87165000D01*
X106850000Y-87168072D01*
X106974482Y-87155812D01*
X107094180Y-87119502D01*
X107204494Y-87060537D01*
X107301185Y-86981185D01*
X107380537Y-86884494D01*
X107439502Y-86774180D01*
X107460393Y-86705313D01*
X107484866Y-86735134D01*
X107710986Y-86920706D01*
X107968966Y-87058599D01*
X108248889Y-87143513D01*
X108467050Y-87165000D01*
X108612950Y-87165000D01*
X108831111Y-87143513D01*
X109111034Y-87058599D01*
X109369014Y-86920706D01*
X109595134Y-86735134D01*
X109780706Y-86509014D01*
X109810000Y-86454209D01*
X109839294Y-86509014D01*
X110024866Y-86735134D01*
X110250986Y-86920706D01*
X110508966Y-87058599D01*
X110788889Y-87143513D01*
X111007050Y-87165000D01*
X111152950Y-87165000D01*
X111371111Y-87143513D01*
X111651034Y-87058599D01*
X111909014Y-86920706D01*
X112135134Y-86735134D01*
X112320706Y-86509014D01*
X112350000Y-86454209D01*
X112379294Y-86509014D01*
X112564866Y-86735134D01*
X112790986Y-86920706D01*
X113048966Y-87058599D01*
X113328889Y-87143513D01*
X113547050Y-87165000D01*
X113692950Y-87165000D01*
X113911111Y-87143513D01*
X114122201Y-87079479D01*
X114122200Y-91720170D01*
X113983825Y-91858545D01*
X113911111Y-91836487D01*
X113692950Y-91815000D01*
X113547050Y-91815000D01*
X113328889Y-91836487D01*
X113328400Y-91836635D01*
X113328400Y-91820661D01*
X113288626Y-91620702D01*
X113210605Y-91432344D01*
X113097337Y-91262826D01*
X112953174Y-91118663D01*
X112783656Y-91005395D01*
X112595298Y-90927374D01*
X112395339Y-90887600D01*
X112191461Y-90887600D01*
X111991502Y-90927374D01*
X111803144Y-91005395D01*
X111633626Y-91118663D01*
X111589689Y-91162600D01*
X106314723Y-91162600D01*
X106277400Y-91158924D01*
X106240077Y-91162600D01*
X106240067Y-91162600D01*
X106128414Y-91173597D01*
X105985153Y-91217054D01*
X105853124Y-91287626D01*
X105737399Y-91382599D01*
X105713596Y-91411603D01*
X105489003Y-91636196D01*
X105459999Y-91659999D01*
X105427969Y-91699028D01*
X105365026Y-91775724D01*
X105345674Y-91811928D01*
X105150000Y-91811928D01*
X105025518Y-91824188D01*
X104905820Y-91860498D01*
X104795506Y-91919463D01*
X104698815Y-91998815D01*
X104619463Y-92095506D01*
X104560498Y-92205820D01*
X104524188Y-92325518D01*
X104511928Y-92450000D01*
X104511928Y-94150000D01*
X104524188Y-94274482D01*
X104560498Y-94394180D01*
X104619463Y-94504494D01*
X104698815Y-94601185D01*
X104795506Y-94680537D01*
X104905820Y-94739502D01*
X105025518Y-94775812D01*
X105150000Y-94788072D01*
X106850000Y-94788072D01*
X106974482Y-94775812D01*
X107094180Y-94739502D01*
X107204494Y-94680537D01*
X107301185Y-94601185D01*
X107380537Y-94504494D01*
X107439502Y-94394180D01*
X107460393Y-94325313D01*
X107484866Y-94355134D01*
X107710986Y-94540706D01*
X107778001Y-94576526D01*
X107778000Y-96579569D01*
X106345449Y-98012121D01*
X106316379Y-98035978D01*
X106292522Y-98065048D01*
X106292521Y-98065049D01*
X106221155Y-98152008D01*
X106150399Y-98284385D01*
X106106827Y-98428022D01*
X106092114Y-98577400D01*
X106095801Y-98614833D01*
X106095800Y-100032884D01*
X104923049Y-101205636D01*
X104893979Y-101229493D01*
X104870122Y-101258563D01*
X104870121Y-101258564D01*
X104798755Y-101345523D01*
X104768887Y-101401403D01*
X104727998Y-101477900D01*
X104684426Y-101621537D01*
X104684172Y-101624117D01*
X104631463Y-101676826D01*
X104518195Y-101846344D01*
X104440174Y-102034702D01*
X104400400Y-102234661D01*
X104400400Y-102438539D01*
X104440174Y-102638498D01*
X104518195Y-102826856D01*
X104631463Y-102996374D01*
X104775626Y-103140537D01*
X104945144Y-103253805D01*
X105133502Y-103331826D01*
X105333461Y-103371600D01*
X105537339Y-103371600D01*
X105737298Y-103331826D01*
X105925656Y-103253805D01*
X106070400Y-103157090D01*
X106215144Y-103253805D01*
X106403502Y-103331826D01*
X106603461Y-103371600D01*
X106807339Y-103371600D01*
X107007298Y-103331826D01*
X107195656Y-103253805D01*
X107353100Y-103148605D01*
X107510544Y-103253805D01*
X107698902Y-103331826D01*
X107898861Y-103371600D01*
X108102739Y-103371600D01*
X108302698Y-103331826D01*
X108491056Y-103253805D01*
X108642107Y-103152876D01*
X108755144Y-103228405D01*
X108943502Y-103306426D01*
X109143461Y-103346200D01*
X109347339Y-103346200D01*
X109547298Y-103306426D01*
X109735656Y-103228405D01*
X109905174Y-103115137D01*
X109947111Y-103073200D01*
X112384170Y-103073200D01*
X112688970Y-103378000D01*
X112385511Y-103378000D01*
X112343574Y-103336063D01*
X112174056Y-103222795D01*
X111985698Y-103144774D01*
X111785739Y-103105000D01*
X111581861Y-103105000D01*
X111381902Y-103144774D01*
X111193544Y-103222795D01*
X111024026Y-103336063D01*
X110879863Y-103480226D01*
X110766595Y-103649744D01*
X110688574Y-103838102D01*
X110648800Y-104038061D01*
X110648800Y-104241939D01*
X110688574Y-104441898D01*
X110766595Y-104630256D01*
X110879863Y-104799774D01*
X111024026Y-104943937D01*
X111193544Y-105057205D01*
X111381902Y-105135226D01*
X111581861Y-105175000D01*
X111785739Y-105175000D01*
X111985698Y-105135226D01*
X112172800Y-105057725D01*
X112172800Y-105257939D01*
X112212574Y-105457898D01*
X112290595Y-105646256D01*
X112403863Y-105815774D01*
X112548026Y-105959937D01*
X112717544Y-106073205D01*
X112905902Y-106151226D01*
X113105861Y-106191000D01*
X113309739Y-106191000D01*
X113509698Y-106151226D01*
X113651047Y-106092677D01*
X116071520Y-108513151D01*
X116095378Y-108542222D01*
X116124448Y-108566079D01*
X116211407Y-108637445D01*
X116248954Y-108657514D01*
X116343785Y-108708202D01*
X116487422Y-108751774D01*
X116599374Y-108762800D01*
X116599377Y-108762800D01*
X116636800Y-108766486D01*
X116674223Y-108762800D01*
X130131704Y-108762800D01*
X131005132Y-109636228D01*
X131035795Y-109710256D01*
X131149063Y-109879774D01*
X131293226Y-110023937D01*
X131462744Y-110137205D01*
X131651102Y-110215226D01*
X131851061Y-110255000D01*
X132054939Y-110255000D01*
X132254898Y-110215226D01*
X132443256Y-110137205D01*
X132612774Y-110023937D01*
X132756937Y-109879774D01*
X132870205Y-109710256D01*
X132948226Y-109521898D01*
X132988000Y-109321939D01*
X132988000Y-109118061D01*
X132948226Y-108918102D01*
X132870205Y-108729744D01*
X132756937Y-108560226D01*
X132754686Y-108557975D01*
X132917574Y-108449137D01*
X133061737Y-108304974D01*
X133175005Y-108135456D01*
X133253026Y-107947098D01*
X133292800Y-107747139D01*
X133292800Y-107543261D01*
X133253026Y-107343302D01*
X133175005Y-107154944D01*
X133061737Y-106985426D01*
X132917574Y-106841263D01*
X132904310Y-106832400D01*
X133541177Y-106832400D01*
X133578600Y-106836086D01*
X133616023Y-106832400D01*
X133616026Y-106832400D01*
X133654801Y-106828581D01*
X133654800Y-111418969D01*
X132729570Y-112344200D01*
X130160431Y-112344200D01*
X129794000Y-111977770D01*
X129794000Y-111213223D01*
X129797686Y-111175800D01*
X129792744Y-111125626D01*
X129782974Y-111026422D01*
X129739402Y-110882785D01*
X129690403Y-110791114D01*
X129668645Y-110750407D01*
X129633491Y-110707573D01*
X129573422Y-110634378D01*
X129544347Y-110610517D01*
X128860684Y-109926854D01*
X128836822Y-109897778D01*
X128720792Y-109802555D01*
X128588415Y-109731798D01*
X128444778Y-109688226D01*
X128332826Y-109677200D01*
X128332823Y-109677200D01*
X128295400Y-109673514D01*
X128257977Y-109677200D01*
X125862138Y-109677200D01*
X125824715Y-109673514D01*
X125787292Y-109677200D01*
X125787289Y-109677200D01*
X125675337Y-109688226D01*
X125531700Y-109731798D01*
X125498182Y-109749714D01*
X125399322Y-109802555D01*
X125335401Y-109855014D01*
X125283293Y-109897778D01*
X125259435Y-109926849D01*
X124481049Y-110705236D01*
X124451979Y-110729093D01*
X124428122Y-110758163D01*
X124428121Y-110758164D01*
X124356755Y-110845123D01*
X124330847Y-110893595D01*
X124300006Y-110951292D01*
X124213656Y-110893595D01*
X124025298Y-110815574D01*
X123825339Y-110775800D01*
X123621461Y-110775800D01*
X123421502Y-110815574D01*
X123233144Y-110893595D01*
X123093328Y-110987017D01*
X123087774Y-110981463D01*
X122918256Y-110868195D01*
X122729898Y-110790174D01*
X122529939Y-110750400D01*
X122326061Y-110750400D01*
X122126102Y-110790174D01*
X121937744Y-110868195D01*
X121768226Y-110981463D01*
X121624063Y-111125626D01*
X121510795Y-111295144D01*
X121432774Y-111483502D01*
X121393000Y-111683461D01*
X121393000Y-111887339D01*
X121432774Y-112087298D01*
X121510795Y-112275656D01*
X121624063Y-112445174D01*
X121666001Y-112487112D01*
X121666000Y-113298569D01*
X121248770Y-113715800D01*
X115074222Y-113715800D01*
X115036799Y-113712114D01*
X114999376Y-113715800D01*
X114999374Y-113715800D01*
X114887422Y-113726826D01*
X114743785Y-113770398D01*
X114611408Y-113841155D01*
X114495378Y-113936378D01*
X114471521Y-113965448D01*
X113403736Y-115033234D01*
X113361309Y-115020364D01*
X113150492Y-114999600D01*
X113009508Y-114999600D01*
X112798691Y-115020364D01*
X112598200Y-115081182D01*
X112598200Y-112457823D01*
X112601886Y-112420400D01*
X112598200Y-112382974D01*
X112587174Y-112271022D01*
X112543602Y-112127385D01*
X112508598Y-112061898D01*
X112472845Y-111995007D01*
X112426174Y-111938139D01*
X112377622Y-111878978D01*
X112348547Y-111855117D01*
X112261600Y-111768170D01*
X112261600Y-111658061D01*
X112221826Y-111458102D01*
X112143805Y-111269744D01*
X112030537Y-111100226D01*
X111886374Y-110956063D01*
X111716856Y-110842795D01*
X111528498Y-110764774D01*
X111328539Y-110725000D01*
X111124661Y-110725000D01*
X110924702Y-110764774D01*
X110736344Y-110842795D01*
X110566826Y-110956063D01*
X110422663Y-111100226D01*
X110309395Y-111269744D01*
X110231374Y-111458102D01*
X110191600Y-111658061D01*
X110191600Y-111861939D01*
X110231374Y-112061898D01*
X110309395Y-112250256D01*
X110422663Y-112419774D01*
X110566826Y-112563937D01*
X110736344Y-112677205D01*
X110924702Y-112755226D01*
X111074200Y-112784963D01*
X111074201Y-115097077D01*
X110821309Y-115020364D01*
X110610492Y-114999600D01*
X110469508Y-114999600D01*
X110258691Y-115020364D01*
X109988192Y-115102418D01*
X109738899Y-115235668D01*
X109520392Y-115414992D01*
X109341068Y-115633499D01*
X109270000Y-115766458D01*
X109198932Y-115633499D01*
X109019608Y-115414992D01*
X108801101Y-115235668D01*
X108551808Y-115102418D01*
X108281309Y-115020364D01*
X108070492Y-114999600D01*
X107929508Y-114999600D01*
X107718691Y-115020364D01*
X107448192Y-115102418D01*
X107198899Y-115235668D01*
X106980392Y-115414992D01*
X106801068Y-115633499D01*
X106667818Y-115882792D01*
X106585764Y-116153291D01*
X106558057Y-116434600D01*
X106585764Y-116715909D01*
X106667818Y-116986408D01*
X106801068Y-117235701D01*
X106980392Y-117454208D01*
X107198899Y-117633532D01*
X107448192Y-117766782D01*
X107718691Y-117848836D01*
X107929508Y-117869600D01*
X108070492Y-117869600D01*
X108211200Y-117855741D01*
X108211200Y-117988263D01*
X108252896Y-118197883D01*
X108334685Y-118395340D01*
X108453425Y-118573047D01*
X108604553Y-118724175D01*
X108782260Y-118842915D01*
X108979717Y-118924704D01*
X109189337Y-118966400D01*
X109303569Y-118966400D01*
X109410340Y-119073171D01*
X109434198Y-119102242D01*
X109463268Y-119126099D01*
X109550227Y-119197465D01*
X109583140Y-119215057D01*
X109682605Y-119268222D01*
X109826242Y-119311794D01*
X109938194Y-119322820D01*
X109938197Y-119322820D01*
X109975620Y-119326506D01*
X110013043Y-119322820D01*
X112910284Y-119322820D01*
X112884800Y-119450937D01*
X112884800Y-119664663D01*
X112899545Y-119738790D01*
X110537232Y-119738790D01*
X110499809Y-119735104D01*
X110462386Y-119738790D01*
X110462384Y-119738790D01*
X110350432Y-119749816D01*
X110206795Y-119793388D01*
X110074418Y-119864145D01*
X109958388Y-119959368D01*
X109934531Y-119988438D01*
X107487649Y-122435321D01*
X107458579Y-122459178D01*
X107434722Y-122488248D01*
X107434721Y-122488249D01*
X107363355Y-122575208D01*
X107341269Y-122616528D01*
X107200000Y-122616528D01*
X107075518Y-122628788D01*
X106955820Y-122665098D01*
X106845506Y-122724063D01*
X106748815Y-122803415D01*
X106669463Y-122900106D01*
X106610498Y-123010420D01*
X106574188Y-123130118D01*
X106561928Y-123254600D01*
X106561928Y-124854600D01*
X106574188Y-124979082D01*
X106610498Y-125098780D01*
X106669463Y-125209094D01*
X106748815Y-125305785D01*
X106845506Y-125385137D01*
X106955820Y-125444102D01*
X107075518Y-125480412D01*
X107200000Y-125492672D01*
X108800000Y-125492672D01*
X108924482Y-125480412D01*
X109044180Y-125444102D01*
X109154494Y-125385137D01*
X109251185Y-125305785D01*
X109330537Y-125209094D01*
X109389502Y-125098780D01*
X109425812Y-124979082D01*
X109427581Y-124961118D01*
X109520392Y-125074208D01*
X109738899Y-125253532D01*
X109988192Y-125386782D01*
X110258691Y-125468836D01*
X110469508Y-125489600D01*
X110610492Y-125489600D01*
X110675000Y-125483246D01*
X110675000Y-125633663D01*
X110716043Y-125840000D01*
X103660000Y-125840000D01*
X103660000Y-86530000D01*
X104511928Y-86530000D01*
X104524188Y-86654482D01*
X104560498Y-86774180D01*
X104619463Y-86884494D01*
X104698815Y-86981185D01*
X104795506Y-87060537D01*
X104905820Y-87119502D01*
X105025518Y-87155812D01*
X105150000Y-87168072D01*
X105714250Y-87165000D01*
X105873000Y-87006250D01*
X105873000Y-85807000D01*
X104673750Y-85807000D01*
X104515000Y-85965750D01*
X104511928Y-86530000D01*
X103660000Y-86530000D01*
X103660000Y-84830000D01*
X104511928Y-84830000D01*
X104515000Y-85394250D01*
X104673750Y-85553000D01*
X105873000Y-85553000D01*
X105873000Y-84353750D01*
X105714250Y-84195000D01*
X105150000Y-84191928D01*
X105025518Y-84204188D01*
X104905820Y-84240498D01*
X104795506Y-84299463D01*
X104698815Y-84378815D01*
X104619463Y-84475506D01*
X104560498Y-84585820D01*
X104524188Y-84705518D01*
X104511928Y-84830000D01*
X103660000Y-84830000D01*
X103660000Y-73850000D01*
X104511928Y-73850000D01*
X104524188Y-73974482D01*
X104560498Y-74094180D01*
X104619463Y-74204494D01*
X104698815Y-74301185D01*
X104795506Y-74380537D01*
X104905820Y-74439502D01*
X105025518Y-74475812D01*
X105150000Y-74488072D01*
X105714250Y-74485000D01*
X105873000Y-74326250D01*
X105873000Y-73127000D01*
X104673750Y-73127000D01*
X104515000Y-73285750D01*
X104511928Y-73850000D01*
X103660000Y-73850000D01*
X103660000Y-72150000D01*
X104511928Y-72150000D01*
X104515000Y-72714250D01*
X104673750Y-72873000D01*
X105873000Y-72873000D01*
X105873000Y-71673750D01*
X106127000Y-71673750D01*
X106127000Y-72873000D01*
X106147000Y-72873000D01*
X106147000Y-73127000D01*
X106127000Y-73127000D01*
X106127000Y-74326250D01*
X106285750Y-74485000D01*
X106850000Y-74488072D01*
X106974482Y-74475812D01*
X107094180Y-74439502D01*
X107204494Y-74380537D01*
X107301185Y-74301185D01*
X107380537Y-74204494D01*
X107439502Y-74094180D01*
X107460393Y-74025313D01*
X107484866Y-74055134D01*
X107710986Y-74240706D01*
X107968966Y-74378599D01*
X108248889Y-74463513D01*
X108467050Y-74485000D01*
X108612950Y-74485000D01*
X108831111Y-74463513D01*
X109111034Y-74378599D01*
X109369014Y-74240706D01*
X109595134Y-74055134D01*
X109780706Y-73829014D01*
X109810000Y-73774209D01*
X109839294Y-73829014D01*
X110024866Y-74055134D01*
X110250986Y-74240706D01*
X110508966Y-74378599D01*
X110788889Y-74463513D01*
X111007050Y-74485000D01*
X111152950Y-74485000D01*
X111371111Y-74463513D01*
X111651034Y-74378599D01*
X111909014Y-74240706D01*
X112135134Y-74055134D01*
X112320706Y-73829014D01*
X112350000Y-73774209D01*
X112379294Y-73829014D01*
X112564866Y-74055134D01*
X112790986Y-74240706D01*
X113048966Y-74378599D01*
X113328889Y-74463513D01*
X113547050Y-74485000D01*
X113692950Y-74485000D01*
X113911111Y-74463513D01*
X114191034Y-74378599D01*
X114449014Y-74240706D01*
X114675134Y-74055134D01*
X114860706Y-73829014D01*
X114890000Y-73774209D01*
X114919294Y-73829014D01*
X115104866Y-74055134D01*
X115330986Y-74240706D01*
X115588966Y-74378599D01*
X115868889Y-74463513D01*
X116087050Y-74485000D01*
X116232950Y-74485000D01*
X116451111Y-74463513D01*
X116731034Y-74378599D01*
X116989014Y-74240706D01*
X117215134Y-74055134D01*
X117400706Y-73829014D01*
X117430000Y-73774209D01*
X117459294Y-73829014D01*
X117644866Y-74055134D01*
X117870986Y-74240706D01*
X118128966Y-74378599D01*
X118408889Y-74463513D01*
X118627050Y-74485000D01*
X118772950Y-74485000D01*
X118991111Y-74463513D01*
X119271034Y-74378599D01*
X119529014Y-74240706D01*
X119755134Y-74055134D01*
X119940706Y-73829014D01*
X119970000Y-73774209D01*
X119999294Y-73829014D01*
X120184866Y-74055134D01*
X120410986Y-74240706D01*
X120668966Y-74378599D01*
X120948889Y-74463513D01*
X121167050Y-74485000D01*
X121312950Y-74485000D01*
X121531111Y-74463513D01*
X121811034Y-74378599D01*
X122069014Y-74240706D01*
X122295134Y-74055134D01*
X122480706Y-73829014D01*
X122510000Y-73774209D01*
X122539294Y-73829014D01*
X122724866Y-74055134D01*
X122950986Y-74240706D01*
X123208966Y-74378599D01*
X123488889Y-74463513D01*
X123707050Y-74485000D01*
X123852950Y-74485000D01*
X124071111Y-74463513D01*
X124351034Y-74378599D01*
X124609014Y-74240706D01*
X124835134Y-74055134D01*
X125020706Y-73829014D01*
X125050000Y-73774209D01*
X125079294Y-73829014D01*
X125264866Y-74055134D01*
X125490986Y-74240706D01*
X125748966Y-74378599D01*
X126028889Y-74463513D01*
X126247050Y-74485000D01*
X126392950Y-74485000D01*
X126611111Y-74463513D01*
X126891034Y-74378599D01*
X127149014Y-74240706D01*
X127375134Y-74055134D01*
X127560706Y-73829014D01*
X127698599Y-73571034D01*
X127783513Y-73291111D01*
X127812185Y-73000000D01*
X127783513Y-72708889D01*
X127698599Y-72428966D01*
X127560706Y-72170986D01*
X127375134Y-71944866D01*
X127149014Y-71759294D01*
X126891034Y-71621401D01*
X126611111Y-71536487D01*
X126392950Y-71515000D01*
X126247050Y-71515000D01*
X126028889Y-71536487D01*
X125748966Y-71621401D01*
X125490986Y-71759294D01*
X125264866Y-71944866D01*
X125079294Y-72170986D01*
X125050000Y-72225791D01*
X125020706Y-72170986D01*
X124835134Y-71944866D01*
X124609014Y-71759294D01*
X124351034Y-71621401D01*
X124071111Y-71536487D01*
X123852950Y-71515000D01*
X123707050Y-71515000D01*
X123488889Y-71536487D01*
X123208966Y-71621401D01*
X122950986Y-71759294D01*
X122724866Y-71944866D01*
X122539294Y-72170986D01*
X122510000Y-72225791D01*
X122480706Y-72170986D01*
X122295134Y-71944866D01*
X122069014Y-71759294D01*
X121811034Y-71621401D01*
X121531111Y-71536487D01*
X121312950Y-71515000D01*
X121167050Y-71515000D01*
X120948889Y-71536487D01*
X120668966Y-71621401D01*
X120410986Y-71759294D01*
X120184866Y-71944866D01*
X119999294Y-72170986D01*
X119970000Y-72225791D01*
X119940706Y-72170986D01*
X119755134Y-71944866D01*
X119529014Y-71759294D01*
X119271034Y-71621401D01*
X118991111Y-71536487D01*
X118772950Y-71515000D01*
X118627050Y-71515000D01*
X118408889Y-71536487D01*
X118128966Y-71621401D01*
X117870986Y-71759294D01*
X117644866Y-71944866D01*
X117459294Y-72170986D01*
X117430000Y-72225791D01*
X117400706Y-72170986D01*
X117215134Y-71944866D01*
X116989014Y-71759294D01*
X116731034Y-71621401D01*
X116451111Y-71536487D01*
X116232950Y-71515000D01*
X116087050Y-71515000D01*
X115868889Y-71536487D01*
X115588966Y-71621401D01*
X115330986Y-71759294D01*
X115104866Y-71944866D01*
X114919294Y-72170986D01*
X114890000Y-72225791D01*
X114860706Y-72170986D01*
X114675134Y-71944866D01*
X114449014Y-71759294D01*
X114191034Y-71621401D01*
X113911111Y-71536487D01*
X113692950Y-71515000D01*
X113547050Y-71515000D01*
X113328889Y-71536487D01*
X113048966Y-71621401D01*
X112790986Y-71759294D01*
X112564866Y-71944866D01*
X112379294Y-72170986D01*
X112350000Y-72225791D01*
X112320706Y-72170986D01*
X112135134Y-71944866D01*
X111909014Y-71759294D01*
X111651034Y-71621401D01*
X111371111Y-71536487D01*
X111152950Y-71515000D01*
X111007050Y-71515000D01*
X110788889Y-71536487D01*
X110508966Y-71621401D01*
X110250986Y-71759294D01*
X110024866Y-71944866D01*
X109839294Y-72170986D01*
X109810000Y-72225791D01*
X109780706Y-72170986D01*
X109595134Y-71944866D01*
X109369014Y-71759294D01*
X109111034Y-71621401D01*
X108831111Y-71536487D01*
X108612950Y-71515000D01*
X108467050Y-71515000D01*
X108248889Y-71536487D01*
X107968966Y-71621401D01*
X107710986Y-71759294D01*
X107484866Y-71944866D01*
X107460393Y-71974687D01*
X107439502Y-71905820D01*
X107380537Y-71795506D01*
X107301185Y-71698815D01*
X107204494Y-71619463D01*
X107094180Y-71560498D01*
X106974482Y-71524188D01*
X106850000Y-71511928D01*
X106285750Y-71515000D01*
X106127000Y-71673750D01*
X105873000Y-71673750D01*
X105714250Y-71515000D01*
X105150000Y-71511928D01*
X105025518Y-71524188D01*
X104905820Y-71560498D01*
X104795506Y-71619463D01*
X104698815Y-71698815D01*
X104619463Y-71795506D01*
X104560498Y-71905820D01*
X104524188Y-72025518D01*
X104511928Y-72150000D01*
X103660000Y-72150000D01*
X103660000Y-71410000D01*
X129340000Y-71410000D01*
X129340001Y-83217571D01*
X129340001Y-83217571D01*
G37*
X129340001Y-83217571D02*
X129336807Y-83250000D01*
X129349550Y-83379383D01*
X129387290Y-83503793D01*
X129448575Y-83618450D01*
X129531052Y-83718948D01*
X129631550Y-83801425D01*
X129746207Y-83862710D01*
X129870617Y-83900450D01*
X129967581Y-83910000D01*
X130000000Y-83913193D01*
X130032419Y-83910000D01*
X141377169Y-83910000D01*
X138094050Y-87193120D01*
X136765622Y-87193120D01*
X136728199Y-87189434D01*
X136690776Y-87193120D01*
X136690774Y-87193120D01*
X136578822Y-87204146D01*
X136435185Y-87247718D01*
X136302808Y-87318475D01*
X136186778Y-87413698D01*
X136162921Y-87442768D01*
X131363023Y-92242667D01*
X131319297Y-92177226D01*
X131175134Y-92033063D01*
X131005616Y-91919795D01*
X130817258Y-91841774D01*
X130657600Y-91810016D01*
X130657600Y-89982711D01*
X130699537Y-89940774D01*
X130812805Y-89771256D01*
X130890826Y-89582898D01*
X130930600Y-89382939D01*
X130930600Y-89179061D01*
X130890826Y-88979102D01*
X130812805Y-88790744D01*
X130699537Y-88621226D01*
X130555374Y-88477063D01*
X130385856Y-88363795D01*
X130197498Y-88285774D01*
X129997539Y-88246000D01*
X129793661Y-88246000D01*
X129593702Y-88285774D01*
X129514600Y-88318539D01*
X129514600Y-84898822D01*
X129518286Y-84861399D01*
X129514600Y-84823974D01*
X129503574Y-84712022D01*
X129460002Y-84568385D01*
X129389245Y-84436008D01*
X129294022Y-84319978D01*
X129264953Y-84296122D01*
X127455880Y-82487050D01*
X127455880Y-82427741D01*
X127416106Y-82227782D01*
X127338085Y-82039424D01*
X127224817Y-81869906D01*
X127185595Y-81830684D01*
X127375134Y-81675134D01*
X127560706Y-81449014D01*
X127698599Y-81191034D01*
X127783513Y-80911111D01*
X127812185Y-80620000D01*
X127783513Y-80328889D01*
X127698599Y-80048966D01*
X127560706Y-79790986D01*
X127375134Y-79564866D01*
X127288403Y-79493688D01*
X127286783Y-79488346D01*
X127190081Y-79307430D01*
X127092551Y-79188589D01*
X127092547Y-79188585D01*
X127059943Y-79148857D01*
X127020215Y-79116253D01*
X124826152Y-76922191D01*
X124793543Y-76882457D01*
X124634970Y-76752319D01*
X124454054Y-76655617D01*
X124257750Y-76596069D01*
X124104752Y-76581000D01*
X124104741Y-76581000D01*
X124053600Y-76575963D01*
X124002459Y-76581000D01*
X107451736Y-76581000D01*
X107331067Y-76531017D01*
X107111788Y-76487400D01*
X106888212Y-76487400D01*
X106668933Y-76531017D01*
X106548264Y-76581000D01*
X105963336Y-76581000D01*
X105842667Y-76531017D01*
X105623388Y-76487400D01*
X105399812Y-76487400D01*
X105180533Y-76531017D01*
X104973976Y-76616576D01*
X104788080Y-76740788D01*
X104629988Y-76898880D01*
X104505776Y-77084776D01*
X104420217Y-77291333D01*
X104376600Y-77510612D01*
X104376600Y-77734188D01*
X104420217Y-77953467D01*
X104505776Y-78160024D01*
X104629988Y-78345920D01*
X104788080Y-78504012D01*
X104973976Y-78628224D01*
X105180533Y-78713783D01*
X105399812Y-78757400D01*
X105623388Y-78757400D01*
X105842667Y-78713783D01*
X105963336Y-78663800D01*
X106548264Y-78663800D01*
X106668933Y-78713783D01*
X106888212Y-78757400D01*
X107111788Y-78757400D01*
X107331067Y-78713783D01*
X107451736Y-78663800D01*
X123622239Y-78663800D01*
X124134004Y-79175565D01*
X124071111Y-79156487D01*
X123852950Y-79135000D01*
X123707050Y-79135000D01*
X123488889Y-79156487D01*
X123208966Y-79241401D01*
X122950986Y-79379294D01*
X122724866Y-79564866D01*
X122539294Y-79790986D01*
X122510000Y-79845791D01*
X122480706Y-79790986D01*
X122295134Y-79564866D01*
X122069014Y-79379294D01*
X121811034Y-79241401D01*
X121531111Y-79156487D01*
X121312950Y-79135000D01*
X121167050Y-79135000D01*
X120948889Y-79156487D01*
X120668966Y-79241401D01*
X120410986Y-79379294D01*
X120184866Y-79564866D01*
X119999294Y-79790986D01*
X119970000Y-79845791D01*
X119940706Y-79790986D01*
X119755134Y-79564866D01*
X119529014Y-79379294D01*
X119271034Y-79241401D01*
X118991111Y-79156487D01*
X118772950Y-79135000D01*
X118627050Y-79135000D01*
X118408889Y-79156487D01*
X118128966Y-79241401D01*
X117870986Y-79379294D01*
X117644866Y-79564866D01*
X117459294Y-79790986D01*
X117430000Y-79845791D01*
X117400706Y-79790986D01*
X117215134Y-79564866D01*
X116989014Y-79379294D01*
X116731034Y-79241401D01*
X116451111Y-79156487D01*
X116232950Y-79135000D01*
X116087050Y-79135000D01*
X115868889Y-79156487D01*
X115588966Y-79241401D01*
X115330986Y-79379294D01*
X115104866Y-79564866D01*
X114919294Y-79790986D01*
X114890000Y-79845791D01*
X114860706Y-79790986D01*
X114675134Y-79564866D01*
X114449014Y-79379294D01*
X114191034Y-79241401D01*
X113911111Y-79156487D01*
X113692950Y-79135000D01*
X113547050Y-79135000D01*
X113328889Y-79156487D01*
X113048966Y-79241401D01*
X112790986Y-79379294D01*
X112564866Y-79564866D01*
X112379294Y-79790986D01*
X112350000Y-79845791D01*
X112320706Y-79790986D01*
X112135134Y-79564866D01*
X111909014Y-79379294D01*
X111651034Y-79241401D01*
X111371111Y-79156487D01*
X111152950Y-79135000D01*
X111007050Y-79135000D01*
X110788889Y-79156487D01*
X110508966Y-79241401D01*
X110250986Y-79379294D01*
X110024866Y-79564866D01*
X109839294Y-79790986D01*
X109810000Y-79845791D01*
X109780706Y-79790986D01*
X109595134Y-79564866D01*
X109369014Y-79379294D01*
X109111034Y-79241401D01*
X108831111Y-79156487D01*
X108612950Y-79135000D01*
X108467050Y-79135000D01*
X108248889Y-79156487D01*
X107968966Y-79241401D01*
X107710986Y-79379294D01*
X107484866Y-79564866D01*
X107460393Y-79594687D01*
X107439502Y-79525820D01*
X107380537Y-79415506D01*
X107301185Y-79318815D01*
X107204494Y-79239463D01*
X107094180Y-79180498D01*
X106974482Y-79144188D01*
X106850000Y-79131928D01*
X105150000Y-79131928D01*
X105025518Y-79144188D01*
X104905820Y-79180498D01*
X104795506Y-79239463D01*
X104698815Y-79318815D01*
X104619463Y-79415506D01*
X104560498Y-79525820D01*
X104524188Y-79645518D01*
X104511928Y-79770000D01*
X104511928Y-81470000D01*
X104524188Y-81594482D01*
X104560498Y-81714180D01*
X104619463Y-81824494D01*
X104698815Y-81921185D01*
X104795506Y-82000537D01*
X104905820Y-82059502D01*
X105025518Y-82095812D01*
X105150000Y-82108072D01*
X106850000Y-82108072D01*
X106974482Y-82095812D01*
X107094180Y-82059502D01*
X107204494Y-82000537D01*
X107301185Y-81921185D01*
X107380537Y-81824494D01*
X107439502Y-81714180D01*
X107460393Y-81645313D01*
X107484866Y-81675134D01*
X107710986Y-81860706D01*
X107968966Y-81998599D01*
X108248889Y-82083513D01*
X108467050Y-82105000D01*
X108612950Y-82105000D01*
X108831111Y-82083513D01*
X108903825Y-82061455D01*
X110006320Y-83163951D01*
X110030178Y-83193022D01*
X110146208Y-83288245D01*
X110278585Y-83359002D01*
X110422222Y-83402574D01*
X110534174Y-83413600D01*
X110534176Y-83413600D01*
X110571599Y-83417286D01*
X110609022Y-83413600D01*
X115443050Y-83413600D01*
X115398607Y-83437355D01*
X115317653Y-83503793D01*
X115282578Y-83532578D01*
X115258721Y-83561649D01*
X114404741Y-84415629D01*
X114191034Y-84301401D01*
X113911111Y-84216487D01*
X113692950Y-84195000D01*
X113547050Y-84195000D01*
X113328889Y-84216487D01*
X113048966Y-84301401D01*
X112790986Y-84439294D01*
X112564866Y-84624866D01*
X112379294Y-84850986D01*
X112350000Y-84905791D01*
X112320706Y-84850986D01*
X112135134Y-84624866D01*
X111909014Y-84439294D01*
X111651034Y-84301401D01*
X111371111Y-84216487D01*
X111152950Y-84195000D01*
X111007050Y-84195000D01*
X110788889Y-84216487D01*
X110508966Y-84301401D01*
X110250986Y-84439294D01*
X110024866Y-84624866D01*
X109839294Y-84850986D01*
X109810000Y-84905791D01*
X109780706Y-84850986D01*
X109595134Y-84624866D01*
X109369014Y-84439294D01*
X109111034Y-84301401D01*
X108831111Y-84216487D01*
X108612950Y-84195000D01*
X108467050Y-84195000D01*
X108248889Y-84216487D01*
X107968966Y-84301401D01*
X107710986Y-84439294D01*
X107484866Y-84624866D01*
X107460393Y-84654687D01*
X107439502Y-84585820D01*
X107380537Y-84475506D01*
X107301185Y-84378815D01*
X107204494Y-84299463D01*
X107094180Y-84240498D01*
X106974482Y-84204188D01*
X106850000Y-84191928D01*
X106285750Y-84195000D01*
X106127000Y-84353750D01*
X106127000Y-85553000D01*
X106147000Y-85553000D01*
X106147000Y-85807000D01*
X106127000Y-85807000D01*
X106127000Y-87006250D01*
X106285750Y-87165000D01*
X106850000Y-87168072D01*
X106974482Y-87155812D01*
X107094180Y-87119502D01*
X107204494Y-87060537D01*
X107301185Y-86981185D01*
X107380537Y-86884494D01*
X107439502Y-86774180D01*
X107460393Y-86705313D01*
X107484866Y-86735134D01*
X107710986Y-86920706D01*
X107968966Y-87058599D01*
X108248889Y-87143513D01*
X108467050Y-87165000D01*
X108612950Y-87165000D01*
X108831111Y-87143513D01*
X109111034Y-87058599D01*
X109369014Y-86920706D01*
X109595134Y-86735134D01*
X109780706Y-86509014D01*
X109810000Y-86454209D01*
X109839294Y-86509014D01*
X110024866Y-86735134D01*
X110250986Y-86920706D01*
X110508966Y-87058599D01*
X110788889Y-87143513D01*
X111007050Y-87165000D01*
X111152950Y-87165000D01*
X111371111Y-87143513D01*
X111651034Y-87058599D01*
X111909014Y-86920706D01*
X112135134Y-86735134D01*
X112320706Y-86509014D01*
X112350000Y-86454209D01*
X112379294Y-86509014D01*
X112564866Y-86735134D01*
X112790986Y-86920706D01*
X113048966Y-87058599D01*
X113328889Y-87143513D01*
X113547050Y-87165000D01*
X113692950Y-87165000D01*
X113911111Y-87143513D01*
X114122201Y-87079479D01*
X114122200Y-91720170D01*
X113983825Y-91858545D01*
X113911111Y-91836487D01*
X113692950Y-91815000D01*
X113547050Y-91815000D01*
X113328889Y-91836487D01*
X113328400Y-91836635D01*
X113328400Y-91820661D01*
X113288626Y-91620702D01*
X113210605Y-91432344D01*
X113097337Y-91262826D01*
X112953174Y-91118663D01*
X112783656Y-91005395D01*
X112595298Y-90927374D01*
X112395339Y-90887600D01*
X112191461Y-90887600D01*
X111991502Y-90927374D01*
X111803144Y-91005395D01*
X111633626Y-91118663D01*
X111589689Y-91162600D01*
X106314723Y-91162600D01*
X106277400Y-91158924D01*
X106240077Y-91162600D01*
X106240067Y-91162600D01*
X106128414Y-91173597D01*
X105985153Y-91217054D01*
X105853124Y-91287626D01*
X105737399Y-91382599D01*
X105713596Y-91411603D01*
X105489003Y-91636196D01*
X105459999Y-91659999D01*
X105427969Y-91699028D01*
X105365026Y-91775724D01*
X105345674Y-91811928D01*
X105150000Y-91811928D01*
X105025518Y-91824188D01*
X104905820Y-91860498D01*
X104795506Y-91919463D01*
X104698815Y-91998815D01*
X104619463Y-92095506D01*
X104560498Y-92205820D01*
X104524188Y-92325518D01*
X104511928Y-92450000D01*
X104511928Y-94150000D01*
X104524188Y-94274482D01*
X104560498Y-94394180D01*
X104619463Y-94504494D01*
X104698815Y-94601185D01*
X104795506Y-94680537D01*
X104905820Y-94739502D01*
X105025518Y-94775812D01*
X105150000Y-94788072D01*
X106850000Y-94788072D01*
X106974482Y-94775812D01*
X107094180Y-94739502D01*
X107204494Y-94680537D01*
X107301185Y-94601185D01*
X107380537Y-94504494D01*
X107439502Y-94394180D01*
X107460393Y-94325313D01*
X107484866Y-94355134D01*
X107710986Y-94540706D01*
X107778001Y-94576526D01*
X107778000Y-96579569D01*
X106345449Y-98012121D01*
X106316379Y-98035978D01*
X106292522Y-98065048D01*
X106292521Y-98065049D01*
X106221155Y-98152008D01*
X106150399Y-98284385D01*
X106106827Y-98428022D01*
X106092114Y-98577400D01*
X106095801Y-98614833D01*
X106095800Y-100032884D01*
X104923049Y-101205636D01*
X104893979Y-101229493D01*
X104870122Y-101258563D01*
X104870121Y-101258564D01*
X104798755Y-101345523D01*
X104768887Y-101401403D01*
X104727998Y-101477900D01*
X104684426Y-101621537D01*
X104684172Y-101624117D01*
X104631463Y-101676826D01*
X104518195Y-101846344D01*
X104440174Y-102034702D01*
X104400400Y-102234661D01*
X104400400Y-102438539D01*
X104440174Y-102638498D01*
X104518195Y-102826856D01*
X104631463Y-102996374D01*
X104775626Y-103140537D01*
X104945144Y-103253805D01*
X105133502Y-103331826D01*
X105333461Y-103371600D01*
X105537339Y-103371600D01*
X105737298Y-103331826D01*
X105925656Y-103253805D01*
X106070400Y-103157090D01*
X106215144Y-103253805D01*
X106403502Y-103331826D01*
X106603461Y-103371600D01*
X106807339Y-103371600D01*
X107007298Y-103331826D01*
X107195656Y-103253805D01*
X107353100Y-103148605D01*
X107510544Y-103253805D01*
X107698902Y-103331826D01*
X107898861Y-103371600D01*
X108102739Y-103371600D01*
X108302698Y-103331826D01*
X108491056Y-103253805D01*
X108642107Y-103152876D01*
X108755144Y-103228405D01*
X108943502Y-103306426D01*
X109143461Y-103346200D01*
X109347339Y-103346200D01*
X109547298Y-103306426D01*
X109735656Y-103228405D01*
X109905174Y-103115137D01*
X109947111Y-103073200D01*
X112384170Y-103073200D01*
X112688970Y-103378000D01*
X112385511Y-103378000D01*
X112343574Y-103336063D01*
X112174056Y-103222795D01*
X111985698Y-103144774D01*
X111785739Y-103105000D01*
X111581861Y-103105000D01*
X111381902Y-103144774D01*
X111193544Y-103222795D01*
X111024026Y-103336063D01*
X110879863Y-103480226D01*
X110766595Y-103649744D01*
X110688574Y-103838102D01*
X110648800Y-104038061D01*
X110648800Y-104241939D01*
X110688574Y-104441898D01*
X110766595Y-104630256D01*
X110879863Y-104799774D01*
X111024026Y-104943937D01*
X111193544Y-105057205D01*
X111381902Y-105135226D01*
X111581861Y-105175000D01*
X111785739Y-105175000D01*
X111985698Y-105135226D01*
X112172800Y-105057725D01*
X112172800Y-105257939D01*
X112212574Y-105457898D01*
X112290595Y-105646256D01*
X112403863Y-105815774D01*
X112548026Y-105959937D01*
X112717544Y-106073205D01*
X112905902Y-106151226D01*
X113105861Y-106191000D01*
X113309739Y-106191000D01*
X113509698Y-106151226D01*
X113651047Y-106092677D01*
X116071520Y-108513151D01*
X116095378Y-108542222D01*
X116124448Y-108566079D01*
X116211407Y-108637445D01*
X116248954Y-108657514D01*
X116343785Y-108708202D01*
X116487422Y-108751774D01*
X116599374Y-108762800D01*
X116599377Y-108762800D01*
X116636800Y-108766486D01*
X116674223Y-108762800D01*
X130131704Y-108762800D01*
X131005132Y-109636228D01*
X131035795Y-109710256D01*
X131149063Y-109879774D01*
X131293226Y-110023937D01*
X131462744Y-110137205D01*
X131651102Y-110215226D01*
X131851061Y-110255000D01*
X132054939Y-110255000D01*
X132254898Y-110215226D01*
X132443256Y-110137205D01*
X132612774Y-110023937D01*
X132756937Y-109879774D01*
X132870205Y-109710256D01*
X132948226Y-109521898D01*
X132988000Y-109321939D01*
X132988000Y-109118061D01*
X132948226Y-108918102D01*
X132870205Y-108729744D01*
X132756937Y-108560226D01*
X132754686Y-108557975D01*
X132917574Y-108449137D01*
X133061737Y-108304974D01*
X133175005Y-108135456D01*
X133253026Y-107947098D01*
X133292800Y-107747139D01*
X133292800Y-107543261D01*
X133253026Y-107343302D01*
X133175005Y-107154944D01*
X133061737Y-106985426D01*
X132917574Y-106841263D01*
X132904310Y-106832400D01*
X133541177Y-106832400D01*
X133578600Y-106836086D01*
X133616023Y-106832400D01*
X133616026Y-106832400D01*
X133654801Y-106828581D01*
X133654800Y-111418969D01*
X132729570Y-112344200D01*
X130160431Y-112344200D01*
X129794000Y-111977770D01*
X129794000Y-111213223D01*
X129797686Y-111175800D01*
X129792744Y-111125626D01*
X129782974Y-111026422D01*
X129739402Y-110882785D01*
X129690403Y-110791114D01*
X129668645Y-110750407D01*
X129633491Y-110707573D01*
X129573422Y-110634378D01*
X129544347Y-110610517D01*
X128860684Y-109926854D01*
X128836822Y-109897778D01*
X128720792Y-109802555D01*
X128588415Y-109731798D01*
X128444778Y-109688226D01*
X128332826Y-109677200D01*
X128332823Y-109677200D01*
X128295400Y-109673514D01*
X128257977Y-109677200D01*
X125862138Y-109677200D01*
X125824715Y-109673514D01*
X125787292Y-109677200D01*
X125787289Y-109677200D01*
X125675337Y-109688226D01*
X125531700Y-109731798D01*
X125498182Y-109749714D01*
X125399322Y-109802555D01*
X125335401Y-109855014D01*
X125283293Y-109897778D01*
X125259435Y-109926849D01*
X124481049Y-110705236D01*
X124451979Y-110729093D01*
X124428122Y-110758163D01*
X124428121Y-110758164D01*
X124356755Y-110845123D01*
X124330847Y-110893595D01*
X124300006Y-110951292D01*
X124213656Y-110893595D01*
X124025298Y-110815574D01*
X123825339Y-110775800D01*
X123621461Y-110775800D01*
X123421502Y-110815574D01*
X123233144Y-110893595D01*
X123093328Y-110987017D01*
X123087774Y-110981463D01*
X122918256Y-110868195D01*
X122729898Y-110790174D01*
X122529939Y-110750400D01*
X122326061Y-110750400D01*
X122126102Y-110790174D01*
X121937744Y-110868195D01*
X121768226Y-110981463D01*
X121624063Y-111125626D01*
X121510795Y-111295144D01*
X121432774Y-111483502D01*
X121393000Y-111683461D01*
X121393000Y-111887339D01*
X121432774Y-112087298D01*
X121510795Y-112275656D01*
X121624063Y-112445174D01*
X121666001Y-112487112D01*
X121666000Y-113298569D01*
X121248770Y-113715800D01*
X115074222Y-113715800D01*
X115036799Y-113712114D01*
X114999376Y-113715800D01*
X114999374Y-113715800D01*
X114887422Y-113726826D01*
X114743785Y-113770398D01*
X114611408Y-113841155D01*
X114495378Y-113936378D01*
X114471521Y-113965448D01*
X113403736Y-115033234D01*
X113361309Y-115020364D01*
X113150492Y-114999600D01*
X113009508Y-114999600D01*
X112798691Y-115020364D01*
X112598200Y-115081182D01*
X112598200Y-112457823D01*
X112601886Y-112420400D01*
X112598200Y-112382974D01*
X112587174Y-112271022D01*
X112543602Y-112127385D01*
X112508598Y-112061898D01*
X112472845Y-111995007D01*
X112426174Y-111938139D01*
X112377622Y-111878978D01*
X112348547Y-111855117D01*
X112261600Y-111768170D01*
X112261600Y-111658061D01*
X112221826Y-111458102D01*
X112143805Y-111269744D01*
X112030537Y-111100226D01*
X111886374Y-110956063D01*
X111716856Y-110842795D01*
X111528498Y-110764774D01*
X111328539Y-110725000D01*
X111124661Y-110725000D01*
X110924702Y-110764774D01*
X110736344Y-110842795D01*
X110566826Y-110956063D01*
X110422663Y-111100226D01*
X110309395Y-111269744D01*
X110231374Y-111458102D01*
X110191600Y-111658061D01*
X110191600Y-111861939D01*
X110231374Y-112061898D01*
X110309395Y-112250256D01*
X110422663Y-112419774D01*
X110566826Y-112563937D01*
X110736344Y-112677205D01*
X110924702Y-112755226D01*
X111074200Y-112784963D01*
X111074201Y-115097077D01*
X110821309Y-115020364D01*
X110610492Y-114999600D01*
X110469508Y-114999600D01*
X110258691Y-115020364D01*
X109988192Y-115102418D01*
X109738899Y-115235668D01*
X109520392Y-115414992D01*
X109341068Y-115633499D01*
X109270000Y-115766458D01*
X109198932Y-115633499D01*
X109019608Y-115414992D01*
X108801101Y-115235668D01*
X108551808Y-115102418D01*
X108281309Y-115020364D01*
X108070492Y-114999600D01*
X107929508Y-114999600D01*
X107718691Y-115020364D01*
X107448192Y-115102418D01*
X107198899Y-115235668D01*
X106980392Y-115414992D01*
X106801068Y-115633499D01*
X106667818Y-115882792D01*
X106585764Y-116153291D01*
X106558057Y-116434600D01*
X106585764Y-116715909D01*
X106667818Y-116986408D01*
X106801068Y-117235701D01*
X106980392Y-117454208D01*
X107198899Y-117633532D01*
X107448192Y-117766782D01*
X107718691Y-117848836D01*
X107929508Y-117869600D01*
X108070492Y-117869600D01*
X108211200Y-117855741D01*
X108211200Y-117988263D01*
X108252896Y-118197883D01*
X108334685Y-118395340D01*
X108453425Y-118573047D01*
X108604553Y-118724175D01*
X108782260Y-118842915D01*
X108979717Y-118924704D01*
X109189337Y-118966400D01*
X109303569Y-118966400D01*
X109410340Y-119073171D01*
X109434198Y-119102242D01*
X109463268Y-119126099D01*
X109550227Y-119197465D01*
X109583140Y-119215057D01*
X109682605Y-119268222D01*
X109826242Y-119311794D01*
X109938194Y-119322820D01*
X109938197Y-119322820D01*
X109975620Y-119326506D01*
X110013043Y-119322820D01*
X112910284Y-119322820D01*
X112884800Y-119450937D01*
X112884800Y-119664663D01*
X112899545Y-119738790D01*
X110537232Y-119738790D01*
X110499809Y-119735104D01*
X110462386Y-119738790D01*
X110462384Y-119738790D01*
X110350432Y-119749816D01*
X110206795Y-119793388D01*
X110074418Y-119864145D01*
X109958388Y-119959368D01*
X109934531Y-119988438D01*
X107487649Y-122435321D01*
X107458579Y-122459178D01*
X107434722Y-122488248D01*
X107434721Y-122488249D01*
X107363355Y-122575208D01*
X107341269Y-122616528D01*
X107200000Y-122616528D01*
X107075518Y-122628788D01*
X106955820Y-122665098D01*
X106845506Y-122724063D01*
X106748815Y-122803415D01*
X106669463Y-122900106D01*
X106610498Y-123010420D01*
X106574188Y-123130118D01*
X106561928Y-123254600D01*
X106561928Y-124854600D01*
X106574188Y-124979082D01*
X106610498Y-125098780D01*
X106669463Y-125209094D01*
X106748815Y-125305785D01*
X106845506Y-125385137D01*
X106955820Y-125444102D01*
X107075518Y-125480412D01*
X107200000Y-125492672D01*
X108800000Y-125492672D01*
X108924482Y-125480412D01*
X109044180Y-125444102D01*
X109154494Y-125385137D01*
X109251185Y-125305785D01*
X109330537Y-125209094D01*
X109389502Y-125098780D01*
X109425812Y-124979082D01*
X109427581Y-124961118D01*
X109520392Y-125074208D01*
X109738899Y-125253532D01*
X109988192Y-125386782D01*
X110258691Y-125468836D01*
X110469508Y-125489600D01*
X110610492Y-125489600D01*
X110675000Y-125483246D01*
X110675000Y-125633663D01*
X110716043Y-125840000D01*
X103660000Y-125840000D01*
X103660000Y-86530000D01*
X104511928Y-86530000D01*
X104524188Y-86654482D01*
X104560498Y-86774180D01*
X104619463Y-86884494D01*
X104698815Y-86981185D01*
X104795506Y-87060537D01*
X104905820Y-87119502D01*
X105025518Y-87155812D01*
X105150000Y-87168072D01*
X105714250Y-87165000D01*
X105873000Y-87006250D01*
X105873000Y-85807000D01*
X104673750Y-85807000D01*
X104515000Y-85965750D01*
X104511928Y-86530000D01*
X103660000Y-86530000D01*
X103660000Y-84830000D01*
X104511928Y-84830000D01*
X104515000Y-85394250D01*
X104673750Y-85553000D01*
X105873000Y-85553000D01*
X105873000Y-84353750D01*
X105714250Y-84195000D01*
X105150000Y-84191928D01*
X105025518Y-84204188D01*
X104905820Y-84240498D01*
X104795506Y-84299463D01*
X104698815Y-84378815D01*
X104619463Y-84475506D01*
X104560498Y-84585820D01*
X104524188Y-84705518D01*
X104511928Y-84830000D01*
X103660000Y-84830000D01*
X103660000Y-73850000D01*
X104511928Y-73850000D01*
X104524188Y-73974482D01*
X104560498Y-74094180D01*
X104619463Y-74204494D01*
X104698815Y-74301185D01*
X104795506Y-74380537D01*
X104905820Y-74439502D01*
X105025518Y-74475812D01*
X105150000Y-74488072D01*
X105714250Y-74485000D01*
X105873000Y-74326250D01*
X105873000Y-73127000D01*
X104673750Y-73127000D01*
X104515000Y-73285750D01*
X104511928Y-73850000D01*
X103660000Y-73850000D01*
X103660000Y-72150000D01*
X104511928Y-72150000D01*
X104515000Y-72714250D01*
X104673750Y-72873000D01*
X105873000Y-72873000D01*
X105873000Y-71673750D01*
X106127000Y-71673750D01*
X106127000Y-72873000D01*
X106147000Y-72873000D01*
X106147000Y-73127000D01*
X106127000Y-73127000D01*
X106127000Y-74326250D01*
X106285750Y-74485000D01*
X106850000Y-74488072D01*
X106974482Y-74475812D01*
X107094180Y-74439502D01*
X107204494Y-74380537D01*
X107301185Y-74301185D01*
X107380537Y-74204494D01*
X107439502Y-74094180D01*
X107460393Y-74025313D01*
X107484866Y-74055134D01*
X107710986Y-74240706D01*
X107968966Y-74378599D01*
X108248889Y-74463513D01*
X108467050Y-74485000D01*
X108612950Y-74485000D01*
X108831111Y-74463513D01*
X109111034Y-74378599D01*
X109369014Y-74240706D01*
X109595134Y-74055134D01*
X109780706Y-73829014D01*
X109810000Y-73774209D01*
X109839294Y-73829014D01*
X110024866Y-74055134D01*
X110250986Y-74240706D01*
X110508966Y-74378599D01*
X110788889Y-74463513D01*
X111007050Y-74485000D01*
X111152950Y-74485000D01*
X111371111Y-74463513D01*
X111651034Y-74378599D01*
X111909014Y-74240706D01*
X112135134Y-74055134D01*
X112320706Y-73829014D01*
X112350000Y-73774209D01*
X112379294Y-73829014D01*
X112564866Y-74055134D01*
X112790986Y-74240706D01*
X113048966Y-74378599D01*
X113328889Y-74463513D01*
X113547050Y-74485000D01*
X113692950Y-74485000D01*
X113911111Y-74463513D01*
X114191034Y-74378599D01*
X114449014Y-74240706D01*
X114675134Y-74055134D01*
X114860706Y-73829014D01*
X114890000Y-73774209D01*
X114919294Y-73829014D01*
X115104866Y-74055134D01*
X115330986Y-74240706D01*
X115588966Y-74378599D01*
X115868889Y-74463513D01*
X116087050Y-74485000D01*
X116232950Y-74485000D01*
X116451111Y-74463513D01*
X116731034Y-74378599D01*
X116989014Y-74240706D01*
X117215134Y-74055134D01*
X117400706Y-73829014D01*
X117430000Y-73774209D01*
X117459294Y-73829014D01*
X117644866Y-74055134D01*
X117870986Y-74240706D01*
X118128966Y-74378599D01*
X118408889Y-74463513D01*
X118627050Y-74485000D01*
X118772950Y-74485000D01*
X118991111Y-74463513D01*
X119271034Y-74378599D01*
X119529014Y-74240706D01*
X119755134Y-74055134D01*
X119940706Y-73829014D01*
X119970000Y-73774209D01*
X119999294Y-73829014D01*
X120184866Y-74055134D01*
X120410986Y-74240706D01*
X120668966Y-74378599D01*
X120948889Y-74463513D01*
X121167050Y-74485000D01*
X121312950Y-74485000D01*
X121531111Y-74463513D01*
X121811034Y-74378599D01*
X122069014Y-74240706D01*
X122295134Y-74055134D01*
X122480706Y-73829014D01*
X122510000Y-73774209D01*
X122539294Y-73829014D01*
X122724866Y-74055134D01*
X122950986Y-74240706D01*
X123208966Y-74378599D01*
X123488889Y-74463513D01*
X123707050Y-74485000D01*
X123852950Y-74485000D01*
X124071111Y-74463513D01*
X124351034Y-74378599D01*
X124609014Y-74240706D01*
X124835134Y-74055134D01*
X125020706Y-73829014D01*
X125050000Y-73774209D01*
X125079294Y-73829014D01*
X125264866Y-74055134D01*
X125490986Y-74240706D01*
X125748966Y-74378599D01*
X126028889Y-74463513D01*
X126247050Y-74485000D01*
X126392950Y-74485000D01*
X126611111Y-74463513D01*
X126891034Y-74378599D01*
X127149014Y-74240706D01*
X127375134Y-74055134D01*
X127560706Y-73829014D01*
X127698599Y-73571034D01*
X127783513Y-73291111D01*
X127812185Y-73000000D01*
X127783513Y-72708889D01*
X127698599Y-72428966D01*
X127560706Y-72170986D01*
X127375134Y-71944866D01*
X127149014Y-71759294D01*
X126891034Y-71621401D01*
X126611111Y-71536487D01*
X126392950Y-71515000D01*
X126247050Y-71515000D01*
X126028889Y-71536487D01*
X125748966Y-71621401D01*
X125490986Y-71759294D01*
X125264866Y-71944866D01*
X125079294Y-72170986D01*
X125050000Y-72225791D01*
X125020706Y-72170986D01*
X124835134Y-71944866D01*
X124609014Y-71759294D01*
X124351034Y-71621401D01*
X124071111Y-71536487D01*
X123852950Y-71515000D01*
X123707050Y-71515000D01*
X123488889Y-71536487D01*
X123208966Y-71621401D01*
X122950986Y-71759294D01*
X122724866Y-71944866D01*
X122539294Y-72170986D01*
X122510000Y-72225791D01*
X122480706Y-72170986D01*
X122295134Y-71944866D01*
X122069014Y-71759294D01*
X121811034Y-71621401D01*
X121531111Y-71536487D01*
X121312950Y-71515000D01*
X121167050Y-71515000D01*
X120948889Y-71536487D01*
X120668966Y-71621401D01*
X120410986Y-71759294D01*
X120184866Y-71944866D01*
X119999294Y-72170986D01*
X119970000Y-72225791D01*
X119940706Y-72170986D01*
X119755134Y-71944866D01*
X119529014Y-71759294D01*
X119271034Y-71621401D01*
X118991111Y-71536487D01*
X118772950Y-71515000D01*
X118627050Y-71515000D01*
X118408889Y-71536487D01*
X118128966Y-71621401D01*
X117870986Y-71759294D01*
X117644866Y-71944866D01*
X117459294Y-72170986D01*
X117430000Y-72225791D01*
X117400706Y-72170986D01*
X117215134Y-71944866D01*
X116989014Y-71759294D01*
X116731034Y-71621401D01*
X116451111Y-71536487D01*
X116232950Y-71515000D01*
X116087050Y-71515000D01*
X115868889Y-71536487D01*
X115588966Y-71621401D01*
X115330986Y-71759294D01*
X115104866Y-71944866D01*
X114919294Y-72170986D01*
X114890000Y-72225791D01*
X114860706Y-72170986D01*
X114675134Y-71944866D01*
X114449014Y-71759294D01*
X114191034Y-71621401D01*
X113911111Y-71536487D01*
X113692950Y-71515000D01*
X113547050Y-71515000D01*
X113328889Y-71536487D01*
X113048966Y-71621401D01*
X112790986Y-71759294D01*
X112564866Y-71944866D01*
X112379294Y-72170986D01*
X112350000Y-72225791D01*
X112320706Y-72170986D01*
X112135134Y-71944866D01*
X111909014Y-71759294D01*
X111651034Y-71621401D01*
X111371111Y-71536487D01*
X111152950Y-71515000D01*
X111007050Y-71515000D01*
X110788889Y-71536487D01*
X110508966Y-71621401D01*
X110250986Y-71759294D01*
X110024866Y-71944866D01*
X109839294Y-72170986D01*
X109810000Y-72225791D01*
X109780706Y-72170986D01*
X109595134Y-71944866D01*
X109369014Y-71759294D01*
X109111034Y-71621401D01*
X108831111Y-71536487D01*
X108612950Y-71515000D01*
X108467050Y-71515000D01*
X108248889Y-71536487D01*
X107968966Y-71621401D01*
X107710986Y-71759294D01*
X107484866Y-71944866D01*
X107460393Y-71974687D01*
X107439502Y-71905820D01*
X107380537Y-71795506D01*
X107301185Y-71698815D01*
X107204494Y-71619463D01*
X107094180Y-71560498D01*
X106974482Y-71524188D01*
X106850000Y-71511928D01*
X106285750Y-71515000D01*
X106127000Y-71673750D01*
X105873000Y-71673750D01*
X105714250Y-71515000D01*
X105150000Y-71511928D01*
X105025518Y-71524188D01*
X104905820Y-71560498D01*
X104795506Y-71619463D01*
X104698815Y-71698815D01*
X104619463Y-71795506D01*
X104560498Y-71905820D01*
X104524188Y-72025518D01*
X104511928Y-72150000D01*
X103660000Y-72150000D01*
X103660000Y-71410000D01*
X129340000Y-71410000D01*
X129340001Y-83217571D01*
G36*
X175590001Y-125840000D02*
G01*
X151652230Y-125840000D01*
X151996175Y-125496055D01*
X152068889Y-125518113D01*
X152287050Y-125539600D01*
X152432950Y-125539600D01*
X152651111Y-125518113D01*
X152931034Y-125433199D01*
X153189014Y-125295306D01*
X153415134Y-125109734D01*
X153600706Y-124883614D01*
X153630000Y-124828809D01*
X153659294Y-124883614D01*
X153844866Y-125109734D01*
X154070986Y-125295306D01*
X154328966Y-125433199D01*
X154608889Y-125518113D01*
X154827050Y-125539600D01*
X154972950Y-125539600D01*
X155191111Y-125518113D01*
X155471034Y-125433199D01*
X155729014Y-125295306D01*
X155955134Y-125109734D01*
X156140706Y-124883614D01*
X156170000Y-124828809D01*
X156199294Y-124883614D01*
X156384866Y-125109734D01*
X156610986Y-125295306D01*
X156868966Y-125433199D01*
X157148889Y-125518113D01*
X157367050Y-125539600D01*
X157512950Y-125539600D01*
X157731111Y-125518113D01*
X158011034Y-125433199D01*
X158269014Y-125295306D01*
X158495134Y-125109734D01*
X158680706Y-124883614D01*
X158710000Y-124828809D01*
X158739294Y-124883614D01*
X158924866Y-125109734D01*
X159150986Y-125295306D01*
X159408966Y-125433199D01*
X159688889Y-125518113D01*
X159907050Y-125539600D01*
X160052950Y-125539600D01*
X160271111Y-125518113D01*
X160551034Y-125433199D01*
X160809014Y-125295306D01*
X161035134Y-125109734D01*
X161220706Y-124883614D01*
X161250000Y-124828809D01*
X161279294Y-124883614D01*
X161464866Y-125109734D01*
X161690986Y-125295306D01*
X161948966Y-125433199D01*
X162228889Y-125518113D01*
X162447050Y-125539600D01*
X162592950Y-125539600D01*
X162811111Y-125518113D01*
X163091034Y-125433199D01*
X163349014Y-125295306D01*
X163575134Y-125109734D01*
X163760706Y-124883614D01*
X163795201Y-124819077D01*
X163864822Y-124935955D01*
X164059731Y-125152188D01*
X164293080Y-125326241D01*
X164555901Y-125451425D01*
X164703110Y-125496076D01*
X164933000Y-125374755D01*
X164933000Y-124181600D01*
X165187000Y-124181600D01*
X165187000Y-125374755D01*
X165416890Y-125496076D01*
X165564099Y-125451425D01*
X165826920Y-125326241D01*
X166060269Y-125152188D01*
X166255178Y-124935955D01*
X166330000Y-124810345D01*
X166404822Y-124935955D01*
X166599731Y-125152188D01*
X166833080Y-125326241D01*
X167095901Y-125451425D01*
X167243110Y-125496076D01*
X167473000Y-125374755D01*
X167473000Y-124181600D01*
X167727000Y-124181600D01*
X167727000Y-125374755D01*
X167956890Y-125496076D01*
X168104099Y-125451425D01*
X168366920Y-125326241D01*
X168600269Y-125152188D01*
X168795178Y-124935955D01*
X168870000Y-124810345D01*
X168944822Y-124935955D01*
X169139731Y-125152188D01*
X169373080Y-125326241D01*
X169635901Y-125451425D01*
X169783110Y-125496076D01*
X170013000Y-125374755D01*
X170013000Y-124181600D01*
X170267000Y-124181600D01*
X170267000Y-125374755D01*
X170496890Y-125496076D01*
X170644099Y-125451425D01*
X170906920Y-125326241D01*
X171140269Y-125152188D01*
X171335178Y-124935955D01*
X171410000Y-124810345D01*
X171484822Y-124935955D01*
X171679731Y-125152188D01*
X171913080Y-125326241D01*
X172175901Y-125451425D01*
X172323110Y-125496076D01*
X172553000Y-125374755D01*
X172553000Y-124181600D01*
X172807000Y-124181600D01*
X172807000Y-125374755D01*
X173036890Y-125496076D01*
X173184099Y-125451425D01*
X173446920Y-125326241D01*
X173680269Y-125152188D01*
X173875178Y-124935955D01*
X174024157Y-124685852D01*
X174121481Y-124411491D01*
X174000814Y-124181600D01*
X172807000Y-124181600D01*
X172553000Y-124181600D01*
X170267000Y-124181600D01*
X170013000Y-124181600D01*
X167727000Y-124181600D01*
X167473000Y-124181600D01*
X165187000Y-124181600D01*
X164933000Y-124181600D01*
X164913000Y-124181600D01*
X164913000Y-123927600D01*
X164933000Y-123927600D01*
X164933000Y-123907600D01*
X165187000Y-123907600D01*
X165187000Y-123927600D01*
X167473000Y-123927600D01*
X167473000Y-123907600D01*
X167727000Y-123907600D01*
X167727000Y-123927600D01*
X170013000Y-123927600D01*
X170013000Y-123907600D01*
X170267000Y-123907600D01*
X170267000Y-123927600D01*
X172553000Y-123927600D01*
X172553000Y-123907600D01*
X172807000Y-123907600D01*
X172807000Y-123927600D01*
X174000814Y-123927600D01*
X174121481Y-123697709D01*
X174024157Y-123423348D01*
X174016322Y-123410194D01*
X174077616Y-123391601D01*
X174209993Y-123320844D01*
X174326023Y-123225621D01*
X174349885Y-123196545D01*
X175111947Y-122434483D01*
X175141022Y-122410622D01*
X175217992Y-122316834D01*
X175236245Y-122294593D01*
X175303028Y-122169649D01*
X175307002Y-122162215D01*
X175350574Y-122018578D01*
X175361600Y-121906626D01*
X175361600Y-121906623D01*
X175365286Y-121869200D01*
X175361600Y-121831777D01*
X175361600Y-118832030D01*
X175590000Y-118603630D01*
X175590001Y-125840000D01*
X175590001Y-125840000D01*
G37*
X175590001Y-125840000D02*
X151652230Y-125840000D01*
X151996175Y-125496055D01*
X152068889Y-125518113D01*
X152287050Y-125539600D01*
X152432950Y-125539600D01*
X152651111Y-125518113D01*
X152931034Y-125433199D01*
X153189014Y-125295306D01*
X153415134Y-125109734D01*
X153600706Y-124883614D01*
X153630000Y-124828809D01*
X153659294Y-124883614D01*
X153844866Y-125109734D01*
X154070986Y-125295306D01*
X154328966Y-125433199D01*
X154608889Y-125518113D01*
X154827050Y-125539600D01*
X154972950Y-125539600D01*
X155191111Y-125518113D01*
X155471034Y-125433199D01*
X155729014Y-125295306D01*
X155955134Y-125109734D01*
X156140706Y-124883614D01*
X156170000Y-124828809D01*
X156199294Y-124883614D01*
X156384866Y-125109734D01*
X156610986Y-125295306D01*
X156868966Y-125433199D01*
X157148889Y-125518113D01*
X157367050Y-125539600D01*
X157512950Y-125539600D01*
X157731111Y-125518113D01*
X158011034Y-125433199D01*
X158269014Y-125295306D01*
X158495134Y-125109734D01*
X158680706Y-124883614D01*
X158710000Y-124828809D01*
X158739294Y-124883614D01*
X158924866Y-125109734D01*
X159150986Y-125295306D01*
X159408966Y-125433199D01*
X159688889Y-125518113D01*
X159907050Y-125539600D01*
X160052950Y-125539600D01*
X160271111Y-125518113D01*
X160551034Y-125433199D01*
X160809014Y-125295306D01*
X161035134Y-125109734D01*
X161220706Y-124883614D01*
X161250000Y-124828809D01*
X161279294Y-124883614D01*
X161464866Y-125109734D01*
X161690986Y-125295306D01*
X161948966Y-125433199D01*
X162228889Y-125518113D01*
X162447050Y-125539600D01*
X162592950Y-125539600D01*
X162811111Y-125518113D01*
X163091034Y-125433199D01*
X163349014Y-125295306D01*
X163575134Y-125109734D01*
X163760706Y-124883614D01*
X163795201Y-124819077D01*
X163864822Y-124935955D01*
X164059731Y-125152188D01*
X164293080Y-125326241D01*
X164555901Y-125451425D01*
X164703110Y-125496076D01*
X164933000Y-125374755D01*
X164933000Y-124181600D01*
X165187000Y-124181600D01*
X165187000Y-125374755D01*
X165416890Y-125496076D01*
X165564099Y-125451425D01*
X165826920Y-125326241D01*
X166060269Y-125152188D01*
X166255178Y-124935955D01*
X166330000Y-124810345D01*
X166404822Y-124935955D01*
X166599731Y-125152188D01*
X166833080Y-125326241D01*
X167095901Y-125451425D01*
X167243110Y-125496076D01*
X167473000Y-125374755D01*
X167473000Y-124181600D01*
X167727000Y-124181600D01*
X167727000Y-125374755D01*
X167956890Y-125496076D01*
X168104099Y-125451425D01*
X168366920Y-125326241D01*
X168600269Y-125152188D01*
X168795178Y-124935955D01*
X168870000Y-124810345D01*
X168944822Y-124935955D01*
X169139731Y-125152188D01*
X169373080Y-125326241D01*
X169635901Y-125451425D01*
X169783110Y-125496076D01*
X170013000Y-125374755D01*
X170013000Y-124181600D01*
X170267000Y-124181600D01*
X170267000Y-125374755D01*
X170496890Y-125496076D01*
X170644099Y-125451425D01*
X170906920Y-125326241D01*
X171140269Y-125152188D01*
X171335178Y-124935955D01*
X171410000Y-124810345D01*
X171484822Y-124935955D01*
X171679731Y-125152188D01*
X171913080Y-125326241D01*
X172175901Y-125451425D01*
X172323110Y-125496076D01*
X172553000Y-125374755D01*
X172553000Y-124181600D01*
X172807000Y-124181600D01*
X172807000Y-125374755D01*
X173036890Y-125496076D01*
X173184099Y-125451425D01*
X173446920Y-125326241D01*
X173680269Y-125152188D01*
X173875178Y-124935955D01*
X174024157Y-124685852D01*
X174121481Y-124411491D01*
X174000814Y-124181600D01*
X172807000Y-124181600D01*
X172553000Y-124181600D01*
X170267000Y-124181600D01*
X170013000Y-124181600D01*
X167727000Y-124181600D01*
X167473000Y-124181600D01*
X165187000Y-124181600D01*
X164933000Y-124181600D01*
X164913000Y-124181600D01*
X164913000Y-123927600D01*
X164933000Y-123927600D01*
X164933000Y-123907600D01*
X165187000Y-123907600D01*
X165187000Y-123927600D01*
X167473000Y-123927600D01*
X167473000Y-123907600D01*
X167727000Y-123907600D01*
X167727000Y-123927600D01*
X170013000Y-123927600D01*
X170013000Y-123907600D01*
X170267000Y-123907600D01*
X170267000Y-123927600D01*
X172553000Y-123927600D01*
X172553000Y-123907600D01*
X172807000Y-123907600D01*
X172807000Y-123927600D01*
X174000814Y-123927600D01*
X174121481Y-123697709D01*
X174024157Y-123423348D01*
X174016322Y-123410194D01*
X174077616Y-123391601D01*
X174209993Y-123320844D01*
X174326023Y-123225621D01*
X174349885Y-123196545D01*
X175111947Y-122434483D01*
X175141022Y-122410622D01*
X175217992Y-122316834D01*
X175236245Y-122294593D01*
X175303028Y-122169649D01*
X175307002Y-122162215D01*
X175350574Y-122018578D01*
X175361600Y-121906626D01*
X175361600Y-121906623D01*
X175365286Y-121869200D01*
X175361600Y-121831777D01*
X175361600Y-118832030D01*
X175590000Y-118603630D01*
X175590001Y-125840000D01*
G36*
X147080570Y-124612400D02*
G01*
X137257152Y-124612400D01*
X137331909Y-124403640D01*
X137210624Y-124181600D01*
X136067000Y-124181600D01*
X136067000Y-124201600D01*
X135813000Y-124201600D01*
X135813000Y-124181600D01*
X135793000Y-124181600D01*
X135793000Y-123927600D01*
X135813000Y-123927600D01*
X135813000Y-123907600D01*
X136067000Y-123907600D01*
X136067000Y-123927600D01*
X137210624Y-123927600D01*
X137331909Y-123705560D01*
X137274628Y-123545600D01*
X148147369Y-123545600D01*
X147080570Y-124612400D01*
X147080570Y-124612400D01*
G37*
X147080570Y-124612400D02*
X137257152Y-124612400D01*
X137331909Y-124403640D01*
X137210624Y-124181600D01*
X136067000Y-124181600D01*
X136067000Y-124201600D01*
X135813000Y-124201600D01*
X135813000Y-124181600D01*
X135793000Y-124181600D01*
X135793000Y-123927600D01*
X135813000Y-123927600D01*
X135813000Y-123907600D01*
X136067000Y-123907600D01*
X136067000Y-123927600D01*
X137210624Y-123927600D01*
X137331909Y-123705560D01*
X137274628Y-123545600D01*
X148147369Y-123545600D01*
X147080570Y-124612400D01*
G36*
X173837600Y-121553570D02*
G01*
X173468971Y-121922199D01*
X164198629Y-121922199D01*
X162718884Y-120442454D01*
X162695022Y-120413378D01*
X162578992Y-120318155D01*
X162446615Y-120247398D01*
X162302978Y-120203826D01*
X162191026Y-120192800D01*
X162191023Y-120192800D01*
X162153600Y-120189114D01*
X162116177Y-120192800D01*
X153503565Y-120192800D01*
X154087765Y-119608600D01*
X173419177Y-119608600D01*
X173456600Y-119612286D01*
X173494023Y-119608600D01*
X173494026Y-119608600D01*
X173605978Y-119597574D01*
X173749615Y-119554002D01*
X173837601Y-119506973D01*
X173837600Y-121553570D01*
X173837600Y-121553570D01*
G37*
X173837600Y-121553570D02*
X173468971Y-121922199D01*
X164198629Y-121922199D01*
X162718884Y-120442454D01*
X162695022Y-120413378D01*
X162578992Y-120318155D01*
X162446615Y-120247398D01*
X162302978Y-120203826D01*
X162191026Y-120192800D01*
X162191023Y-120192800D01*
X162153600Y-120189114D01*
X162116177Y-120192800D01*
X153503565Y-120192800D01*
X154087765Y-119608600D01*
X173419177Y-119608600D01*
X173456600Y-119612286D01*
X173494023Y-119608600D01*
X173494026Y-119608600D01*
X173605978Y-119597574D01*
X173749615Y-119554002D01*
X173837601Y-119506973D01*
X173837600Y-121553570D01*
G36*
X136067000Y-116307600D02*
G01*
X136087000Y-116307600D01*
X136087000Y-116561600D01*
X136067000Y-116561600D01*
X136067000Y-116581600D01*
X135813000Y-116581600D01*
X135813000Y-116561600D01*
X135793000Y-116561600D01*
X135793000Y-116307600D01*
X135813000Y-116307600D01*
X135813000Y-116287600D01*
X136067000Y-116287600D01*
X136067000Y-116307600D01*
X136067000Y-116307600D01*
G37*
X136067000Y-116307600D02*
X136087000Y-116307600D01*
X136087000Y-116561600D01*
X136067000Y-116561600D01*
X136067000Y-116581600D01*
X135813000Y-116581600D01*
X135813000Y-116561600D01*
X135793000Y-116561600D01*
X135793000Y-116307600D01*
X135813000Y-116307600D01*
X135813000Y-116287600D01*
X136067000Y-116287600D01*
X136067000Y-116307600D01*
G36*
X170267000Y-116307600D02*
G01*
X172553000Y-116307600D01*
X172553000Y-116287600D01*
X172807000Y-116287600D01*
X172807000Y-116307600D01*
X172827000Y-116307600D01*
X172827000Y-116561600D01*
X172807000Y-116561600D01*
X172807000Y-116581600D01*
X172553000Y-116581600D01*
X172553000Y-116561600D01*
X170267000Y-116561600D01*
X170267000Y-116581600D01*
X170013000Y-116581600D01*
X170013000Y-116561600D01*
X169993000Y-116561600D01*
X169993000Y-116307600D01*
X170013000Y-116307600D01*
X170013000Y-116287600D01*
X170267000Y-116287600D01*
X170267000Y-116307600D01*
X170267000Y-116307600D01*
G37*
X170267000Y-116307600D02*
X172553000Y-116307600D01*
X172553000Y-116287600D01*
X172807000Y-116287600D01*
X172807000Y-116307600D01*
X172827000Y-116307600D01*
X172827000Y-116561600D01*
X172807000Y-116561600D01*
X172807000Y-116581600D01*
X172553000Y-116581600D01*
X172553000Y-116561600D01*
X170267000Y-116561600D01*
X170267000Y-116581600D01*
X170013000Y-116581600D01*
X170013000Y-116561600D01*
X169993000Y-116561600D01*
X169993000Y-116307600D01*
X170013000Y-116307600D01*
X170013000Y-116287600D01*
X170267000Y-116287600D01*
X170267000Y-116307600D01*
G36*
X148590000Y-103032418D02*
G01*
X148590001Y-103032428D01*
X148590000Y-107648390D01*
X148286966Y-107648390D01*
X148249543Y-107644704D01*
X148212120Y-107648390D01*
X148212117Y-107648390D01*
X148100165Y-107659416D01*
X147956528Y-107702988D01*
X147929481Y-107717445D01*
X147824150Y-107773745D01*
X147760715Y-107825805D01*
X147708121Y-107868968D01*
X147684263Y-107898039D01*
X146912443Y-108669859D01*
X146883368Y-108693721D01*
X146835727Y-108751773D01*
X146788145Y-108809751D01*
X146767737Y-108847932D01*
X146717388Y-108942129D01*
X146673816Y-109085766D01*
X146663433Y-109191187D01*
X146659104Y-109235143D01*
X146662790Y-109272566D01*
X146662791Y-111441178D01*
X145254960Y-112849010D01*
X134380021Y-112849010D01*
X134929153Y-112299878D01*
X134958222Y-112276022D01*
X135053445Y-112159992D01*
X135122190Y-112031379D01*
X135124201Y-112027617D01*
X135124500Y-112026632D01*
X135167774Y-111883978D01*
X135178800Y-111772026D01*
X135178800Y-111772024D01*
X135182486Y-111734601D01*
X135178800Y-111697178D01*
X135178800Y-111431090D01*
X136378924Y-111431090D01*
X136423575Y-111578299D01*
X136548759Y-111841120D01*
X136722812Y-112074469D01*
X136939045Y-112269378D01*
X137189148Y-112418357D01*
X137463509Y-112515681D01*
X137693400Y-112395014D01*
X137693400Y-111201200D01*
X136500245Y-111201200D01*
X136378924Y-111431090D01*
X135178800Y-111431090D01*
X135178800Y-108891090D01*
X136378924Y-108891090D01*
X136423575Y-109038299D01*
X136548759Y-109301120D01*
X136722812Y-109534469D01*
X136939045Y-109729378D01*
X137064655Y-109804200D01*
X136939045Y-109879022D01*
X136722812Y-110073931D01*
X136548759Y-110307280D01*
X136423575Y-110570101D01*
X136378924Y-110717310D01*
X136500245Y-110947200D01*
X137693400Y-110947200D01*
X137693400Y-108661200D01*
X136500245Y-108661200D01*
X136378924Y-108891090D01*
X135178800Y-108891090D01*
X135178800Y-108177310D01*
X136378924Y-108177310D01*
X136500245Y-108407200D01*
X137693400Y-108407200D01*
X137693400Y-107213386D01*
X137947400Y-107213386D01*
X137947400Y-108407200D01*
X137967400Y-108407200D01*
X137967400Y-108661200D01*
X137947400Y-108661200D01*
X137947400Y-110947200D01*
X137967400Y-110947200D01*
X137967400Y-111201200D01*
X137947400Y-111201200D01*
X137947400Y-112395014D01*
X138177291Y-112515681D01*
X138451652Y-112418357D01*
X138701755Y-112269378D01*
X138897902Y-112092574D01*
X138920898Y-112168380D01*
X138979863Y-112278694D01*
X139059215Y-112375385D01*
X139155906Y-112454737D01*
X139266220Y-112513702D01*
X139385918Y-112550012D01*
X139510400Y-112562272D01*
X141210400Y-112562272D01*
X141334882Y-112550012D01*
X141454580Y-112513702D01*
X141564894Y-112454737D01*
X141661585Y-112375385D01*
X141740937Y-112278694D01*
X141799902Y-112168380D01*
X141836212Y-112048682D01*
X141848472Y-111924200D01*
X141848472Y-110224200D01*
X141836212Y-110099718D01*
X141799902Y-109980020D01*
X141740937Y-109869706D01*
X141661585Y-109773015D01*
X141564894Y-109693663D01*
X141454580Y-109634698D01*
X141385713Y-109613807D01*
X141415534Y-109589334D01*
X141601106Y-109363214D01*
X141738999Y-109105234D01*
X141823913Y-108825311D01*
X141852585Y-108534200D01*
X141823913Y-108243089D01*
X141738999Y-107963166D01*
X141601106Y-107705186D01*
X141415534Y-107479066D01*
X141189414Y-107293494D01*
X140931434Y-107155601D01*
X140651511Y-107070687D01*
X140433350Y-107049200D01*
X140287450Y-107049200D01*
X140069289Y-107070687D01*
X139789366Y-107155601D01*
X139531386Y-107293494D01*
X139305266Y-107479066D01*
X139119694Y-107705186D01*
X139088816Y-107762956D01*
X138917988Y-107533931D01*
X138701755Y-107339022D01*
X138451652Y-107190043D01*
X138177291Y-107092719D01*
X137947400Y-107213386D01*
X137693400Y-107213386D01*
X137463509Y-107092719D01*
X137189148Y-107190043D01*
X136939045Y-107339022D01*
X136722812Y-107533931D01*
X136548759Y-107767280D01*
X136423575Y-108030101D01*
X136378924Y-108177310D01*
X135178800Y-108177310D01*
X135178800Y-106335230D01*
X137297831Y-104216200D01*
X140627777Y-104216200D01*
X140665200Y-104219886D01*
X140702623Y-104216200D01*
X140702626Y-104216200D01*
X140814578Y-104205174D01*
X140958215Y-104161602D01*
X141090592Y-104090845D01*
X141206622Y-103995622D01*
X141230484Y-103966546D01*
X141837947Y-103359083D01*
X141867022Y-103335222D01*
X141946637Y-103238211D01*
X141962245Y-103219193D01*
X142004287Y-103140537D01*
X142033002Y-103086815D01*
X142076574Y-102943178D01*
X142087600Y-102831226D01*
X142087600Y-102831223D01*
X142091286Y-102793800D01*
X142087600Y-102756377D01*
X142087600Y-101840623D01*
X142091286Y-101803200D01*
X142087600Y-101765774D01*
X142076574Y-101653822D01*
X142033002Y-101510185D01*
X141996125Y-101441193D01*
X141962245Y-101377807D01*
X141890879Y-101290848D01*
X141867022Y-101261778D01*
X141837952Y-101237921D01*
X140062084Y-99462054D01*
X140038222Y-99432978D01*
X139922192Y-99337755D01*
X139789815Y-99266998D01*
X139646178Y-99223426D01*
X139534226Y-99212400D01*
X139534223Y-99212400D01*
X139496800Y-99208714D01*
X139459377Y-99212400D01*
X135995024Y-99212400D01*
X135918205Y-99026944D01*
X135804937Y-98857426D01*
X135660774Y-98713263D01*
X135491256Y-98599995D01*
X135302898Y-98521974D01*
X135102939Y-98482200D01*
X134899061Y-98482200D01*
X134699102Y-98521974D01*
X134510744Y-98599995D01*
X134341226Y-98713263D01*
X134197063Y-98857426D01*
X134083795Y-99026944D01*
X134005774Y-99215302D01*
X133966000Y-99415261D01*
X133966000Y-99619139D01*
X134005774Y-99819098D01*
X134083795Y-100007456D01*
X134197063Y-100176974D01*
X134341226Y-100321137D01*
X134510744Y-100434405D01*
X134586324Y-100465711D01*
X134114029Y-100938007D01*
X134084959Y-100961864D01*
X134061102Y-100990934D01*
X134061101Y-100990935D01*
X133989735Y-101077894D01*
X133918979Y-101210271D01*
X133875407Y-101353908D01*
X133860694Y-101503286D01*
X133864381Y-101540719D01*
X133864380Y-102497189D01*
X132500970Y-103860600D01*
X120762431Y-103860600D01*
X120167400Y-103265570D01*
X120167400Y-103068098D01*
X120274945Y-103125582D01*
X120471251Y-103185130D01*
X120675400Y-103205237D01*
X120879549Y-103185130D01*
X121075855Y-103125582D01*
X121256769Y-103028881D01*
X121375611Y-102931350D01*
X122721814Y-101585148D01*
X122761543Y-101552543D01*
X122795466Y-101511209D01*
X122891681Y-101393970D01*
X122988382Y-101213056D01*
X122993460Y-101196316D01*
X123047931Y-101016750D01*
X123063000Y-100863752D01*
X123063000Y-100863742D01*
X123068037Y-100812601D01*
X123063000Y-100761459D01*
X123063000Y-97891161D01*
X124307162Y-96647000D01*
X125165340Y-96647000D01*
X125216481Y-96652037D01*
X125267622Y-96647000D01*
X125267633Y-96647000D01*
X125420631Y-96631931D01*
X125616935Y-96572383D01*
X125797851Y-96475681D01*
X125956424Y-96345543D01*
X125989033Y-96305809D01*
X126989840Y-95305002D01*
X126989840Y-98957729D01*
X125700249Y-100247321D01*
X125671179Y-100271178D01*
X125647322Y-100300248D01*
X125647321Y-100300249D01*
X125575955Y-100387208D01*
X125505199Y-100519585D01*
X125461627Y-100663222D01*
X125446914Y-100812600D01*
X125450601Y-100850033D01*
X125450600Y-101660289D01*
X125408663Y-101702226D01*
X125295395Y-101871744D01*
X125217374Y-102060102D01*
X125177600Y-102260061D01*
X125177600Y-102463939D01*
X125217374Y-102663898D01*
X125295395Y-102852256D01*
X125408663Y-103021774D01*
X125552826Y-103165937D01*
X125722344Y-103279205D01*
X125910702Y-103357226D01*
X126110661Y-103397000D01*
X126314539Y-103397000D01*
X126514498Y-103357226D01*
X126702856Y-103279205D01*
X126812220Y-103206131D01*
X126822826Y-103216737D01*
X126992344Y-103330005D01*
X127180702Y-103408026D01*
X127380661Y-103447800D01*
X127584539Y-103447800D01*
X127784498Y-103408026D01*
X127972856Y-103330005D01*
X128117600Y-103233290D01*
X128262344Y-103330005D01*
X128450702Y-103408026D01*
X128650661Y-103447800D01*
X128854539Y-103447800D01*
X129054498Y-103408026D01*
X129242856Y-103330005D01*
X129412374Y-103216737D01*
X129418952Y-103210159D01*
X129567904Y-103309685D01*
X129756262Y-103387706D01*
X129956221Y-103427480D01*
X130160099Y-103427480D01*
X130360058Y-103387706D01*
X130548416Y-103309685D01*
X130717934Y-103196417D01*
X130720374Y-103193977D01*
X130787104Y-103238565D01*
X130975462Y-103316586D01*
X131175421Y-103356360D01*
X131379299Y-103356360D01*
X131579258Y-103316586D01*
X131767616Y-103238565D01*
X131937134Y-103125297D01*
X132081297Y-102981134D01*
X132194565Y-102811616D01*
X132272586Y-102623258D01*
X132312360Y-102423299D01*
X132312360Y-102219421D01*
X132272586Y-102019462D01*
X132194565Y-101831104D01*
X132081297Y-101661586D01*
X131937134Y-101517423D01*
X131767616Y-101404155D01*
X131579258Y-101326134D01*
X131379299Y-101286360D01*
X131319990Y-101286360D01*
X131033520Y-100999890D01*
X131033520Y-95662151D01*
X131075457Y-95620214D01*
X131188725Y-95450696D01*
X131266746Y-95262338D01*
X131306520Y-95062379D01*
X131306520Y-94858501D01*
X131266746Y-94658542D01*
X131214833Y-94533214D01*
X131315862Y-94450302D01*
X131339724Y-94421226D01*
X135778419Y-89982532D01*
X135785595Y-89999856D01*
X135898863Y-90169374D01*
X136043026Y-90313537D01*
X136212544Y-90426805D01*
X136400902Y-90504826D01*
X136600861Y-90544600D01*
X136804739Y-90544600D01*
X137004698Y-90504826D01*
X137193056Y-90426805D01*
X137362574Y-90313537D01*
X137404511Y-90271600D01*
X138062377Y-90271600D01*
X138099800Y-90275286D01*
X138137223Y-90271600D01*
X138137226Y-90271600D01*
X138249178Y-90260574D01*
X138392815Y-90217002D01*
X138525192Y-90146245D01*
X138641222Y-90051022D01*
X138665084Y-90021946D01*
X142066101Y-86620929D01*
X142080859Y-86633040D01*
X141996528Y-86702248D01*
X141832825Y-86901722D01*
X141711182Y-87129299D01*
X141636275Y-87376235D01*
X141610982Y-87633040D01*
X141636275Y-87889845D01*
X141711182Y-88136781D01*
X141832825Y-88364358D01*
X141996528Y-88563832D01*
X142080859Y-88633040D01*
X141996528Y-88702248D01*
X141832825Y-88901722D01*
X141711182Y-89129299D01*
X141636275Y-89376235D01*
X141610982Y-89633040D01*
X141636275Y-89889845D01*
X141711182Y-90136781D01*
X141832825Y-90364358D01*
X141996528Y-90563832D01*
X142080859Y-90633040D01*
X141996528Y-90702248D01*
X141832825Y-90901722D01*
X141711182Y-91129299D01*
X141636275Y-91376235D01*
X141610982Y-91633040D01*
X141636275Y-91889845D01*
X141711182Y-92136781D01*
X141832825Y-92364358D01*
X141996528Y-92563832D01*
X142196002Y-92727535D01*
X142423579Y-92849178D01*
X142670515Y-92924085D01*
X142862969Y-92943040D01*
X142991671Y-92943040D01*
X143184125Y-92924085D01*
X143431061Y-92849178D01*
X143658638Y-92727535D01*
X143728246Y-92670409D01*
X143801135Y-92759225D01*
X143897826Y-92838577D01*
X144008140Y-92897542D01*
X144127838Y-92933852D01*
X144252320Y-92946112D01*
X145602320Y-92946112D01*
X145726802Y-92933852D01*
X145846500Y-92897542D01*
X145956814Y-92838577D01*
X146053505Y-92759225D01*
X146132857Y-92662534D01*
X146191822Y-92552220D01*
X146228132Y-92432522D01*
X146240392Y-92308040D01*
X146240392Y-90958040D01*
X146228132Y-90833558D01*
X146191822Y-90713860D01*
X146132857Y-90603546D01*
X146053505Y-90506855D01*
X145964689Y-90433966D01*
X146021815Y-90364358D01*
X146143458Y-90136781D01*
X146218365Y-89889845D01*
X146243658Y-89633040D01*
X146218365Y-89376235D01*
X146143458Y-89129299D01*
X146021815Y-88901722D01*
X145858112Y-88702248D01*
X145773781Y-88633040D01*
X145858112Y-88563832D01*
X146021815Y-88364358D01*
X146143458Y-88136781D01*
X146218365Y-87889845D01*
X146243658Y-87633040D01*
X146218365Y-87376235D01*
X146143458Y-87129299D01*
X146021815Y-86901722D01*
X145858112Y-86702248D01*
X145773781Y-86633040D01*
X145858112Y-86563832D01*
X146021815Y-86364358D01*
X146143458Y-86136781D01*
X146218365Y-85889845D01*
X146243658Y-85633040D01*
X146218365Y-85376235D01*
X146143458Y-85129299D01*
X146021815Y-84901722D01*
X145858112Y-84702248D01*
X145658638Y-84538545D01*
X145431061Y-84416902D01*
X145184125Y-84341995D01*
X145084581Y-84332191D01*
X144662390Y-83910000D01*
X148590001Y-83910000D01*
X148590000Y-103032418D01*
X148590000Y-103032418D01*
G37*
X148590000Y-103032418D02*
X148590001Y-103032428D01*
X148590000Y-107648390D01*
X148286966Y-107648390D01*
X148249543Y-107644704D01*
X148212120Y-107648390D01*
X148212117Y-107648390D01*
X148100165Y-107659416D01*
X147956528Y-107702988D01*
X147929481Y-107717445D01*
X147824150Y-107773745D01*
X147760715Y-107825805D01*
X147708121Y-107868968D01*
X147684263Y-107898039D01*
X146912443Y-108669859D01*
X146883368Y-108693721D01*
X146835727Y-108751773D01*
X146788145Y-108809751D01*
X146767737Y-108847932D01*
X146717388Y-108942129D01*
X146673816Y-109085766D01*
X146663433Y-109191187D01*
X146659104Y-109235143D01*
X146662790Y-109272566D01*
X146662791Y-111441178D01*
X145254960Y-112849010D01*
X134380021Y-112849010D01*
X134929153Y-112299878D01*
X134958222Y-112276022D01*
X135053445Y-112159992D01*
X135122190Y-112031379D01*
X135124201Y-112027617D01*
X135124500Y-112026632D01*
X135167774Y-111883978D01*
X135178800Y-111772026D01*
X135178800Y-111772024D01*
X135182486Y-111734601D01*
X135178800Y-111697178D01*
X135178800Y-111431090D01*
X136378924Y-111431090D01*
X136423575Y-111578299D01*
X136548759Y-111841120D01*
X136722812Y-112074469D01*
X136939045Y-112269378D01*
X137189148Y-112418357D01*
X137463509Y-112515681D01*
X137693400Y-112395014D01*
X137693400Y-111201200D01*
X136500245Y-111201200D01*
X136378924Y-111431090D01*
X135178800Y-111431090D01*
X135178800Y-108891090D01*
X136378924Y-108891090D01*
X136423575Y-109038299D01*
X136548759Y-109301120D01*
X136722812Y-109534469D01*
X136939045Y-109729378D01*
X137064655Y-109804200D01*
X136939045Y-109879022D01*
X136722812Y-110073931D01*
X136548759Y-110307280D01*
X136423575Y-110570101D01*
X136378924Y-110717310D01*
X136500245Y-110947200D01*
X137693400Y-110947200D01*
X137693400Y-108661200D01*
X136500245Y-108661200D01*
X136378924Y-108891090D01*
X135178800Y-108891090D01*
X135178800Y-108177310D01*
X136378924Y-108177310D01*
X136500245Y-108407200D01*
X137693400Y-108407200D01*
X137693400Y-107213386D01*
X137947400Y-107213386D01*
X137947400Y-108407200D01*
X137967400Y-108407200D01*
X137967400Y-108661200D01*
X137947400Y-108661200D01*
X137947400Y-110947200D01*
X137967400Y-110947200D01*
X137967400Y-111201200D01*
X137947400Y-111201200D01*
X137947400Y-112395014D01*
X138177291Y-112515681D01*
X138451652Y-112418357D01*
X138701755Y-112269378D01*
X138897902Y-112092574D01*
X138920898Y-112168380D01*
X138979863Y-112278694D01*
X139059215Y-112375385D01*
X139155906Y-112454737D01*
X139266220Y-112513702D01*
X139385918Y-112550012D01*
X139510400Y-112562272D01*
X141210400Y-112562272D01*
X141334882Y-112550012D01*
X141454580Y-112513702D01*
X141564894Y-112454737D01*
X141661585Y-112375385D01*
X141740937Y-112278694D01*
X141799902Y-112168380D01*
X141836212Y-112048682D01*
X141848472Y-111924200D01*
X141848472Y-110224200D01*
X141836212Y-110099718D01*
X141799902Y-109980020D01*
X141740937Y-109869706D01*
X141661585Y-109773015D01*
X141564894Y-109693663D01*
X141454580Y-109634698D01*
X141385713Y-109613807D01*
X141415534Y-109589334D01*
X141601106Y-109363214D01*
X141738999Y-109105234D01*
X141823913Y-108825311D01*
X141852585Y-108534200D01*
X141823913Y-108243089D01*
X141738999Y-107963166D01*
X141601106Y-107705186D01*
X141415534Y-107479066D01*
X141189414Y-107293494D01*
X140931434Y-107155601D01*
X140651511Y-107070687D01*
X140433350Y-107049200D01*
X140287450Y-107049200D01*
X140069289Y-107070687D01*
X139789366Y-107155601D01*
X139531386Y-107293494D01*
X139305266Y-107479066D01*
X139119694Y-107705186D01*
X139088816Y-107762956D01*
X138917988Y-107533931D01*
X138701755Y-107339022D01*
X138451652Y-107190043D01*
X138177291Y-107092719D01*
X137947400Y-107213386D01*
X137693400Y-107213386D01*
X137463509Y-107092719D01*
X137189148Y-107190043D01*
X136939045Y-107339022D01*
X136722812Y-107533931D01*
X136548759Y-107767280D01*
X136423575Y-108030101D01*
X136378924Y-108177310D01*
X135178800Y-108177310D01*
X135178800Y-106335230D01*
X137297831Y-104216200D01*
X140627777Y-104216200D01*
X140665200Y-104219886D01*
X140702623Y-104216200D01*
X140702626Y-104216200D01*
X140814578Y-104205174D01*
X140958215Y-104161602D01*
X141090592Y-104090845D01*
X141206622Y-103995622D01*
X141230484Y-103966546D01*
X141837947Y-103359083D01*
X141867022Y-103335222D01*
X141946637Y-103238211D01*
X141962245Y-103219193D01*
X142004287Y-103140537D01*
X142033002Y-103086815D01*
X142076574Y-102943178D01*
X142087600Y-102831226D01*
X142087600Y-102831223D01*
X142091286Y-102793800D01*
X142087600Y-102756377D01*
X142087600Y-101840623D01*
X142091286Y-101803200D01*
X142087600Y-101765774D01*
X142076574Y-101653822D01*
X142033002Y-101510185D01*
X141996125Y-101441193D01*
X141962245Y-101377807D01*
X141890879Y-101290848D01*
X141867022Y-101261778D01*
X141837952Y-101237921D01*
X140062084Y-99462054D01*
X140038222Y-99432978D01*
X139922192Y-99337755D01*
X139789815Y-99266998D01*
X139646178Y-99223426D01*
X139534226Y-99212400D01*
X139534223Y-99212400D01*
X139496800Y-99208714D01*
X139459377Y-99212400D01*
X135995024Y-99212400D01*
X135918205Y-99026944D01*
X135804937Y-98857426D01*
X135660774Y-98713263D01*
X135491256Y-98599995D01*
X135302898Y-98521974D01*
X135102939Y-98482200D01*
X134899061Y-98482200D01*
X134699102Y-98521974D01*
X134510744Y-98599995D01*
X134341226Y-98713263D01*
X134197063Y-98857426D01*
X134083795Y-99026944D01*
X134005774Y-99215302D01*
X133966000Y-99415261D01*
X133966000Y-99619139D01*
X134005774Y-99819098D01*
X134083795Y-100007456D01*
X134197063Y-100176974D01*
X134341226Y-100321137D01*
X134510744Y-100434405D01*
X134586324Y-100465711D01*
X134114029Y-100938007D01*
X134084959Y-100961864D01*
X134061102Y-100990934D01*
X134061101Y-100990935D01*
X133989735Y-101077894D01*
X133918979Y-101210271D01*
X133875407Y-101353908D01*
X133860694Y-101503286D01*
X133864381Y-101540719D01*
X133864380Y-102497189D01*
X132500970Y-103860600D01*
X120762431Y-103860600D01*
X120167400Y-103265570D01*
X120167400Y-103068098D01*
X120274945Y-103125582D01*
X120471251Y-103185130D01*
X120675400Y-103205237D01*
X120879549Y-103185130D01*
X121075855Y-103125582D01*
X121256769Y-103028881D01*
X121375611Y-102931350D01*
X122721814Y-101585148D01*
X122761543Y-101552543D01*
X122795466Y-101511209D01*
X122891681Y-101393970D01*
X122988382Y-101213056D01*
X122993460Y-101196316D01*
X123047931Y-101016750D01*
X123063000Y-100863752D01*
X123063000Y-100863742D01*
X123068037Y-100812601D01*
X123063000Y-100761459D01*
X123063000Y-97891161D01*
X124307162Y-96647000D01*
X125165340Y-96647000D01*
X125216481Y-96652037D01*
X125267622Y-96647000D01*
X125267633Y-96647000D01*
X125420631Y-96631931D01*
X125616935Y-96572383D01*
X125797851Y-96475681D01*
X125956424Y-96345543D01*
X125989033Y-96305809D01*
X126989840Y-95305002D01*
X126989840Y-98957729D01*
X125700249Y-100247321D01*
X125671179Y-100271178D01*
X125647322Y-100300248D01*
X125647321Y-100300249D01*
X125575955Y-100387208D01*
X125505199Y-100519585D01*
X125461627Y-100663222D01*
X125446914Y-100812600D01*
X125450601Y-100850033D01*
X125450600Y-101660289D01*
X125408663Y-101702226D01*
X125295395Y-101871744D01*
X125217374Y-102060102D01*
X125177600Y-102260061D01*
X125177600Y-102463939D01*
X125217374Y-102663898D01*
X125295395Y-102852256D01*
X125408663Y-103021774D01*
X125552826Y-103165937D01*
X125722344Y-103279205D01*
X125910702Y-103357226D01*
X126110661Y-103397000D01*
X126314539Y-103397000D01*
X126514498Y-103357226D01*
X126702856Y-103279205D01*
X126812220Y-103206131D01*
X126822826Y-103216737D01*
X126992344Y-103330005D01*
X127180702Y-103408026D01*
X127380661Y-103447800D01*
X127584539Y-103447800D01*
X127784498Y-103408026D01*
X127972856Y-103330005D01*
X128117600Y-103233290D01*
X128262344Y-103330005D01*
X128450702Y-103408026D01*
X128650661Y-103447800D01*
X128854539Y-103447800D01*
X129054498Y-103408026D01*
X129242856Y-103330005D01*
X129412374Y-103216737D01*
X129418952Y-103210159D01*
X129567904Y-103309685D01*
X129756262Y-103387706D01*
X129956221Y-103427480D01*
X130160099Y-103427480D01*
X130360058Y-103387706D01*
X130548416Y-103309685D01*
X130717934Y-103196417D01*
X130720374Y-103193977D01*
X130787104Y-103238565D01*
X130975462Y-103316586D01*
X131175421Y-103356360D01*
X131379299Y-103356360D01*
X131579258Y-103316586D01*
X131767616Y-103238565D01*
X131937134Y-103125297D01*
X132081297Y-102981134D01*
X132194565Y-102811616D01*
X132272586Y-102623258D01*
X132312360Y-102423299D01*
X132312360Y-102219421D01*
X132272586Y-102019462D01*
X132194565Y-101831104D01*
X132081297Y-101661586D01*
X131937134Y-101517423D01*
X131767616Y-101404155D01*
X131579258Y-101326134D01*
X131379299Y-101286360D01*
X131319990Y-101286360D01*
X131033520Y-100999890D01*
X131033520Y-95662151D01*
X131075457Y-95620214D01*
X131188725Y-95450696D01*
X131266746Y-95262338D01*
X131306520Y-95062379D01*
X131306520Y-94858501D01*
X131266746Y-94658542D01*
X131214833Y-94533214D01*
X131315862Y-94450302D01*
X131339724Y-94421226D01*
X135778419Y-89982532D01*
X135785595Y-89999856D01*
X135898863Y-90169374D01*
X136043026Y-90313537D01*
X136212544Y-90426805D01*
X136400902Y-90504826D01*
X136600861Y-90544600D01*
X136804739Y-90544600D01*
X137004698Y-90504826D01*
X137193056Y-90426805D01*
X137362574Y-90313537D01*
X137404511Y-90271600D01*
X138062377Y-90271600D01*
X138099800Y-90275286D01*
X138137223Y-90271600D01*
X138137226Y-90271600D01*
X138249178Y-90260574D01*
X138392815Y-90217002D01*
X138525192Y-90146245D01*
X138641222Y-90051022D01*
X138665084Y-90021946D01*
X142066101Y-86620929D01*
X142080859Y-86633040D01*
X141996528Y-86702248D01*
X141832825Y-86901722D01*
X141711182Y-87129299D01*
X141636275Y-87376235D01*
X141610982Y-87633040D01*
X141636275Y-87889845D01*
X141711182Y-88136781D01*
X141832825Y-88364358D01*
X141996528Y-88563832D01*
X142080859Y-88633040D01*
X141996528Y-88702248D01*
X141832825Y-88901722D01*
X141711182Y-89129299D01*
X141636275Y-89376235D01*
X141610982Y-89633040D01*
X141636275Y-89889845D01*
X141711182Y-90136781D01*
X141832825Y-90364358D01*
X141996528Y-90563832D01*
X142080859Y-90633040D01*
X141996528Y-90702248D01*
X141832825Y-90901722D01*
X141711182Y-91129299D01*
X141636275Y-91376235D01*
X141610982Y-91633040D01*
X141636275Y-91889845D01*
X141711182Y-92136781D01*
X141832825Y-92364358D01*
X141996528Y-92563832D01*
X142196002Y-92727535D01*
X142423579Y-92849178D01*
X142670515Y-92924085D01*
X142862969Y-92943040D01*
X142991671Y-92943040D01*
X143184125Y-92924085D01*
X143431061Y-92849178D01*
X143658638Y-92727535D01*
X143728246Y-92670409D01*
X143801135Y-92759225D01*
X143897826Y-92838577D01*
X144008140Y-92897542D01*
X144127838Y-92933852D01*
X144252320Y-92946112D01*
X145602320Y-92946112D01*
X145726802Y-92933852D01*
X145846500Y-92897542D01*
X145956814Y-92838577D01*
X146053505Y-92759225D01*
X146132857Y-92662534D01*
X146191822Y-92552220D01*
X146228132Y-92432522D01*
X146240392Y-92308040D01*
X146240392Y-90958040D01*
X146228132Y-90833558D01*
X146191822Y-90713860D01*
X146132857Y-90603546D01*
X146053505Y-90506855D01*
X145964689Y-90433966D01*
X146021815Y-90364358D01*
X146143458Y-90136781D01*
X146218365Y-89889845D01*
X146243658Y-89633040D01*
X146218365Y-89376235D01*
X146143458Y-89129299D01*
X146021815Y-88901722D01*
X145858112Y-88702248D01*
X145773781Y-88633040D01*
X145858112Y-88563832D01*
X146021815Y-88364358D01*
X146143458Y-88136781D01*
X146218365Y-87889845D01*
X146243658Y-87633040D01*
X146218365Y-87376235D01*
X146143458Y-87129299D01*
X146021815Y-86901722D01*
X145858112Y-86702248D01*
X145773781Y-86633040D01*
X145858112Y-86563832D01*
X146021815Y-86364358D01*
X146143458Y-86136781D01*
X146218365Y-85889845D01*
X146243658Y-85633040D01*
X146218365Y-85376235D01*
X146143458Y-85129299D01*
X146021815Y-84901722D01*
X145858112Y-84702248D01*
X145658638Y-84538545D01*
X145431061Y-84416902D01*
X145184125Y-84341995D01*
X145084581Y-84332191D01*
X144662390Y-83910000D01*
X148590001Y-83910000D01*
X148590000Y-103032418D01*
M02*
