G04 #@! TF.GenerationSoftware,KiCad,Pcbnew,(5.1.0)-1*
G04 #@! TF.CreationDate,2021-02-28T16:26:20+01:00*
G04 #@! TF.ProjectId,Atari simm expansion,41746172-6920-4736-996d-6d2065787061,rev?*
G04 #@! TF.SameCoordinates,Original*
G04 #@! TF.FileFunction,Legend,Bot*
G04 #@! TF.FilePolarity,Positive*
%FSLAX46Y46*%
G04 Gerber Fmt 4.6, Leading zero omitted, Abs format (unit mm)*
G04 Created by KiCad (PCBNEW (5.1.0)-1) date 2021-02-28 16:26:20*
%MOMM*%
%LPD*%
G04 APERTURE LIST*
%ADD10O,1.452000X1.452000*%
%ADD11R,1.452000X1.452000*%
%ADD12O,1.802000X1.802000*%
%ADD13R,1.802000X1.802000*%
%ADD14O,1.702000X1.702000*%
%ADD15R,1.702000X1.702000*%
G04 APERTURE END LIST*
%LPC*%
D10*
X142927320Y-85633040D03*
X144927320Y-85633040D03*
X142927320Y-87633040D03*
X144927320Y-87633040D03*
X142927320Y-89633040D03*
X144927320Y-89633040D03*
X142927320Y-91633040D03*
D11*
X144927320Y-91633040D03*
D12*
X167563800Y-110312200D03*
X165023800Y-110312200D03*
X162483800Y-110312200D03*
X159943800Y-110312200D03*
X157403800Y-110312200D03*
X154863800Y-110312200D03*
X152323800Y-110312200D03*
D13*
X149783800Y-110312200D03*
D12*
X137820400Y-108534200D03*
X140360400Y-108534200D03*
X137820400Y-111074200D03*
D13*
X140360400Y-111074200D03*
D14*
X190420000Y-108380000D03*
X213280000Y-116000000D03*
X192960000Y-108380000D03*
X210740000Y-116000000D03*
X195500000Y-108380000D03*
X208200000Y-116000000D03*
X198040000Y-108380000D03*
X205660000Y-116000000D03*
X200580000Y-108380000D03*
X203120000Y-116000000D03*
X203120000Y-108380000D03*
X200580000Y-116000000D03*
X205660000Y-108380000D03*
X198040000Y-116000000D03*
X208200000Y-108380000D03*
X195500000Y-116000000D03*
X210740000Y-108380000D03*
X192960000Y-116000000D03*
X213280000Y-108380000D03*
D15*
X190420000Y-116000000D03*
D14*
X108000000Y-116434600D03*
X135940000Y-124054600D03*
X110540000Y-116434600D03*
X133400000Y-124054600D03*
X113080000Y-116434600D03*
X130860000Y-124054600D03*
X115620000Y-116434600D03*
X128320000Y-124054600D03*
X118160000Y-116434600D03*
X125780000Y-124054600D03*
X120700000Y-116434600D03*
X123240000Y-124054600D03*
X123240000Y-116434600D03*
X120700000Y-124054600D03*
X125780000Y-116434600D03*
X118160000Y-124054600D03*
X128320000Y-116434600D03*
X115620000Y-124054600D03*
X130860000Y-116434600D03*
X113080000Y-124054600D03*
X133400000Y-116434600D03*
X110540000Y-124054600D03*
X135940000Y-116434600D03*
D15*
X108000000Y-124054600D03*
D12*
X213280000Y-105814600D03*
X210740000Y-105814600D03*
X208200000Y-105814600D03*
X205660000Y-105814600D03*
X203120000Y-105814600D03*
X200580000Y-105814600D03*
X198040000Y-105814600D03*
X195500000Y-105814600D03*
X192960000Y-105814600D03*
D13*
X190420000Y-105814600D03*
D12*
X213280000Y-113434600D03*
X210740000Y-113434600D03*
X208200000Y-113434600D03*
X205660000Y-113434600D03*
X203120000Y-113434600D03*
X200580000Y-113434600D03*
X198040000Y-113434600D03*
X195500000Y-113434600D03*
X192960000Y-113434600D03*
D13*
X190420000Y-113434600D03*
D12*
X172680000Y-116434600D03*
X170140000Y-116434600D03*
X167600000Y-116434600D03*
X165060000Y-116434600D03*
X162520000Y-116434600D03*
X159980000Y-116434600D03*
X157440000Y-116434600D03*
X154900000Y-116434600D03*
X152360000Y-116434600D03*
D13*
X149820000Y-116434600D03*
D12*
X172680000Y-124054600D03*
X170140000Y-124054600D03*
X167600000Y-124054600D03*
X165060000Y-124054600D03*
X162520000Y-124054600D03*
X159980000Y-124054600D03*
X157440000Y-124054600D03*
X154900000Y-124054600D03*
X152360000Y-124054600D03*
D13*
X149820000Y-124054600D03*
D12*
X126320000Y-85680000D03*
X123780000Y-85680000D03*
X121240000Y-85680000D03*
X118700000Y-85680000D03*
X116160000Y-85680000D03*
X113620000Y-85680000D03*
X111080000Y-85680000D03*
X108540000Y-85680000D03*
D13*
X106000000Y-85680000D03*
D12*
X126320000Y-93300000D03*
X123780000Y-93300000D03*
X121240000Y-93300000D03*
X118700000Y-93300000D03*
X116160000Y-93300000D03*
X113620000Y-93300000D03*
X111080000Y-93300000D03*
X108540000Y-93300000D03*
D13*
X106000000Y-93300000D03*
D12*
X126320000Y-73000000D03*
X123780000Y-73000000D03*
X121240000Y-73000000D03*
X118700000Y-73000000D03*
X116160000Y-73000000D03*
X113620000Y-73000000D03*
X111080000Y-73000000D03*
X108540000Y-73000000D03*
D13*
X106000000Y-73000000D03*
D12*
X126320000Y-80620000D03*
X123780000Y-80620000D03*
X121240000Y-80620000D03*
X118700000Y-80620000D03*
X116160000Y-80620000D03*
X113620000Y-80620000D03*
X111080000Y-80620000D03*
X108540000Y-80620000D03*
D13*
X106000000Y-80620000D03*
M02*
