G04 #@! TF.GenerationSoftware,KiCad,Pcbnew,(5.1.0)-1*
G04 #@! TF.CreationDate,2021-03-01T10:42:37+01:00*
G04 #@! TF.ProjectId,Atari simm expansion,41746172-6920-4736-996d-6d2065787061,rev?*
G04 #@! TF.SameCoordinates,Original*
G04 #@! TF.FileFunction,Soldermask,Bot*
G04 #@! TF.FilePolarity,Negative*
%FSLAX46Y46*%
G04 Gerber Fmt 4.6, Leading zero omitted, Abs format (unit mm)*
G04 Created by KiCad (PCBNEW (5.1.0)-1) date 2021-03-01 10:42:37*
%MOMM*%
%LPD*%
G04 APERTURE LIST*
%ADD10C,0.100000*%
G04 APERTURE END LIST*
D10*
G36*
X157550443Y-123160119D02*
G01*
X157616627Y-123166637D01*
X157786466Y-123218157D01*
X157942991Y-123301822D01*
X157978729Y-123331152D01*
X158080186Y-123414414D01*
X158163448Y-123515871D01*
X158192778Y-123551609D01*
X158276443Y-123708134D01*
X158327963Y-123877973D01*
X158345359Y-124054600D01*
X158327963Y-124231227D01*
X158276443Y-124401066D01*
X158192778Y-124557591D01*
X158163448Y-124593329D01*
X158080186Y-124694786D01*
X157978729Y-124778048D01*
X157942991Y-124807378D01*
X157786466Y-124891043D01*
X157616627Y-124942563D01*
X157550443Y-124949081D01*
X157484260Y-124955600D01*
X157395740Y-124955600D01*
X157329557Y-124949081D01*
X157263373Y-124942563D01*
X157093534Y-124891043D01*
X156937009Y-124807378D01*
X156901271Y-124778048D01*
X156799814Y-124694786D01*
X156716552Y-124593329D01*
X156687222Y-124557591D01*
X156603557Y-124401066D01*
X156552037Y-124231227D01*
X156534641Y-124054600D01*
X156552037Y-123877973D01*
X156603557Y-123708134D01*
X156687222Y-123551609D01*
X156716552Y-123515871D01*
X156799814Y-123414414D01*
X156901271Y-123331152D01*
X156937009Y-123301822D01*
X157093534Y-123218157D01*
X157263373Y-123166637D01*
X157329557Y-123160119D01*
X157395740Y-123153600D01*
X157484260Y-123153600D01*
X157550443Y-123160119D01*
X157550443Y-123160119D01*
G37*
G36*
X170250443Y-123160119D02*
G01*
X170316627Y-123166637D01*
X170486466Y-123218157D01*
X170642991Y-123301822D01*
X170678729Y-123331152D01*
X170780186Y-123414414D01*
X170863448Y-123515871D01*
X170892778Y-123551609D01*
X170976443Y-123708134D01*
X171027963Y-123877973D01*
X171045359Y-124054600D01*
X171027963Y-124231227D01*
X170976443Y-124401066D01*
X170892778Y-124557591D01*
X170863448Y-124593329D01*
X170780186Y-124694786D01*
X170678729Y-124778048D01*
X170642991Y-124807378D01*
X170486466Y-124891043D01*
X170316627Y-124942563D01*
X170250443Y-124949081D01*
X170184260Y-124955600D01*
X170095740Y-124955600D01*
X170029557Y-124949081D01*
X169963373Y-124942563D01*
X169793534Y-124891043D01*
X169637009Y-124807378D01*
X169601271Y-124778048D01*
X169499814Y-124694786D01*
X169416552Y-124593329D01*
X169387222Y-124557591D01*
X169303557Y-124401066D01*
X169252037Y-124231227D01*
X169234641Y-124054600D01*
X169252037Y-123877973D01*
X169303557Y-123708134D01*
X169387222Y-123551609D01*
X169416552Y-123515871D01*
X169499814Y-123414414D01*
X169601271Y-123331152D01*
X169637009Y-123301822D01*
X169793534Y-123218157D01*
X169963373Y-123166637D01*
X170029557Y-123160119D01*
X170095740Y-123153600D01*
X170184260Y-123153600D01*
X170250443Y-123160119D01*
X170250443Y-123160119D01*
G37*
G36*
X150721000Y-124955600D02*
G01*
X148919000Y-124955600D01*
X148919000Y-123153600D01*
X150721000Y-123153600D01*
X150721000Y-124955600D01*
X150721000Y-124955600D01*
G37*
G36*
X152470443Y-123160119D02*
G01*
X152536627Y-123166637D01*
X152706466Y-123218157D01*
X152862991Y-123301822D01*
X152898729Y-123331152D01*
X153000186Y-123414414D01*
X153083448Y-123515871D01*
X153112778Y-123551609D01*
X153196443Y-123708134D01*
X153247963Y-123877973D01*
X153265359Y-124054600D01*
X153247963Y-124231227D01*
X153196443Y-124401066D01*
X153112778Y-124557591D01*
X153083448Y-124593329D01*
X153000186Y-124694786D01*
X152898729Y-124778048D01*
X152862991Y-124807378D01*
X152706466Y-124891043D01*
X152536627Y-124942563D01*
X152470443Y-124949081D01*
X152404260Y-124955600D01*
X152315740Y-124955600D01*
X152249557Y-124949081D01*
X152183373Y-124942563D01*
X152013534Y-124891043D01*
X151857009Y-124807378D01*
X151821271Y-124778048D01*
X151719814Y-124694786D01*
X151636552Y-124593329D01*
X151607222Y-124557591D01*
X151523557Y-124401066D01*
X151472037Y-124231227D01*
X151454641Y-124054600D01*
X151472037Y-123877973D01*
X151523557Y-123708134D01*
X151607222Y-123551609D01*
X151636552Y-123515871D01*
X151719814Y-123414414D01*
X151821271Y-123331152D01*
X151857009Y-123301822D01*
X152013534Y-123218157D01*
X152183373Y-123166637D01*
X152249557Y-123160119D01*
X152315740Y-123153600D01*
X152404260Y-123153600D01*
X152470443Y-123160119D01*
X152470443Y-123160119D01*
G37*
G36*
X155010443Y-123160119D02*
G01*
X155076627Y-123166637D01*
X155246466Y-123218157D01*
X155402991Y-123301822D01*
X155438729Y-123331152D01*
X155540186Y-123414414D01*
X155623448Y-123515871D01*
X155652778Y-123551609D01*
X155736443Y-123708134D01*
X155787963Y-123877973D01*
X155805359Y-124054600D01*
X155787963Y-124231227D01*
X155736443Y-124401066D01*
X155652778Y-124557591D01*
X155623448Y-124593329D01*
X155540186Y-124694786D01*
X155438729Y-124778048D01*
X155402991Y-124807378D01*
X155246466Y-124891043D01*
X155076627Y-124942563D01*
X155010443Y-124949081D01*
X154944260Y-124955600D01*
X154855740Y-124955600D01*
X154789557Y-124949081D01*
X154723373Y-124942563D01*
X154553534Y-124891043D01*
X154397009Y-124807378D01*
X154361271Y-124778048D01*
X154259814Y-124694786D01*
X154176552Y-124593329D01*
X154147222Y-124557591D01*
X154063557Y-124401066D01*
X154012037Y-124231227D01*
X153994641Y-124054600D01*
X154012037Y-123877973D01*
X154063557Y-123708134D01*
X154147222Y-123551609D01*
X154176552Y-123515871D01*
X154259814Y-123414414D01*
X154361271Y-123331152D01*
X154397009Y-123301822D01*
X154553534Y-123218157D01*
X154723373Y-123166637D01*
X154789557Y-123160119D01*
X154855740Y-123153600D01*
X154944260Y-123153600D01*
X155010443Y-123160119D01*
X155010443Y-123160119D01*
G37*
G36*
X172790443Y-123160119D02*
G01*
X172856627Y-123166637D01*
X173026466Y-123218157D01*
X173182991Y-123301822D01*
X173218729Y-123331152D01*
X173320186Y-123414414D01*
X173403448Y-123515871D01*
X173432778Y-123551609D01*
X173516443Y-123708134D01*
X173567963Y-123877973D01*
X173585359Y-124054600D01*
X173567963Y-124231227D01*
X173516443Y-124401066D01*
X173432778Y-124557591D01*
X173403448Y-124593329D01*
X173320186Y-124694786D01*
X173218729Y-124778048D01*
X173182991Y-124807378D01*
X173026466Y-124891043D01*
X172856627Y-124942563D01*
X172790443Y-124949081D01*
X172724260Y-124955600D01*
X172635740Y-124955600D01*
X172569557Y-124949081D01*
X172503373Y-124942563D01*
X172333534Y-124891043D01*
X172177009Y-124807378D01*
X172141271Y-124778048D01*
X172039814Y-124694786D01*
X171956552Y-124593329D01*
X171927222Y-124557591D01*
X171843557Y-124401066D01*
X171792037Y-124231227D01*
X171774641Y-124054600D01*
X171792037Y-123877973D01*
X171843557Y-123708134D01*
X171927222Y-123551609D01*
X171956552Y-123515871D01*
X172039814Y-123414414D01*
X172141271Y-123331152D01*
X172177009Y-123301822D01*
X172333534Y-123218157D01*
X172503373Y-123166637D01*
X172569557Y-123160119D01*
X172635740Y-123153600D01*
X172724260Y-123153600D01*
X172790443Y-123160119D01*
X172790443Y-123160119D01*
G37*
G36*
X165170443Y-123160119D02*
G01*
X165236627Y-123166637D01*
X165406466Y-123218157D01*
X165562991Y-123301822D01*
X165598729Y-123331152D01*
X165700186Y-123414414D01*
X165783448Y-123515871D01*
X165812778Y-123551609D01*
X165896443Y-123708134D01*
X165947963Y-123877973D01*
X165965359Y-124054600D01*
X165947963Y-124231227D01*
X165896443Y-124401066D01*
X165812778Y-124557591D01*
X165783448Y-124593329D01*
X165700186Y-124694786D01*
X165598729Y-124778048D01*
X165562991Y-124807378D01*
X165406466Y-124891043D01*
X165236627Y-124942563D01*
X165170443Y-124949081D01*
X165104260Y-124955600D01*
X165015740Y-124955600D01*
X164949557Y-124949081D01*
X164883373Y-124942563D01*
X164713534Y-124891043D01*
X164557009Y-124807378D01*
X164521271Y-124778048D01*
X164419814Y-124694786D01*
X164336552Y-124593329D01*
X164307222Y-124557591D01*
X164223557Y-124401066D01*
X164172037Y-124231227D01*
X164154641Y-124054600D01*
X164172037Y-123877973D01*
X164223557Y-123708134D01*
X164307222Y-123551609D01*
X164336552Y-123515871D01*
X164419814Y-123414414D01*
X164521271Y-123331152D01*
X164557009Y-123301822D01*
X164713534Y-123218157D01*
X164883373Y-123166637D01*
X164949557Y-123160119D01*
X165015740Y-123153600D01*
X165104260Y-123153600D01*
X165170443Y-123160119D01*
X165170443Y-123160119D01*
G37*
G36*
X167710443Y-123160119D02*
G01*
X167776627Y-123166637D01*
X167946466Y-123218157D01*
X168102991Y-123301822D01*
X168138729Y-123331152D01*
X168240186Y-123414414D01*
X168323448Y-123515871D01*
X168352778Y-123551609D01*
X168436443Y-123708134D01*
X168487963Y-123877973D01*
X168505359Y-124054600D01*
X168487963Y-124231227D01*
X168436443Y-124401066D01*
X168352778Y-124557591D01*
X168323448Y-124593329D01*
X168240186Y-124694786D01*
X168138729Y-124778048D01*
X168102991Y-124807378D01*
X167946466Y-124891043D01*
X167776627Y-124942563D01*
X167710443Y-124949081D01*
X167644260Y-124955600D01*
X167555740Y-124955600D01*
X167489557Y-124949081D01*
X167423373Y-124942563D01*
X167253534Y-124891043D01*
X167097009Y-124807378D01*
X167061271Y-124778048D01*
X166959814Y-124694786D01*
X166876552Y-124593329D01*
X166847222Y-124557591D01*
X166763557Y-124401066D01*
X166712037Y-124231227D01*
X166694641Y-124054600D01*
X166712037Y-123877973D01*
X166763557Y-123708134D01*
X166847222Y-123551609D01*
X166876552Y-123515871D01*
X166959814Y-123414414D01*
X167061271Y-123331152D01*
X167097009Y-123301822D01*
X167253534Y-123218157D01*
X167423373Y-123166637D01*
X167489557Y-123160119D01*
X167555740Y-123153600D01*
X167644260Y-123153600D01*
X167710443Y-123160119D01*
X167710443Y-123160119D01*
G37*
G36*
X160090443Y-123160119D02*
G01*
X160156627Y-123166637D01*
X160326466Y-123218157D01*
X160482991Y-123301822D01*
X160518729Y-123331152D01*
X160620186Y-123414414D01*
X160703448Y-123515871D01*
X160732778Y-123551609D01*
X160816443Y-123708134D01*
X160867963Y-123877973D01*
X160885359Y-124054600D01*
X160867963Y-124231227D01*
X160816443Y-124401066D01*
X160732778Y-124557591D01*
X160703448Y-124593329D01*
X160620186Y-124694786D01*
X160518729Y-124778048D01*
X160482991Y-124807378D01*
X160326466Y-124891043D01*
X160156627Y-124942563D01*
X160090443Y-124949081D01*
X160024260Y-124955600D01*
X159935740Y-124955600D01*
X159869557Y-124949081D01*
X159803373Y-124942563D01*
X159633534Y-124891043D01*
X159477009Y-124807378D01*
X159441271Y-124778048D01*
X159339814Y-124694786D01*
X159256552Y-124593329D01*
X159227222Y-124557591D01*
X159143557Y-124401066D01*
X159092037Y-124231227D01*
X159074641Y-124054600D01*
X159092037Y-123877973D01*
X159143557Y-123708134D01*
X159227222Y-123551609D01*
X159256552Y-123515871D01*
X159339814Y-123414414D01*
X159441271Y-123331152D01*
X159477009Y-123301822D01*
X159633534Y-123218157D01*
X159803373Y-123166637D01*
X159869557Y-123160119D01*
X159935740Y-123153600D01*
X160024260Y-123153600D01*
X160090443Y-123160119D01*
X160090443Y-123160119D01*
G37*
G36*
X162630443Y-123160119D02*
G01*
X162696627Y-123166637D01*
X162866466Y-123218157D01*
X163022991Y-123301822D01*
X163058729Y-123331152D01*
X163160186Y-123414414D01*
X163243448Y-123515871D01*
X163272778Y-123551609D01*
X163356443Y-123708134D01*
X163407963Y-123877973D01*
X163425359Y-124054600D01*
X163407963Y-124231227D01*
X163356443Y-124401066D01*
X163272778Y-124557591D01*
X163243448Y-124593329D01*
X163160186Y-124694786D01*
X163058729Y-124778048D01*
X163022991Y-124807378D01*
X162866466Y-124891043D01*
X162696627Y-124942563D01*
X162630443Y-124949081D01*
X162564260Y-124955600D01*
X162475740Y-124955600D01*
X162409557Y-124949081D01*
X162343373Y-124942563D01*
X162173534Y-124891043D01*
X162017009Y-124807378D01*
X161981271Y-124778048D01*
X161879814Y-124694786D01*
X161796552Y-124593329D01*
X161767222Y-124557591D01*
X161683557Y-124401066D01*
X161632037Y-124231227D01*
X161614641Y-124054600D01*
X161632037Y-123877973D01*
X161683557Y-123708134D01*
X161767222Y-123551609D01*
X161796552Y-123515871D01*
X161879814Y-123414414D01*
X161981271Y-123331152D01*
X162017009Y-123301822D01*
X162173534Y-123218157D01*
X162343373Y-123166637D01*
X162409557Y-123160119D01*
X162475740Y-123153600D01*
X162564260Y-123153600D01*
X162630443Y-123160119D01*
X162630443Y-123160119D01*
G37*
G36*
X136106823Y-123215913D02*
G01*
X136267242Y-123264576D01*
X136336922Y-123301821D01*
X136415078Y-123343596D01*
X136544659Y-123449941D01*
X136651004Y-123579522D01*
X136651005Y-123579524D01*
X136730024Y-123727358D01*
X136778687Y-123887777D01*
X136795117Y-124054600D01*
X136778687Y-124221423D01*
X136730024Y-124381842D01*
X136719747Y-124401068D01*
X136651004Y-124529678D01*
X136544659Y-124659259D01*
X136415078Y-124765604D01*
X136415076Y-124765605D01*
X136267242Y-124844624D01*
X136106823Y-124893287D01*
X135981804Y-124905600D01*
X135898196Y-124905600D01*
X135773177Y-124893287D01*
X135612758Y-124844624D01*
X135464924Y-124765605D01*
X135464922Y-124765604D01*
X135335341Y-124659259D01*
X135228996Y-124529678D01*
X135160253Y-124401068D01*
X135149976Y-124381842D01*
X135101313Y-124221423D01*
X135084883Y-124054600D01*
X135101313Y-123887777D01*
X135149976Y-123727358D01*
X135228995Y-123579524D01*
X135228996Y-123579522D01*
X135335341Y-123449941D01*
X135464922Y-123343596D01*
X135543078Y-123301821D01*
X135612758Y-123264576D01*
X135773177Y-123215913D01*
X135898196Y-123203600D01*
X135981804Y-123203600D01*
X136106823Y-123215913D01*
X136106823Y-123215913D01*
G37*
G36*
X120866823Y-123215913D02*
G01*
X121027242Y-123264576D01*
X121096922Y-123301821D01*
X121175078Y-123343596D01*
X121304659Y-123449941D01*
X121411004Y-123579522D01*
X121411005Y-123579524D01*
X121490024Y-123727358D01*
X121538687Y-123887777D01*
X121555117Y-124054600D01*
X121538687Y-124221423D01*
X121490024Y-124381842D01*
X121479747Y-124401068D01*
X121411004Y-124529678D01*
X121304659Y-124659259D01*
X121175078Y-124765604D01*
X121175076Y-124765605D01*
X121027242Y-124844624D01*
X120866823Y-124893287D01*
X120741804Y-124905600D01*
X120658196Y-124905600D01*
X120533177Y-124893287D01*
X120372758Y-124844624D01*
X120224924Y-124765605D01*
X120224922Y-124765604D01*
X120095341Y-124659259D01*
X119988996Y-124529678D01*
X119920253Y-124401068D01*
X119909976Y-124381842D01*
X119861313Y-124221423D01*
X119844883Y-124054600D01*
X119861313Y-123887777D01*
X119909976Y-123727358D01*
X119988995Y-123579524D01*
X119988996Y-123579522D01*
X120095341Y-123449941D01*
X120224922Y-123343596D01*
X120303078Y-123301821D01*
X120372758Y-123264576D01*
X120533177Y-123215913D01*
X120658196Y-123203600D01*
X120741804Y-123203600D01*
X120866823Y-123215913D01*
X120866823Y-123215913D01*
G37*
G36*
X123406823Y-123215913D02*
G01*
X123567242Y-123264576D01*
X123636922Y-123301821D01*
X123715078Y-123343596D01*
X123844659Y-123449941D01*
X123951004Y-123579522D01*
X123951005Y-123579524D01*
X124030024Y-123727358D01*
X124078687Y-123887777D01*
X124095117Y-124054600D01*
X124078687Y-124221423D01*
X124030024Y-124381842D01*
X124019747Y-124401068D01*
X123951004Y-124529678D01*
X123844659Y-124659259D01*
X123715078Y-124765604D01*
X123715076Y-124765605D01*
X123567242Y-124844624D01*
X123406823Y-124893287D01*
X123281804Y-124905600D01*
X123198196Y-124905600D01*
X123073177Y-124893287D01*
X122912758Y-124844624D01*
X122764924Y-124765605D01*
X122764922Y-124765604D01*
X122635341Y-124659259D01*
X122528996Y-124529678D01*
X122460253Y-124401068D01*
X122449976Y-124381842D01*
X122401313Y-124221423D01*
X122384883Y-124054600D01*
X122401313Y-123887777D01*
X122449976Y-123727358D01*
X122528995Y-123579524D01*
X122528996Y-123579522D01*
X122635341Y-123449941D01*
X122764922Y-123343596D01*
X122843078Y-123301821D01*
X122912758Y-123264576D01*
X123073177Y-123215913D01*
X123198196Y-123203600D01*
X123281804Y-123203600D01*
X123406823Y-123215913D01*
X123406823Y-123215913D01*
G37*
G36*
X125946823Y-123215913D02*
G01*
X126107242Y-123264576D01*
X126176922Y-123301821D01*
X126255078Y-123343596D01*
X126384659Y-123449941D01*
X126491004Y-123579522D01*
X126491005Y-123579524D01*
X126570024Y-123727358D01*
X126618687Y-123887777D01*
X126635117Y-124054600D01*
X126618687Y-124221423D01*
X126570024Y-124381842D01*
X126559747Y-124401068D01*
X126491004Y-124529678D01*
X126384659Y-124659259D01*
X126255078Y-124765604D01*
X126255076Y-124765605D01*
X126107242Y-124844624D01*
X125946823Y-124893287D01*
X125821804Y-124905600D01*
X125738196Y-124905600D01*
X125613177Y-124893287D01*
X125452758Y-124844624D01*
X125304924Y-124765605D01*
X125304922Y-124765604D01*
X125175341Y-124659259D01*
X125068996Y-124529678D01*
X125000253Y-124401068D01*
X124989976Y-124381842D01*
X124941313Y-124221423D01*
X124924883Y-124054600D01*
X124941313Y-123887777D01*
X124989976Y-123727358D01*
X125068995Y-123579524D01*
X125068996Y-123579522D01*
X125175341Y-123449941D01*
X125304922Y-123343596D01*
X125383078Y-123301821D01*
X125452758Y-123264576D01*
X125613177Y-123215913D01*
X125738196Y-123203600D01*
X125821804Y-123203600D01*
X125946823Y-123215913D01*
X125946823Y-123215913D01*
G37*
G36*
X128486823Y-123215913D02*
G01*
X128647242Y-123264576D01*
X128716922Y-123301821D01*
X128795078Y-123343596D01*
X128924659Y-123449941D01*
X129031004Y-123579522D01*
X129031005Y-123579524D01*
X129110024Y-123727358D01*
X129158687Y-123887777D01*
X129175117Y-124054600D01*
X129158687Y-124221423D01*
X129110024Y-124381842D01*
X129099747Y-124401068D01*
X129031004Y-124529678D01*
X128924659Y-124659259D01*
X128795078Y-124765604D01*
X128795076Y-124765605D01*
X128647242Y-124844624D01*
X128486823Y-124893287D01*
X128361804Y-124905600D01*
X128278196Y-124905600D01*
X128153177Y-124893287D01*
X127992758Y-124844624D01*
X127844924Y-124765605D01*
X127844922Y-124765604D01*
X127715341Y-124659259D01*
X127608996Y-124529678D01*
X127540253Y-124401068D01*
X127529976Y-124381842D01*
X127481313Y-124221423D01*
X127464883Y-124054600D01*
X127481313Y-123887777D01*
X127529976Y-123727358D01*
X127608995Y-123579524D01*
X127608996Y-123579522D01*
X127715341Y-123449941D01*
X127844922Y-123343596D01*
X127923078Y-123301821D01*
X127992758Y-123264576D01*
X128153177Y-123215913D01*
X128278196Y-123203600D01*
X128361804Y-123203600D01*
X128486823Y-123215913D01*
X128486823Y-123215913D01*
G37*
G36*
X118326823Y-123215913D02*
G01*
X118487242Y-123264576D01*
X118556922Y-123301821D01*
X118635078Y-123343596D01*
X118764659Y-123449941D01*
X118871004Y-123579522D01*
X118871005Y-123579524D01*
X118950024Y-123727358D01*
X118998687Y-123887777D01*
X119015117Y-124054600D01*
X118998687Y-124221423D01*
X118950024Y-124381842D01*
X118939747Y-124401068D01*
X118871004Y-124529678D01*
X118764659Y-124659259D01*
X118635078Y-124765604D01*
X118635076Y-124765605D01*
X118487242Y-124844624D01*
X118326823Y-124893287D01*
X118201804Y-124905600D01*
X118118196Y-124905600D01*
X117993177Y-124893287D01*
X117832758Y-124844624D01*
X117684924Y-124765605D01*
X117684922Y-124765604D01*
X117555341Y-124659259D01*
X117448996Y-124529678D01*
X117380253Y-124401068D01*
X117369976Y-124381842D01*
X117321313Y-124221423D01*
X117304883Y-124054600D01*
X117321313Y-123887777D01*
X117369976Y-123727358D01*
X117448995Y-123579524D01*
X117448996Y-123579522D01*
X117555341Y-123449941D01*
X117684922Y-123343596D01*
X117763078Y-123301821D01*
X117832758Y-123264576D01*
X117993177Y-123215913D01*
X118118196Y-123203600D01*
X118201804Y-123203600D01*
X118326823Y-123215913D01*
X118326823Y-123215913D01*
G37*
G36*
X115786823Y-123215913D02*
G01*
X115947242Y-123264576D01*
X116016922Y-123301821D01*
X116095078Y-123343596D01*
X116224659Y-123449941D01*
X116331004Y-123579522D01*
X116331005Y-123579524D01*
X116410024Y-123727358D01*
X116458687Y-123887777D01*
X116475117Y-124054600D01*
X116458687Y-124221423D01*
X116410024Y-124381842D01*
X116399747Y-124401068D01*
X116331004Y-124529678D01*
X116224659Y-124659259D01*
X116095078Y-124765604D01*
X116095076Y-124765605D01*
X115947242Y-124844624D01*
X115786823Y-124893287D01*
X115661804Y-124905600D01*
X115578196Y-124905600D01*
X115453177Y-124893287D01*
X115292758Y-124844624D01*
X115144924Y-124765605D01*
X115144922Y-124765604D01*
X115015341Y-124659259D01*
X114908996Y-124529678D01*
X114840253Y-124401068D01*
X114829976Y-124381842D01*
X114781313Y-124221423D01*
X114764883Y-124054600D01*
X114781313Y-123887777D01*
X114829976Y-123727358D01*
X114908995Y-123579524D01*
X114908996Y-123579522D01*
X115015341Y-123449941D01*
X115144922Y-123343596D01*
X115223078Y-123301821D01*
X115292758Y-123264576D01*
X115453177Y-123215913D01*
X115578196Y-123203600D01*
X115661804Y-123203600D01*
X115786823Y-123215913D01*
X115786823Y-123215913D01*
G37*
G36*
X133566823Y-123215913D02*
G01*
X133727242Y-123264576D01*
X133796922Y-123301821D01*
X133875078Y-123343596D01*
X134004659Y-123449941D01*
X134111004Y-123579522D01*
X134111005Y-123579524D01*
X134190024Y-123727358D01*
X134238687Y-123887777D01*
X134255117Y-124054600D01*
X134238687Y-124221423D01*
X134190024Y-124381842D01*
X134179747Y-124401068D01*
X134111004Y-124529678D01*
X134004659Y-124659259D01*
X133875078Y-124765604D01*
X133875076Y-124765605D01*
X133727242Y-124844624D01*
X133566823Y-124893287D01*
X133441804Y-124905600D01*
X133358196Y-124905600D01*
X133233177Y-124893287D01*
X133072758Y-124844624D01*
X132924924Y-124765605D01*
X132924922Y-124765604D01*
X132795341Y-124659259D01*
X132688996Y-124529678D01*
X132620253Y-124401068D01*
X132609976Y-124381842D01*
X132561313Y-124221423D01*
X132544883Y-124054600D01*
X132561313Y-123887777D01*
X132609976Y-123727358D01*
X132688995Y-123579524D01*
X132688996Y-123579522D01*
X132795341Y-123449941D01*
X132924922Y-123343596D01*
X133003078Y-123301821D01*
X133072758Y-123264576D01*
X133233177Y-123215913D01*
X133358196Y-123203600D01*
X133441804Y-123203600D01*
X133566823Y-123215913D01*
X133566823Y-123215913D01*
G37*
G36*
X113246823Y-123215913D02*
G01*
X113407242Y-123264576D01*
X113476922Y-123301821D01*
X113555078Y-123343596D01*
X113684659Y-123449941D01*
X113791004Y-123579522D01*
X113791005Y-123579524D01*
X113870024Y-123727358D01*
X113918687Y-123887777D01*
X113935117Y-124054600D01*
X113918687Y-124221423D01*
X113870024Y-124381842D01*
X113859747Y-124401068D01*
X113791004Y-124529678D01*
X113684659Y-124659259D01*
X113555078Y-124765604D01*
X113555076Y-124765605D01*
X113407242Y-124844624D01*
X113246823Y-124893287D01*
X113121804Y-124905600D01*
X113038196Y-124905600D01*
X112913177Y-124893287D01*
X112752758Y-124844624D01*
X112604924Y-124765605D01*
X112604922Y-124765604D01*
X112475341Y-124659259D01*
X112368996Y-124529678D01*
X112300253Y-124401068D01*
X112289976Y-124381842D01*
X112241313Y-124221423D01*
X112224883Y-124054600D01*
X112241313Y-123887777D01*
X112289976Y-123727358D01*
X112368995Y-123579524D01*
X112368996Y-123579522D01*
X112475341Y-123449941D01*
X112604922Y-123343596D01*
X112683078Y-123301821D01*
X112752758Y-123264576D01*
X112913177Y-123215913D01*
X113038196Y-123203600D01*
X113121804Y-123203600D01*
X113246823Y-123215913D01*
X113246823Y-123215913D01*
G37*
G36*
X110706823Y-123215913D02*
G01*
X110867242Y-123264576D01*
X110936922Y-123301821D01*
X111015078Y-123343596D01*
X111144659Y-123449941D01*
X111251004Y-123579522D01*
X111251005Y-123579524D01*
X111330024Y-123727358D01*
X111378687Y-123887777D01*
X111395117Y-124054600D01*
X111378687Y-124221423D01*
X111330024Y-124381842D01*
X111319747Y-124401068D01*
X111251004Y-124529678D01*
X111144659Y-124659259D01*
X111015078Y-124765604D01*
X111015076Y-124765605D01*
X110867242Y-124844624D01*
X110706823Y-124893287D01*
X110581804Y-124905600D01*
X110498196Y-124905600D01*
X110373177Y-124893287D01*
X110212758Y-124844624D01*
X110064924Y-124765605D01*
X110064922Y-124765604D01*
X109935341Y-124659259D01*
X109828996Y-124529678D01*
X109760253Y-124401068D01*
X109749976Y-124381842D01*
X109701313Y-124221423D01*
X109684883Y-124054600D01*
X109701313Y-123887777D01*
X109749976Y-123727358D01*
X109828995Y-123579524D01*
X109828996Y-123579522D01*
X109935341Y-123449941D01*
X110064922Y-123343596D01*
X110143078Y-123301821D01*
X110212758Y-123264576D01*
X110373177Y-123215913D01*
X110498196Y-123203600D01*
X110581804Y-123203600D01*
X110706823Y-123215913D01*
X110706823Y-123215913D01*
G37*
G36*
X108851000Y-124905600D02*
G01*
X107149000Y-124905600D01*
X107149000Y-123203600D01*
X108851000Y-123203600D01*
X108851000Y-124905600D01*
X108851000Y-124905600D01*
G37*
G36*
X131026823Y-123215913D02*
G01*
X131187242Y-123264576D01*
X131256922Y-123301821D01*
X131335078Y-123343596D01*
X131464659Y-123449941D01*
X131571004Y-123579522D01*
X131571005Y-123579524D01*
X131650024Y-123727358D01*
X131698687Y-123887777D01*
X131715117Y-124054600D01*
X131698687Y-124221423D01*
X131650024Y-124381842D01*
X131639747Y-124401068D01*
X131571004Y-124529678D01*
X131464659Y-124659259D01*
X131335078Y-124765604D01*
X131335076Y-124765605D01*
X131187242Y-124844624D01*
X131026823Y-124893287D01*
X130901804Y-124905600D01*
X130818196Y-124905600D01*
X130693177Y-124893287D01*
X130532758Y-124844624D01*
X130384924Y-124765605D01*
X130384922Y-124765604D01*
X130255341Y-124659259D01*
X130148996Y-124529678D01*
X130080253Y-124401068D01*
X130069976Y-124381842D01*
X130021313Y-124221423D01*
X130004883Y-124054600D01*
X130021313Y-123887777D01*
X130069976Y-123727358D01*
X130148995Y-123579524D01*
X130148996Y-123579522D01*
X130255341Y-123449941D01*
X130384922Y-123343596D01*
X130463078Y-123301821D01*
X130532758Y-123264576D01*
X130693177Y-123215913D01*
X130818196Y-123203600D01*
X130901804Y-123203600D01*
X131026823Y-123215913D01*
X131026823Y-123215913D01*
G37*
G36*
X172790443Y-115540119D02*
G01*
X172856627Y-115546637D01*
X173026466Y-115598157D01*
X173182991Y-115681822D01*
X173218729Y-115711152D01*
X173320186Y-115794414D01*
X173403448Y-115895871D01*
X173432778Y-115931609D01*
X173516443Y-116088134D01*
X173567963Y-116257973D01*
X173585359Y-116434600D01*
X173567963Y-116611227D01*
X173516443Y-116781066D01*
X173432778Y-116937591D01*
X173403448Y-116973329D01*
X173320186Y-117074786D01*
X173218729Y-117158048D01*
X173182991Y-117187378D01*
X173026466Y-117271043D01*
X172856627Y-117322563D01*
X172790442Y-117329082D01*
X172724260Y-117335600D01*
X172635740Y-117335600D01*
X172569558Y-117329082D01*
X172503373Y-117322563D01*
X172333534Y-117271043D01*
X172177009Y-117187378D01*
X172141271Y-117158048D01*
X172039814Y-117074786D01*
X171956552Y-116973329D01*
X171927222Y-116937591D01*
X171843557Y-116781066D01*
X171792037Y-116611227D01*
X171774641Y-116434600D01*
X171792037Y-116257973D01*
X171843557Y-116088134D01*
X171927222Y-115931609D01*
X171956552Y-115895871D01*
X172039814Y-115794414D01*
X172141271Y-115711152D01*
X172177009Y-115681822D01*
X172333534Y-115598157D01*
X172503373Y-115546637D01*
X172569557Y-115540119D01*
X172635740Y-115533600D01*
X172724260Y-115533600D01*
X172790443Y-115540119D01*
X172790443Y-115540119D01*
G37*
G36*
X160090443Y-115540119D02*
G01*
X160156627Y-115546637D01*
X160326466Y-115598157D01*
X160482991Y-115681822D01*
X160518729Y-115711152D01*
X160620186Y-115794414D01*
X160703448Y-115895871D01*
X160732778Y-115931609D01*
X160816443Y-116088134D01*
X160867963Y-116257973D01*
X160885359Y-116434600D01*
X160867963Y-116611227D01*
X160816443Y-116781066D01*
X160732778Y-116937591D01*
X160703448Y-116973329D01*
X160620186Y-117074786D01*
X160518729Y-117158048D01*
X160482991Y-117187378D01*
X160326466Y-117271043D01*
X160156627Y-117322563D01*
X160090442Y-117329082D01*
X160024260Y-117335600D01*
X159935740Y-117335600D01*
X159869558Y-117329082D01*
X159803373Y-117322563D01*
X159633534Y-117271043D01*
X159477009Y-117187378D01*
X159441271Y-117158048D01*
X159339814Y-117074786D01*
X159256552Y-116973329D01*
X159227222Y-116937591D01*
X159143557Y-116781066D01*
X159092037Y-116611227D01*
X159074641Y-116434600D01*
X159092037Y-116257973D01*
X159143557Y-116088134D01*
X159227222Y-115931609D01*
X159256552Y-115895871D01*
X159339814Y-115794414D01*
X159441271Y-115711152D01*
X159477009Y-115681822D01*
X159633534Y-115598157D01*
X159803373Y-115546637D01*
X159869557Y-115540119D01*
X159935740Y-115533600D01*
X160024260Y-115533600D01*
X160090443Y-115540119D01*
X160090443Y-115540119D01*
G37*
G36*
X170250443Y-115540119D02*
G01*
X170316627Y-115546637D01*
X170486466Y-115598157D01*
X170642991Y-115681822D01*
X170678729Y-115711152D01*
X170780186Y-115794414D01*
X170863448Y-115895871D01*
X170892778Y-115931609D01*
X170976443Y-116088134D01*
X171027963Y-116257973D01*
X171045359Y-116434600D01*
X171027963Y-116611227D01*
X170976443Y-116781066D01*
X170892778Y-116937591D01*
X170863448Y-116973329D01*
X170780186Y-117074786D01*
X170678729Y-117158048D01*
X170642991Y-117187378D01*
X170486466Y-117271043D01*
X170316627Y-117322563D01*
X170250442Y-117329082D01*
X170184260Y-117335600D01*
X170095740Y-117335600D01*
X170029558Y-117329082D01*
X169963373Y-117322563D01*
X169793534Y-117271043D01*
X169637009Y-117187378D01*
X169601271Y-117158048D01*
X169499814Y-117074786D01*
X169416552Y-116973329D01*
X169387222Y-116937591D01*
X169303557Y-116781066D01*
X169252037Y-116611227D01*
X169234641Y-116434600D01*
X169252037Y-116257973D01*
X169303557Y-116088134D01*
X169387222Y-115931609D01*
X169416552Y-115895871D01*
X169499814Y-115794414D01*
X169601271Y-115711152D01*
X169637009Y-115681822D01*
X169793534Y-115598157D01*
X169963373Y-115546637D01*
X170029557Y-115540119D01*
X170095740Y-115533600D01*
X170184260Y-115533600D01*
X170250443Y-115540119D01*
X170250443Y-115540119D01*
G37*
G36*
X167710443Y-115540119D02*
G01*
X167776627Y-115546637D01*
X167946466Y-115598157D01*
X168102991Y-115681822D01*
X168138729Y-115711152D01*
X168240186Y-115794414D01*
X168323448Y-115895871D01*
X168352778Y-115931609D01*
X168436443Y-116088134D01*
X168487963Y-116257973D01*
X168505359Y-116434600D01*
X168487963Y-116611227D01*
X168436443Y-116781066D01*
X168352778Y-116937591D01*
X168323448Y-116973329D01*
X168240186Y-117074786D01*
X168138729Y-117158048D01*
X168102991Y-117187378D01*
X167946466Y-117271043D01*
X167776627Y-117322563D01*
X167710442Y-117329082D01*
X167644260Y-117335600D01*
X167555740Y-117335600D01*
X167489558Y-117329082D01*
X167423373Y-117322563D01*
X167253534Y-117271043D01*
X167097009Y-117187378D01*
X167061271Y-117158048D01*
X166959814Y-117074786D01*
X166876552Y-116973329D01*
X166847222Y-116937591D01*
X166763557Y-116781066D01*
X166712037Y-116611227D01*
X166694641Y-116434600D01*
X166712037Y-116257973D01*
X166763557Y-116088134D01*
X166847222Y-115931609D01*
X166876552Y-115895871D01*
X166959814Y-115794414D01*
X167061271Y-115711152D01*
X167097009Y-115681822D01*
X167253534Y-115598157D01*
X167423373Y-115546637D01*
X167489557Y-115540119D01*
X167555740Y-115533600D01*
X167644260Y-115533600D01*
X167710443Y-115540119D01*
X167710443Y-115540119D01*
G37*
G36*
X150721000Y-117335600D02*
G01*
X148919000Y-117335600D01*
X148919000Y-115533600D01*
X150721000Y-115533600D01*
X150721000Y-117335600D01*
X150721000Y-117335600D01*
G37*
G36*
X165170443Y-115540119D02*
G01*
X165236627Y-115546637D01*
X165406466Y-115598157D01*
X165562991Y-115681822D01*
X165598729Y-115711152D01*
X165700186Y-115794414D01*
X165783448Y-115895871D01*
X165812778Y-115931609D01*
X165896443Y-116088134D01*
X165947963Y-116257973D01*
X165965359Y-116434600D01*
X165947963Y-116611227D01*
X165896443Y-116781066D01*
X165812778Y-116937591D01*
X165783448Y-116973329D01*
X165700186Y-117074786D01*
X165598729Y-117158048D01*
X165562991Y-117187378D01*
X165406466Y-117271043D01*
X165236627Y-117322563D01*
X165170442Y-117329082D01*
X165104260Y-117335600D01*
X165015740Y-117335600D01*
X164949558Y-117329082D01*
X164883373Y-117322563D01*
X164713534Y-117271043D01*
X164557009Y-117187378D01*
X164521271Y-117158048D01*
X164419814Y-117074786D01*
X164336552Y-116973329D01*
X164307222Y-116937591D01*
X164223557Y-116781066D01*
X164172037Y-116611227D01*
X164154641Y-116434600D01*
X164172037Y-116257973D01*
X164223557Y-116088134D01*
X164307222Y-115931609D01*
X164336552Y-115895871D01*
X164419814Y-115794414D01*
X164521271Y-115711152D01*
X164557009Y-115681822D01*
X164713534Y-115598157D01*
X164883373Y-115546637D01*
X164949557Y-115540119D01*
X165015740Y-115533600D01*
X165104260Y-115533600D01*
X165170443Y-115540119D01*
X165170443Y-115540119D01*
G37*
G36*
X152470443Y-115540119D02*
G01*
X152536627Y-115546637D01*
X152706466Y-115598157D01*
X152862991Y-115681822D01*
X152898729Y-115711152D01*
X153000186Y-115794414D01*
X153083448Y-115895871D01*
X153112778Y-115931609D01*
X153196443Y-116088134D01*
X153247963Y-116257973D01*
X153265359Y-116434600D01*
X153247963Y-116611227D01*
X153196443Y-116781066D01*
X153112778Y-116937591D01*
X153083448Y-116973329D01*
X153000186Y-117074786D01*
X152898729Y-117158048D01*
X152862991Y-117187378D01*
X152706466Y-117271043D01*
X152536627Y-117322563D01*
X152470442Y-117329082D01*
X152404260Y-117335600D01*
X152315740Y-117335600D01*
X152249558Y-117329082D01*
X152183373Y-117322563D01*
X152013534Y-117271043D01*
X151857009Y-117187378D01*
X151821271Y-117158048D01*
X151719814Y-117074786D01*
X151636552Y-116973329D01*
X151607222Y-116937591D01*
X151523557Y-116781066D01*
X151472037Y-116611227D01*
X151454641Y-116434600D01*
X151472037Y-116257973D01*
X151523557Y-116088134D01*
X151607222Y-115931609D01*
X151636552Y-115895871D01*
X151719814Y-115794414D01*
X151821271Y-115711152D01*
X151857009Y-115681822D01*
X152013534Y-115598157D01*
X152183373Y-115546637D01*
X152249557Y-115540119D01*
X152315740Y-115533600D01*
X152404260Y-115533600D01*
X152470443Y-115540119D01*
X152470443Y-115540119D01*
G37*
G36*
X155010443Y-115540119D02*
G01*
X155076627Y-115546637D01*
X155246466Y-115598157D01*
X155402991Y-115681822D01*
X155438729Y-115711152D01*
X155540186Y-115794414D01*
X155623448Y-115895871D01*
X155652778Y-115931609D01*
X155736443Y-116088134D01*
X155787963Y-116257973D01*
X155805359Y-116434600D01*
X155787963Y-116611227D01*
X155736443Y-116781066D01*
X155652778Y-116937591D01*
X155623448Y-116973329D01*
X155540186Y-117074786D01*
X155438729Y-117158048D01*
X155402991Y-117187378D01*
X155246466Y-117271043D01*
X155076627Y-117322563D01*
X155010442Y-117329082D01*
X154944260Y-117335600D01*
X154855740Y-117335600D01*
X154789558Y-117329082D01*
X154723373Y-117322563D01*
X154553534Y-117271043D01*
X154397009Y-117187378D01*
X154361271Y-117158048D01*
X154259814Y-117074786D01*
X154176552Y-116973329D01*
X154147222Y-116937591D01*
X154063557Y-116781066D01*
X154012037Y-116611227D01*
X153994641Y-116434600D01*
X154012037Y-116257973D01*
X154063557Y-116088134D01*
X154147222Y-115931609D01*
X154176552Y-115895871D01*
X154259814Y-115794414D01*
X154361271Y-115711152D01*
X154397009Y-115681822D01*
X154553534Y-115598157D01*
X154723373Y-115546637D01*
X154789557Y-115540119D01*
X154855740Y-115533600D01*
X154944260Y-115533600D01*
X155010443Y-115540119D01*
X155010443Y-115540119D01*
G37*
G36*
X157550443Y-115540119D02*
G01*
X157616627Y-115546637D01*
X157786466Y-115598157D01*
X157942991Y-115681822D01*
X157978729Y-115711152D01*
X158080186Y-115794414D01*
X158163448Y-115895871D01*
X158192778Y-115931609D01*
X158276443Y-116088134D01*
X158327963Y-116257973D01*
X158345359Y-116434600D01*
X158327963Y-116611227D01*
X158276443Y-116781066D01*
X158192778Y-116937591D01*
X158163448Y-116973329D01*
X158080186Y-117074786D01*
X157978729Y-117158048D01*
X157942991Y-117187378D01*
X157786466Y-117271043D01*
X157616627Y-117322563D01*
X157550442Y-117329082D01*
X157484260Y-117335600D01*
X157395740Y-117335600D01*
X157329558Y-117329082D01*
X157263373Y-117322563D01*
X157093534Y-117271043D01*
X156937009Y-117187378D01*
X156901271Y-117158048D01*
X156799814Y-117074786D01*
X156716552Y-116973329D01*
X156687222Y-116937591D01*
X156603557Y-116781066D01*
X156552037Y-116611227D01*
X156534641Y-116434600D01*
X156552037Y-116257973D01*
X156603557Y-116088134D01*
X156687222Y-115931609D01*
X156716552Y-115895871D01*
X156799814Y-115794414D01*
X156901271Y-115711152D01*
X156937009Y-115681822D01*
X157093534Y-115598157D01*
X157263373Y-115546637D01*
X157329557Y-115540119D01*
X157395740Y-115533600D01*
X157484260Y-115533600D01*
X157550443Y-115540119D01*
X157550443Y-115540119D01*
G37*
G36*
X162630443Y-115540119D02*
G01*
X162696627Y-115546637D01*
X162866466Y-115598157D01*
X163022991Y-115681822D01*
X163058729Y-115711152D01*
X163160186Y-115794414D01*
X163243448Y-115895871D01*
X163272778Y-115931609D01*
X163356443Y-116088134D01*
X163407963Y-116257973D01*
X163425359Y-116434600D01*
X163407963Y-116611227D01*
X163356443Y-116781066D01*
X163272778Y-116937591D01*
X163243448Y-116973329D01*
X163160186Y-117074786D01*
X163058729Y-117158048D01*
X163022991Y-117187378D01*
X162866466Y-117271043D01*
X162696627Y-117322563D01*
X162630442Y-117329082D01*
X162564260Y-117335600D01*
X162475740Y-117335600D01*
X162409558Y-117329082D01*
X162343373Y-117322563D01*
X162173534Y-117271043D01*
X162017009Y-117187378D01*
X161981271Y-117158048D01*
X161879814Y-117074786D01*
X161796552Y-116973329D01*
X161767222Y-116937591D01*
X161683557Y-116781066D01*
X161632037Y-116611227D01*
X161614641Y-116434600D01*
X161632037Y-116257973D01*
X161683557Y-116088134D01*
X161767222Y-115931609D01*
X161796552Y-115895871D01*
X161879814Y-115794414D01*
X161981271Y-115711152D01*
X162017009Y-115681822D01*
X162173534Y-115598157D01*
X162343373Y-115546637D01*
X162409557Y-115540119D01*
X162475740Y-115533600D01*
X162564260Y-115533600D01*
X162630443Y-115540119D01*
X162630443Y-115540119D01*
G37*
G36*
X118326823Y-115595913D02*
G01*
X118487242Y-115644576D01*
X118539972Y-115672761D01*
X118635078Y-115723596D01*
X118764659Y-115829941D01*
X118871004Y-115959522D01*
X118871005Y-115959524D01*
X118950024Y-116107358D01*
X118998687Y-116267777D01*
X119015117Y-116434600D01*
X118998687Y-116601423D01*
X118950024Y-116761842D01*
X118908950Y-116838686D01*
X118871004Y-116909678D01*
X118764659Y-117039259D01*
X118635078Y-117145604D01*
X118635076Y-117145605D01*
X118487242Y-117224624D01*
X118326823Y-117273287D01*
X118201804Y-117285600D01*
X118118196Y-117285600D01*
X117993177Y-117273287D01*
X117832758Y-117224624D01*
X117684924Y-117145605D01*
X117684922Y-117145604D01*
X117555341Y-117039259D01*
X117448996Y-116909678D01*
X117411050Y-116838686D01*
X117369976Y-116761842D01*
X117321313Y-116601423D01*
X117304883Y-116434600D01*
X117321313Y-116267777D01*
X117369976Y-116107358D01*
X117448995Y-115959524D01*
X117448996Y-115959522D01*
X117555341Y-115829941D01*
X117684922Y-115723596D01*
X117780028Y-115672761D01*
X117832758Y-115644576D01*
X117993177Y-115595913D01*
X118118196Y-115583600D01*
X118201804Y-115583600D01*
X118326823Y-115595913D01*
X118326823Y-115595913D01*
G37*
G36*
X115786823Y-115595913D02*
G01*
X115947242Y-115644576D01*
X115999972Y-115672761D01*
X116095078Y-115723596D01*
X116224659Y-115829941D01*
X116331004Y-115959522D01*
X116331005Y-115959524D01*
X116410024Y-116107358D01*
X116458687Y-116267777D01*
X116475117Y-116434600D01*
X116458687Y-116601423D01*
X116410024Y-116761842D01*
X116368950Y-116838686D01*
X116331004Y-116909678D01*
X116224659Y-117039259D01*
X116095078Y-117145604D01*
X116095076Y-117145605D01*
X115947242Y-117224624D01*
X115786823Y-117273287D01*
X115661804Y-117285600D01*
X115578196Y-117285600D01*
X115453177Y-117273287D01*
X115292758Y-117224624D01*
X115144924Y-117145605D01*
X115144922Y-117145604D01*
X115015341Y-117039259D01*
X114908996Y-116909678D01*
X114871050Y-116838686D01*
X114829976Y-116761842D01*
X114781313Y-116601423D01*
X114764883Y-116434600D01*
X114781313Y-116267777D01*
X114829976Y-116107358D01*
X114908995Y-115959524D01*
X114908996Y-115959522D01*
X115015341Y-115829941D01*
X115144922Y-115723596D01*
X115240028Y-115672761D01*
X115292758Y-115644576D01*
X115453177Y-115595913D01*
X115578196Y-115583600D01*
X115661804Y-115583600D01*
X115786823Y-115595913D01*
X115786823Y-115595913D01*
G37*
G36*
X113246823Y-115595913D02*
G01*
X113407242Y-115644576D01*
X113459972Y-115672761D01*
X113555078Y-115723596D01*
X113684659Y-115829941D01*
X113791004Y-115959522D01*
X113791005Y-115959524D01*
X113870024Y-116107358D01*
X113918687Y-116267777D01*
X113935117Y-116434600D01*
X113918687Y-116601423D01*
X113870024Y-116761842D01*
X113828950Y-116838686D01*
X113791004Y-116909678D01*
X113684659Y-117039259D01*
X113555078Y-117145604D01*
X113555076Y-117145605D01*
X113407242Y-117224624D01*
X113246823Y-117273287D01*
X113121804Y-117285600D01*
X113038196Y-117285600D01*
X112913177Y-117273287D01*
X112752758Y-117224624D01*
X112604924Y-117145605D01*
X112604922Y-117145604D01*
X112475341Y-117039259D01*
X112368996Y-116909678D01*
X112331050Y-116838686D01*
X112289976Y-116761842D01*
X112241313Y-116601423D01*
X112224883Y-116434600D01*
X112241313Y-116267777D01*
X112289976Y-116107358D01*
X112368995Y-115959524D01*
X112368996Y-115959522D01*
X112475341Y-115829941D01*
X112604922Y-115723596D01*
X112700028Y-115672761D01*
X112752758Y-115644576D01*
X112913177Y-115595913D01*
X113038196Y-115583600D01*
X113121804Y-115583600D01*
X113246823Y-115595913D01*
X113246823Y-115595913D01*
G37*
G36*
X110706823Y-115595913D02*
G01*
X110867242Y-115644576D01*
X110919972Y-115672761D01*
X111015078Y-115723596D01*
X111144659Y-115829941D01*
X111251004Y-115959522D01*
X111251005Y-115959524D01*
X111330024Y-116107358D01*
X111378687Y-116267777D01*
X111395117Y-116434600D01*
X111378687Y-116601423D01*
X111330024Y-116761842D01*
X111288950Y-116838686D01*
X111251004Y-116909678D01*
X111144659Y-117039259D01*
X111015078Y-117145604D01*
X111015076Y-117145605D01*
X110867242Y-117224624D01*
X110706823Y-117273287D01*
X110581804Y-117285600D01*
X110498196Y-117285600D01*
X110373177Y-117273287D01*
X110212758Y-117224624D01*
X110064924Y-117145605D01*
X110064922Y-117145604D01*
X109935341Y-117039259D01*
X109828996Y-116909678D01*
X109791050Y-116838686D01*
X109749976Y-116761842D01*
X109701313Y-116601423D01*
X109684883Y-116434600D01*
X109701313Y-116267777D01*
X109749976Y-116107358D01*
X109828995Y-115959524D01*
X109828996Y-115959522D01*
X109935341Y-115829941D01*
X110064922Y-115723596D01*
X110160028Y-115672761D01*
X110212758Y-115644576D01*
X110373177Y-115595913D01*
X110498196Y-115583600D01*
X110581804Y-115583600D01*
X110706823Y-115595913D01*
X110706823Y-115595913D01*
G37*
G36*
X108166823Y-115595913D02*
G01*
X108327242Y-115644576D01*
X108379972Y-115672761D01*
X108475078Y-115723596D01*
X108604659Y-115829941D01*
X108711004Y-115959522D01*
X108711005Y-115959524D01*
X108790024Y-116107358D01*
X108838687Y-116267777D01*
X108855117Y-116434600D01*
X108838687Y-116601423D01*
X108790024Y-116761842D01*
X108748950Y-116838686D01*
X108711004Y-116909678D01*
X108604659Y-117039259D01*
X108475078Y-117145604D01*
X108475076Y-117145605D01*
X108327242Y-117224624D01*
X108166823Y-117273287D01*
X108041804Y-117285600D01*
X107958196Y-117285600D01*
X107833177Y-117273287D01*
X107672758Y-117224624D01*
X107524924Y-117145605D01*
X107524922Y-117145604D01*
X107395341Y-117039259D01*
X107288996Y-116909678D01*
X107251050Y-116838686D01*
X107209976Y-116761842D01*
X107161313Y-116601423D01*
X107144883Y-116434600D01*
X107161313Y-116267777D01*
X107209976Y-116107358D01*
X107288995Y-115959524D01*
X107288996Y-115959522D01*
X107395341Y-115829941D01*
X107524922Y-115723596D01*
X107620028Y-115672761D01*
X107672758Y-115644576D01*
X107833177Y-115595913D01*
X107958196Y-115583600D01*
X108041804Y-115583600D01*
X108166823Y-115595913D01*
X108166823Y-115595913D01*
G37*
G36*
X120866823Y-115595913D02*
G01*
X121027242Y-115644576D01*
X121079972Y-115672761D01*
X121175078Y-115723596D01*
X121304659Y-115829941D01*
X121411004Y-115959522D01*
X121411005Y-115959524D01*
X121490024Y-116107358D01*
X121538687Y-116267777D01*
X121555117Y-116434600D01*
X121538687Y-116601423D01*
X121490024Y-116761842D01*
X121448950Y-116838686D01*
X121411004Y-116909678D01*
X121304659Y-117039259D01*
X121175078Y-117145604D01*
X121175076Y-117145605D01*
X121027242Y-117224624D01*
X120866823Y-117273287D01*
X120741804Y-117285600D01*
X120658196Y-117285600D01*
X120533177Y-117273287D01*
X120372758Y-117224624D01*
X120224924Y-117145605D01*
X120224922Y-117145604D01*
X120095341Y-117039259D01*
X119988996Y-116909678D01*
X119951050Y-116838686D01*
X119909976Y-116761842D01*
X119861313Y-116601423D01*
X119844883Y-116434600D01*
X119861313Y-116267777D01*
X119909976Y-116107358D01*
X119988995Y-115959524D01*
X119988996Y-115959522D01*
X120095341Y-115829941D01*
X120224922Y-115723596D01*
X120320028Y-115672761D01*
X120372758Y-115644576D01*
X120533177Y-115595913D01*
X120658196Y-115583600D01*
X120741804Y-115583600D01*
X120866823Y-115595913D01*
X120866823Y-115595913D01*
G37*
G36*
X133566823Y-115595913D02*
G01*
X133727242Y-115644576D01*
X133779972Y-115672761D01*
X133875078Y-115723596D01*
X134004659Y-115829941D01*
X134111004Y-115959522D01*
X134111005Y-115959524D01*
X134190024Y-116107358D01*
X134238687Y-116267777D01*
X134255117Y-116434600D01*
X134238687Y-116601423D01*
X134190024Y-116761842D01*
X134148950Y-116838686D01*
X134111004Y-116909678D01*
X134004659Y-117039259D01*
X133875078Y-117145604D01*
X133875076Y-117145605D01*
X133727242Y-117224624D01*
X133566823Y-117273287D01*
X133441804Y-117285600D01*
X133358196Y-117285600D01*
X133233177Y-117273287D01*
X133072758Y-117224624D01*
X132924924Y-117145605D01*
X132924922Y-117145604D01*
X132795341Y-117039259D01*
X132688996Y-116909678D01*
X132651050Y-116838686D01*
X132609976Y-116761842D01*
X132561313Y-116601423D01*
X132544883Y-116434600D01*
X132561313Y-116267777D01*
X132609976Y-116107358D01*
X132688995Y-115959524D01*
X132688996Y-115959522D01*
X132795341Y-115829941D01*
X132924922Y-115723596D01*
X133020028Y-115672761D01*
X133072758Y-115644576D01*
X133233177Y-115595913D01*
X133358196Y-115583600D01*
X133441804Y-115583600D01*
X133566823Y-115595913D01*
X133566823Y-115595913D01*
G37*
G36*
X136106823Y-115595913D02*
G01*
X136267242Y-115644576D01*
X136319972Y-115672761D01*
X136415078Y-115723596D01*
X136544659Y-115829941D01*
X136651004Y-115959522D01*
X136651005Y-115959524D01*
X136730024Y-116107358D01*
X136778687Y-116267777D01*
X136795117Y-116434600D01*
X136778687Y-116601423D01*
X136730024Y-116761842D01*
X136688950Y-116838686D01*
X136651004Y-116909678D01*
X136544659Y-117039259D01*
X136415078Y-117145604D01*
X136415076Y-117145605D01*
X136267242Y-117224624D01*
X136106823Y-117273287D01*
X135981804Y-117285600D01*
X135898196Y-117285600D01*
X135773177Y-117273287D01*
X135612758Y-117224624D01*
X135464924Y-117145605D01*
X135464922Y-117145604D01*
X135335341Y-117039259D01*
X135228996Y-116909678D01*
X135191050Y-116838686D01*
X135149976Y-116761842D01*
X135101313Y-116601423D01*
X135084883Y-116434600D01*
X135101313Y-116267777D01*
X135149976Y-116107358D01*
X135228995Y-115959524D01*
X135228996Y-115959522D01*
X135335341Y-115829941D01*
X135464922Y-115723596D01*
X135560028Y-115672761D01*
X135612758Y-115644576D01*
X135773177Y-115595913D01*
X135898196Y-115583600D01*
X135981804Y-115583600D01*
X136106823Y-115595913D01*
X136106823Y-115595913D01*
G37*
G36*
X123406823Y-115595913D02*
G01*
X123567242Y-115644576D01*
X123619972Y-115672761D01*
X123715078Y-115723596D01*
X123844659Y-115829941D01*
X123951004Y-115959522D01*
X123951005Y-115959524D01*
X124030024Y-116107358D01*
X124078687Y-116267777D01*
X124095117Y-116434600D01*
X124078687Y-116601423D01*
X124030024Y-116761842D01*
X123988950Y-116838686D01*
X123951004Y-116909678D01*
X123844659Y-117039259D01*
X123715078Y-117145604D01*
X123715076Y-117145605D01*
X123567242Y-117224624D01*
X123406823Y-117273287D01*
X123281804Y-117285600D01*
X123198196Y-117285600D01*
X123073177Y-117273287D01*
X122912758Y-117224624D01*
X122764924Y-117145605D01*
X122764922Y-117145604D01*
X122635341Y-117039259D01*
X122528996Y-116909678D01*
X122491050Y-116838686D01*
X122449976Y-116761842D01*
X122401313Y-116601423D01*
X122384883Y-116434600D01*
X122401313Y-116267777D01*
X122449976Y-116107358D01*
X122528995Y-115959524D01*
X122528996Y-115959522D01*
X122635341Y-115829941D01*
X122764922Y-115723596D01*
X122860028Y-115672761D01*
X122912758Y-115644576D01*
X123073177Y-115595913D01*
X123198196Y-115583600D01*
X123281804Y-115583600D01*
X123406823Y-115595913D01*
X123406823Y-115595913D01*
G37*
G36*
X128486823Y-115595913D02*
G01*
X128647242Y-115644576D01*
X128699972Y-115672761D01*
X128795078Y-115723596D01*
X128924659Y-115829941D01*
X129031004Y-115959522D01*
X129031005Y-115959524D01*
X129110024Y-116107358D01*
X129158687Y-116267777D01*
X129175117Y-116434600D01*
X129158687Y-116601423D01*
X129110024Y-116761842D01*
X129068950Y-116838686D01*
X129031004Y-116909678D01*
X128924659Y-117039259D01*
X128795078Y-117145604D01*
X128795076Y-117145605D01*
X128647242Y-117224624D01*
X128486823Y-117273287D01*
X128361804Y-117285600D01*
X128278196Y-117285600D01*
X128153177Y-117273287D01*
X127992758Y-117224624D01*
X127844924Y-117145605D01*
X127844922Y-117145604D01*
X127715341Y-117039259D01*
X127608996Y-116909678D01*
X127571050Y-116838686D01*
X127529976Y-116761842D01*
X127481313Y-116601423D01*
X127464883Y-116434600D01*
X127481313Y-116267777D01*
X127529976Y-116107358D01*
X127608995Y-115959524D01*
X127608996Y-115959522D01*
X127715341Y-115829941D01*
X127844922Y-115723596D01*
X127940028Y-115672761D01*
X127992758Y-115644576D01*
X128153177Y-115595913D01*
X128278196Y-115583600D01*
X128361804Y-115583600D01*
X128486823Y-115595913D01*
X128486823Y-115595913D01*
G37*
G36*
X131026823Y-115595913D02*
G01*
X131187242Y-115644576D01*
X131239972Y-115672761D01*
X131335078Y-115723596D01*
X131464659Y-115829941D01*
X131571004Y-115959522D01*
X131571005Y-115959524D01*
X131650024Y-116107358D01*
X131698687Y-116267777D01*
X131715117Y-116434600D01*
X131698687Y-116601423D01*
X131650024Y-116761842D01*
X131608950Y-116838686D01*
X131571004Y-116909678D01*
X131464659Y-117039259D01*
X131335078Y-117145604D01*
X131335076Y-117145605D01*
X131187242Y-117224624D01*
X131026823Y-117273287D01*
X130901804Y-117285600D01*
X130818196Y-117285600D01*
X130693177Y-117273287D01*
X130532758Y-117224624D01*
X130384924Y-117145605D01*
X130384922Y-117145604D01*
X130255341Y-117039259D01*
X130148996Y-116909678D01*
X130111050Y-116838686D01*
X130069976Y-116761842D01*
X130021313Y-116601423D01*
X130004883Y-116434600D01*
X130021313Y-116267777D01*
X130069976Y-116107358D01*
X130148995Y-115959524D01*
X130148996Y-115959522D01*
X130255341Y-115829941D01*
X130384922Y-115723596D01*
X130480028Y-115672761D01*
X130532758Y-115644576D01*
X130693177Y-115595913D01*
X130818196Y-115583600D01*
X130901804Y-115583600D01*
X131026823Y-115595913D01*
X131026823Y-115595913D01*
G37*
G36*
X125946823Y-115595913D02*
G01*
X126107242Y-115644576D01*
X126159972Y-115672761D01*
X126255078Y-115723596D01*
X126384659Y-115829941D01*
X126491004Y-115959522D01*
X126491005Y-115959524D01*
X126570024Y-116107358D01*
X126618687Y-116267777D01*
X126635117Y-116434600D01*
X126618687Y-116601423D01*
X126570024Y-116761842D01*
X126528950Y-116838686D01*
X126491004Y-116909678D01*
X126384659Y-117039259D01*
X126255078Y-117145604D01*
X126255076Y-117145605D01*
X126107242Y-117224624D01*
X125946823Y-117273287D01*
X125821804Y-117285600D01*
X125738196Y-117285600D01*
X125613177Y-117273287D01*
X125452758Y-117224624D01*
X125304924Y-117145605D01*
X125304922Y-117145604D01*
X125175341Y-117039259D01*
X125068996Y-116909678D01*
X125031050Y-116838686D01*
X124989976Y-116761842D01*
X124941313Y-116601423D01*
X124924883Y-116434600D01*
X124941313Y-116267777D01*
X124989976Y-116107358D01*
X125068995Y-115959524D01*
X125068996Y-115959522D01*
X125175341Y-115829941D01*
X125304922Y-115723596D01*
X125400028Y-115672761D01*
X125452758Y-115644576D01*
X125613177Y-115595913D01*
X125738196Y-115583600D01*
X125821804Y-115583600D01*
X125946823Y-115595913D01*
X125946823Y-115595913D01*
G37*
G36*
X203286823Y-115161313D02*
G01*
X203447242Y-115209976D01*
X203579906Y-115280886D01*
X203595078Y-115288996D01*
X203724659Y-115395341D01*
X203831004Y-115524922D01*
X203831005Y-115524924D01*
X203910024Y-115672758D01*
X203958687Y-115833177D01*
X203975117Y-116000000D01*
X203958687Y-116166823D01*
X203910024Y-116327242D01*
X203852640Y-116434600D01*
X203831004Y-116475078D01*
X203724659Y-116604659D01*
X203595078Y-116711004D01*
X203595076Y-116711005D01*
X203447242Y-116790024D01*
X203286823Y-116838687D01*
X203161804Y-116851000D01*
X203078196Y-116851000D01*
X202953177Y-116838687D01*
X202792758Y-116790024D01*
X202644924Y-116711005D01*
X202644922Y-116711004D01*
X202515341Y-116604659D01*
X202408996Y-116475078D01*
X202387360Y-116434600D01*
X202329976Y-116327242D01*
X202281313Y-116166823D01*
X202264883Y-116000000D01*
X202281313Y-115833177D01*
X202329976Y-115672758D01*
X202408995Y-115524924D01*
X202408996Y-115524922D01*
X202515341Y-115395341D01*
X202644922Y-115288996D01*
X202660094Y-115280886D01*
X202792758Y-115209976D01*
X202953177Y-115161313D01*
X203078196Y-115149000D01*
X203161804Y-115149000D01*
X203286823Y-115161313D01*
X203286823Y-115161313D01*
G37*
G36*
X193126823Y-115161313D02*
G01*
X193287242Y-115209976D01*
X193419906Y-115280886D01*
X193435078Y-115288996D01*
X193564659Y-115395341D01*
X193671004Y-115524922D01*
X193671005Y-115524924D01*
X193750024Y-115672758D01*
X193798687Y-115833177D01*
X193815117Y-116000000D01*
X193798687Y-116166823D01*
X193750024Y-116327242D01*
X193692640Y-116434600D01*
X193671004Y-116475078D01*
X193564659Y-116604659D01*
X193435078Y-116711004D01*
X193435076Y-116711005D01*
X193287242Y-116790024D01*
X193126823Y-116838687D01*
X193001804Y-116851000D01*
X192918196Y-116851000D01*
X192793177Y-116838687D01*
X192632758Y-116790024D01*
X192484924Y-116711005D01*
X192484922Y-116711004D01*
X192355341Y-116604659D01*
X192248996Y-116475078D01*
X192227360Y-116434600D01*
X192169976Y-116327242D01*
X192121313Y-116166823D01*
X192104883Y-116000000D01*
X192121313Y-115833177D01*
X192169976Y-115672758D01*
X192248995Y-115524924D01*
X192248996Y-115524922D01*
X192355341Y-115395341D01*
X192484922Y-115288996D01*
X192500094Y-115280886D01*
X192632758Y-115209976D01*
X192793177Y-115161313D01*
X192918196Y-115149000D01*
X193001804Y-115149000D01*
X193126823Y-115161313D01*
X193126823Y-115161313D01*
G37*
G36*
X191271000Y-116851000D02*
G01*
X189569000Y-116851000D01*
X189569000Y-115149000D01*
X191271000Y-115149000D01*
X191271000Y-116851000D01*
X191271000Y-116851000D01*
G37*
G36*
X195666823Y-115161313D02*
G01*
X195827242Y-115209976D01*
X195959906Y-115280886D01*
X195975078Y-115288996D01*
X196104659Y-115395341D01*
X196211004Y-115524922D01*
X196211005Y-115524924D01*
X196290024Y-115672758D01*
X196338687Y-115833177D01*
X196355117Y-116000000D01*
X196338687Y-116166823D01*
X196290024Y-116327242D01*
X196232640Y-116434600D01*
X196211004Y-116475078D01*
X196104659Y-116604659D01*
X195975078Y-116711004D01*
X195975076Y-116711005D01*
X195827242Y-116790024D01*
X195666823Y-116838687D01*
X195541804Y-116851000D01*
X195458196Y-116851000D01*
X195333177Y-116838687D01*
X195172758Y-116790024D01*
X195024924Y-116711005D01*
X195024922Y-116711004D01*
X194895341Y-116604659D01*
X194788996Y-116475078D01*
X194767360Y-116434600D01*
X194709976Y-116327242D01*
X194661313Y-116166823D01*
X194644883Y-116000000D01*
X194661313Y-115833177D01*
X194709976Y-115672758D01*
X194788995Y-115524924D01*
X194788996Y-115524922D01*
X194895341Y-115395341D01*
X195024922Y-115288996D01*
X195040094Y-115280886D01*
X195172758Y-115209976D01*
X195333177Y-115161313D01*
X195458196Y-115149000D01*
X195541804Y-115149000D01*
X195666823Y-115161313D01*
X195666823Y-115161313D01*
G37*
G36*
X198206823Y-115161313D02*
G01*
X198367242Y-115209976D01*
X198499906Y-115280886D01*
X198515078Y-115288996D01*
X198644659Y-115395341D01*
X198751004Y-115524922D01*
X198751005Y-115524924D01*
X198830024Y-115672758D01*
X198878687Y-115833177D01*
X198895117Y-116000000D01*
X198878687Y-116166823D01*
X198830024Y-116327242D01*
X198772640Y-116434600D01*
X198751004Y-116475078D01*
X198644659Y-116604659D01*
X198515078Y-116711004D01*
X198515076Y-116711005D01*
X198367242Y-116790024D01*
X198206823Y-116838687D01*
X198081804Y-116851000D01*
X197998196Y-116851000D01*
X197873177Y-116838687D01*
X197712758Y-116790024D01*
X197564924Y-116711005D01*
X197564922Y-116711004D01*
X197435341Y-116604659D01*
X197328996Y-116475078D01*
X197307360Y-116434600D01*
X197249976Y-116327242D01*
X197201313Y-116166823D01*
X197184883Y-116000000D01*
X197201313Y-115833177D01*
X197249976Y-115672758D01*
X197328995Y-115524924D01*
X197328996Y-115524922D01*
X197435341Y-115395341D01*
X197564922Y-115288996D01*
X197580094Y-115280886D01*
X197712758Y-115209976D01*
X197873177Y-115161313D01*
X197998196Y-115149000D01*
X198081804Y-115149000D01*
X198206823Y-115161313D01*
X198206823Y-115161313D01*
G37*
G36*
X200746823Y-115161313D02*
G01*
X200907242Y-115209976D01*
X201039906Y-115280886D01*
X201055078Y-115288996D01*
X201184659Y-115395341D01*
X201291004Y-115524922D01*
X201291005Y-115524924D01*
X201370024Y-115672758D01*
X201418687Y-115833177D01*
X201435117Y-116000000D01*
X201418687Y-116166823D01*
X201370024Y-116327242D01*
X201312640Y-116434600D01*
X201291004Y-116475078D01*
X201184659Y-116604659D01*
X201055078Y-116711004D01*
X201055076Y-116711005D01*
X200907242Y-116790024D01*
X200746823Y-116838687D01*
X200621804Y-116851000D01*
X200538196Y-116851000D01*
X200413177Y-116838687D01*
X200252758Y-116790024D01*
X200104924Y-116711005D01*
X200104922Y-116711004D01*
X199975341Y-116604659D01*
X199868996Y-116475078D01*
X199847360Y-116434600D01*
X199789976Y-116327242D01*
X199741313Y-116166823D01*
X199724883Y-116000000D01*
X199741313Y-115833177D01*
X199789976Y-115672758D01*
X199868995Y-115524924D01*
X199868996Y-115524922D01*
X199975341Y-115395341D01*
X200104922Y-115288996D01*
X200120094Y-115280886D01*
X200252758Y-115209976D01*
X200413177Y-115161313D01*
X200538196Y-115149000D01*
X200621804Y-115149000D01*
X200746823Y-115161313D01*
X200746823Y-115161313D01*
G37*
G36*
X205826823Y-115161313D02*
G01*
X205987242Y-115209976D01*
X206119906Y-115280886D01*
X206135078Y-115288996D01*
X206264659Y-115395341D01*
X206371004Y-115524922D01*
X206371005Y-115524924D01*
X206450024Y-115672758D01*
X206498687Y-115833177D01*
X206515117Y-116000000D01*
X206498687Y-116166823D01*
X206450024Y-116327242D01*
X206392640Y-116434600D01*
X206371004Y-116475078D01*
X206264659Y-116604659D01*
X206135078Y-116711004D01*
X206135076Y-116711005D01*
X205987242Y-116790024D01*
X205826823Y-116838687D01*
X205701804Y-116851000D01*
X205618196Y-116851000D01*
X205493177Y-116838687D01*
X205332758Y-116790024D01*
X205184924Y-116711005D01*
X205184922Y-116711004D01*
X205055341Y-116604659D01*
X204948996Y-116475078D01*
X204927360Y-116434600D01*
X204869976Y-116327242D01*
X204821313Y-116166823D01*
X204804883Y-116000000D01*
X204821313Y-115833177D01*
X204869976Y-115672758D01*
X204948995Y-115524924D01*
X204948996Y-115524922D01*
X205055341Y-115395341D01*
X205184922Y-115288996D01*
X205200094Y-115280886D01*
X205332758Y-115209976D01*
X205493177Y-115161313D01*
X205618196Y-115149000D01*
X205701804Y-115149000D01*
X205826823Y-115161313D01*
X205826823Y-115161313D01*
G37*
G36*
X208366823Y-115161313D02*
G01*
X208527242Y-115209976D01*
X208659906Y-115280886D01*
X208675078Y-115288996D01*
X208804659Y-115395341D01*
X208911004Y-115524922D01*
X208911005Y-115524924D01*
X208990024Y-115672758D01*
X209038687Y-115833177D01*
X209055117Y-116000000D01*
X209038687Y-116166823D01*
X208990024Y-116327242D01*
X208932640Y-116434600D01*
X208911004Y-116475078D01*
X208804659Y-116604659D01*
X208675078Y-116711004D01*
X208675076Y-116711005D01*
X208527242Y-116790024D01*
X208366823Y-116838687D01*
X208241804Y-116851000D01*
X208158196Y-116851000D01*
X208033177Y-116838687D01*
X207872758Y-116790024D01*
X207724924Y-116711005D01*
X207724922Y-116711004D01*
X207595341Y-116604659D01*
X207488996Y-116475078D01*
X207467360Y-116434600D01*
X207409976Y-116327242D01*
X207361313Y-116166823D01*
X207344883Y-116000000D01*
X207361313Y-115833177D01*
X207409976Y-115672758D01*
X207488995Y-115524924D01*
X207488996Y-115524922D01*
X207595341Y-115395341D01*
X207724922Y-115288996D01*
X207740094Y-115280886D01*
X207872758Y-115209976D01*
X208033177Y-115161313D01*
X208158196Y-115149000D01*
X208241804Y-115149000D01*
X208366823Y-115161313D01*
X208366823Y-115161313D01*
G37*
G36*
X210906823Y-115161313D02*
G01*
X211067242Y-115209976D01*
X211199906Y-115280886D01*
X211215078Y-115288996D01*
X211344659Y-115395341D01*
X211451004Y-115524922D01*
X211451005Y-115524924D01*
X211530024Y-115672758D01*
X211578687Y-115833177D01*
X211595117Y-116000000D01*
X211578687Y-116166823D01*
X211530024Y-116327242D01*
X211472640Y-116434600D01*
X211451004Y-116475078D01*
X211344659Y-116604659D01*
X211215078Y-116711004D01*
X211215076Y-116711005D01*
X211067242Y-116790024D01*
X210906823Y-116838687D01*
X210781804Y-116851000D01*
X210698196Y-116851000D01*
X210573177Y-116838687D01*
X210412758Y-116790024D01*
X210264924Y-116711005D01*
X210264922Y-116711004D01*
X210135341Y-116604659D01*
X210028996Y-116475078D01*
X210007360Y-116434600D01*
X209949976Y-116327242D01*
X209901313Y-116166823D01*
X209884883Y-116000000D01*
X209901313Y-115833177D01*
X209949976Y-115672758D01*
X210028995Y-115524924D01*
X210028996Y-115524922D01*
X210135341Y-115395341D01*
X210264922Y-115288996D01*
X210280094Y-115280886D01*
X210412758Y-115209976D01*
X210573177Y-115161313D01*
X210698196Y-115149000D01*
X210781804Y-115149000D01*
X210906823Y-115161313D01*
X210906823Y-115161313D01*
G37*
G36*
X213446823Y-115161313D02*
G01*
X213607242Y-115209976D01*
X213739906Y-115280886D01*
X213755078Y-115288996D01*
X213884659Y-115395341D01*
X213991004Y-115524922D01*
X213991005Y-115524924D01*
X214070024Y-115672758D01*
X214118687Y-115833177D01*
X214135117Y-116000000D01*
X214118687Y-116166823D01*
X214070024Y-116327242D01*
X214012640Y-116434600D01*
X213991004Y-116475078D01*
X213884659Y-116604659D01*
X213755078Y-116711004D01*
X213755076Y-116711005D01*
X213607242Y-116790024D01*
X213446823Y-116838687D01*
X213321804Y-116851000D01*
X213238196Y-116851000D01*
X213113177Y-116838687D01*
X212952758Y-116790024D01*
X212804924Y-116711005D01*
X212804922Y-116711004D01*
X212675341Y-116604659D01*
X212568996Y-116475078D01*
X212547360Y-116434600D01*
X212489976Y-116327242D01*
X212441313Y-116166823D01*
X212424883Y-116000000D01*
X212441313Y-115833177D01*
X212489976Y-115672758D01*
X212568995Y-115524924D01*
X212568996Y-115524922D01*
X212675341Y-115395341D01*
X212804922Y-115288996D01*
X212820094Y-115280886D01*
X212952758Y-115209976D01*
X213113177Y-115161313D01*
X213238196Y-115149000D01*
X213321804Y-115149000D01*
X213446823Y-115161313D01*
X213446823Y-115161313D01*
G37*
G36*
X208310442Y-112540118D02*
G01*
X208376627Y-112546637D01*
X208546466Y-112598157D01*
X208702991Y-112681822D01*
X208738729Y-112711152D01*
X208840186Y-112794414D01*
X208923448Y-112895871D01*
X208952778Y-112931609D01*
X209036443Y-113088134D01*
X209087963Y-113257973D01*
X209105359Y-113434600D01*
X209087963Y-113611227D01*
X209036443Y-113781066D01*
X208952778Y-113937591D01*
X208923448Y-113973329D01*
X208840186Y-114074786D01*
X208738729Y-114158048D01*
X208702991Y-114187378D01*
X208546466Y-114271043D01*
X208376627Y-114322563D01*
X208310442Y-114329082D01*
X208244260Y-114335600D01*
X208155740Y-114335600D01*
X208089558Y-114329082D01*
X208023373Y-114322563D01*
X207853534Y-114271043D01*
X207697009Y-114187378D01*
X207661271Y-114158048D01*
X207559814Y-114074786D01*
X207476552Y-113973329D01*
X207447222Y-113937591D01*
X207363557Y-113781066D01*
X207312037Y-113611227D01*
X207294641Y-113434600D01*
X207312037Y-113257973D01*
X207363557Y-113088134D01*
X207447222Y-112931609D01*
X207476552Y-112895871D01*
X207559814Y-112794414D01*
X207661271Y-112711152D01*
X207697009Y-112681822D01*
X207853534Y-112598157D01*
X208023373Y-112546637D01*
X208089558Y-112540118D01*
X208155740Y-112533600D01*
X208244260Y-112533600D01*
X208310442Y-112540118D01*
X208310442Y-112540118D01*
G37*
G36*
X191321000Y-114335600D02*
G01*
X189519000Y-114335600D01*
X189519000Y-112533600D01*
X191321000Y-112533600D01*
X191321000Y-114335600D01*
X191321000Y-114335600D01*
G37*
G36*
X193070442Y-112540118D02*
G01*
X193136627Y-112546637D01*
X193306466Y-112598157D01*
X193462991Y-112681822D01*
X193498729Y-112711152D01*
X193600186Y-112794414D01*
X193683448Y-112895871D01*
X193712778Y-112931609D01*
X193796443Y-113088134D01*
X193847963Y-113257973D01*
X193865359Y-113434600D01*
X193847963Y-113611227D01*
X193796443Y-113781066D01*
X193712778Y-113937591D01*
X193683448Y-113973329D01*
X193600186Y-114074786D01*
X193498729Y-114158048D01*
X193462991Y-114187378D01*
X193306466Y-114271043D01*
X193136627Y-114322563D01*
X193070442Y-114329082D01*
X193004260Y-114335600D01*
X192915740Y-114335600D01*
X192849558Y-114329082D01*
X192783373Y-114322563D01*
X192613534Y-114271043D01*
X192457009Y-114187378D01*
X192421271Y-114158048D01*
X192319814Y-114074786D01*
X192236552Y-113973329D01*
X192207222Y-113937591D01*
X192123557Y-113781066D01*
X192072037Y-113611227D01*
X192054641Y-113434600D01*
X192072037Y-113257973D01*
X192123557Y-113088134D01*
X192207222Y-112931609D01*
X192236552Y-112895871D01*
X192319814Y-112794414D01*
X192421271Y-112711152D01*
X192457009Y-112681822D01*
X192613534Y-112598157D01*
X192783373Y-112546637D01*
X192849558Y-112540118D01*
X192915740Y-112533600D01*
X193004260Y-112533600D01*
X193070442Y-112540118D01*
X193070442Y-112540118D01*
G37*
G36*
X198150442Y-112540118D02*
G01*
X198216627Y-112546637D01*
X198386466Y-112598157D01*
X198542991Y-112681822D01*
X198578729Y-112711152D01*
X198680186Y-112794414D01*
X198763448Y-112895871D01*
X198792778Y-112931609D01*
X198876443Y-113088134D01*
X198927963Y-113257973D01*
X198945359Y-113434600D01*
X198927963Y-113611227D01*
X198876443Y-113781066D01*
X198792778Y-113937591D01*
X198763448Y-113973329D01*
X198680186Y-114074786D01*
X198578729Y-114158048D01*
X198542991Y-114187378D01*
X198386466Y-114271043D01*
X198216627Y-114322563D01*
X198150442Y-114329082D01*
X198084260Y-114335600D01*
X197995740Y-114335600D01*
X197929558Y-114329082D01*
X197863373Y-114322563D01*
X197693534Y-114271043D01*
X197537009Y-114187378D01*
X197501271Y-114158048D01*
X197399814Y-114074786D01*
X197316552Y-113973329D01*
X197287222Y-113937591D01*
X197203557Y-113781066D01*
X197152037Y-113611227D01*
X197134641Y-113434600D01*
X197152037Y-113257973D01*
X197203557Y-113088134D01*
X197287222Y-112931609D01*
X197316552Y-112895871D01*
X197399814Y-112794414D01*
X197501271Y-112711152D01*
X197537009Y-112681822D01*
X197693534Y-112598157D01*
X197863373Y-112546637D01*
X197929558Y-112540118D01*
X197995740Y-112533600D01*
X198084260Y-112533600D01*
X198150442Y-112540118D01*
X198150442Y-112540118D01*
G37*
G36*
X195610442Y-112540118D02*
G01*
X195676627Y-112546637D01*
X195846466Y-112598157D01*
X196002991Y-112681822D01*
X196038729Y-112711152D01*
X196140186Y-112794414D01*
X196223448Y-112895871D01*
X196252778Y-112931609D01*
X196336443Y-113088134D01*
X196387963Y-113257973D01*
X196405359Y-113434600D01*
X196387963Y-113611227D01*
X196336443Y-113781066D01*
X196252778Y-113937591D01*
X196223448Y-113973329D01*
X196140186Y-114074786D01*
X196038729Y-114158048D01*
X196002991Y-114187378D01*
X195846466Y-114271043D01*
X195676627Y-114322563D01*
X195610442Y-114329082D01*
X195544260Y-114335600D01*
X195455740Y-114335600D01*
X195389558Y-114329082D01*
X195323373Y-114322563D01*
X195153534Y-114271043D01*
X194997009Y-114187378D01*
X194961271Y-114158048D01*
X194859814Y-114074786D01*
X194776552Y-113973329D01*
X194747222Y-113937591D01*
X194663557Y-113781066D01*
X194612037Y-113611227D01*
X194594641Y-113434600D01*
X194612037Y-113257973D01*
X194663557Y-113088134D01*
X194747222Y-112931609D01*
X194776552Y-112895871D01*
X194859814Y-112794414D01*
X194961271Y-112711152D01*
X194997009Y-112681822D01*
X195153534Y-112598157D01*
X195323373Y-112546637D01*
X195389558Y-112540118D01*
X195455740Y-112533600D01*
X195544260Y-112533600D01*
X195610442Y-112540118D01*
X195610442Y-112540118D01*
G37*
G36*
X200690442Y-112540118D02*
G01*
X200756627Y-112546637D01*
X200926466Y-112598157D01*
X201082991Y-112681822D01*
X201118729Y-112711152D01*
X201220186Y-112794414D01*
X201303448Y-112895871D01*
X201332778Y-112931609D01*
X201416443Y-113088134D01*
X201467963Y-113257973D01*
X201485359Y-113434600D01*
X201467963Y-113611227D01*
X201416443Y-113781066D01*
X201332778Y-113937591D01*
X201303448Y-113973329D01*
X201220186Y-114074786D01*
X201118729Y-114158048D01*
X201082991Y-114187378D01*
X200926466Y-114271043D01*
X200756627Y-114322563D01*
X200690442Y-114329082D01*
X200624260Y-114335600D01*
X200535740Y-114335600D01*
X200469558Y-114329082D01*
X200403373Y-114322563D01*
X200233534Y-114271043D01*
X200077009Y-114187378D01*
X200041271Y-114158048D01*
X199939814Y-114074786D01*
X199856552Y-113973329D01*
X199827222Y-113937591D01*
X199743557Y-113781066D01*
X199692037Y-113611227D01*
X199674641Y-113434600D01*
X199692037Y-113257973D01*
X199743557Y-113088134D01*
X199827222Y-112931609D01*
X199856552Y-112895871D01*
X199939814Y-112794414D01*
X200041271Y-112711152D01*
X200077009Y-112681822D01*
X200233534Y-112598157D01*
X200403373Y-112546637D01*
X200469558Y-112540118D01*
X200535740Y-112533600D01*
X200624260Y-112533600D01*
X200690442Y-112540118D01*
X200690442Y-112540118D01*
G37*
G36*
X203230442Y-112540118D02*
G01*
X203296627Y-112546637D01*
X203466466Y-112598157D01*
X203622991Y-112681822D01*
X203658729Y-112711152D01*
X203760186Y-112794414D01*
X203843448Y-112895871D01*
X203872778Y-112931609D01*
X203956443Y-113088134D01*
X204007963Y-113257973D01*
X204025359Y-113434600D01*
X204007963Y-113611227D01*
X203956443Y-113781066D01*
X203872778Y-113937591D01*
X203843448Y-113973329D01*
X203760186Y-114074786D01*
X203658729Y-114158048D01*
X203622991Y-114187378D01*
X203466466Y-114271043D01*
X203296627Y-114322563D01*
X203230442Y-114329082D01*
X203164260Y-114335600D01*
X203075740Y-114335600D01*
X203009558Y-114329082D01*
X202943373Y-114322563D01*
X202773534Y-114271043D01*
X202617009Y-114187378D01*
X202581271Y-114158048D01*
X202479814Y-114074786D01*
X202396552Y-113973329D01*
X202367222Y-113937591D01*
X202283557Y-113781066D01*
X202232037Y-113611227D01*
X202214641Y-113434600D01*
X202232037Y-113257973D01*
X202283557Y-113088134D01*
X202367222Y-112931609D01*
X202396552Y-112895871D01*
X202479814Y-112794414D01*
X202581271Y-112711152D01*
X202617009Y-112681822D01*
X202773534Y-112598157D01*
X202943373Y-112546637D01*
X203009558Y-112540118D01*
X203075740Y-112533600D01*
X203164260Y-112533600D01*
X203230442Y-112540118D01*
X203230442Y-112540118D01*
G37*
G36*
X205770442Y-112540118D02*
G01*
X205836627Y-112546637D01*
X206006466Y-112598157D01*
X206162991Y-112681822D01*
X206198729Y-112711152D01*
X206300186Y-112794414D01*
X206383448Y-112895871D01*
X206412778Y-112931609D01*
X206496443Y-113088134D01*
X206547963Y-113257973D01*
X206565359Y-113434600D01*
X206547963Y-113611227D01*
X206496443Y-113781066D01*
X206412778Y-113937591D01*
X206383448Y-113973329D01*
X206300186Y-114074786D01*
X206198729Y-114158048D01*
X206162991Y-114187378D01*
X206006466Y-114271043D01*
X205836627Y-114322563D01*
X205770442Y-114329082D01*
X205704260Y-114335600D01*
X205615740Y-114335600D01*
X205549558Y-114329082D01*
X205483373Y-114322563D01*
X205313534Y-114271043D01*
X205157009Y-114187378D01*
X205121271Y-114158048D01*
X205019814Y-114074786D01*
X204936552Y-113973329D01*
X204907222Y-113937591D01*
X204823557Y-113781066D01*
X204772037Y-113611227D01*
X204754641Y-113434600D01*
X204772037Y-113257973D01*
X204823557Y-113088134D01*
X204907222Y-112931609D01*
X204936552Y-112895871D01*
X205019814Y-112794414D01*
X205121271Y-112711152D01*
X205157009Y-112681822D01*
X205313534Y-112598157D01*
X205483373Y-112546637D01*
X205549558Y-112540118D01*
X205615740Y-112533600D01*
X205704260Y-112533600D01*
X205770442Y-112540118D01*
X205770442Y-112540118D01*
G37*
G36*
X210850442Y-112540118D02*
G01*
X210916627Y-112546637D01*
X211086466Y-112598157D01*
X211242991Y-112681822D01*
X211278729Y-112711152D01*
X211380186Y-112794414D01*
X211463448Y-112895871D01*
X211492778Y-112931609D01*
X211576443Y-113088134D01*
X211627963Y-113257973D01*
X211645359Y-113434600D01*
X211627963Y-113611227D01*
X211576443Y-113781066D01*
X211492778Y-113937591D01*
X211463448Y-113973329D01*
X211380186Y-114074786D01*
X211278729Y-114158048D01*
X211242991Y-114187378D01*
X211086466Y-114271043D01*
X210916627Y-114322563D01*
X210850442Y-114329082D01*
X210784260Y-114335600D01*
X210695740Y-114335600D01*
X210629558Y-114329082D01*
X210563373Y-114322563D01*
X210393534Y-114271043D01*
X210237009Y-114187378D01*
X210201271Y-114158048D01*
X210099814Y-114074786D01*
X210016552Y-113973329D01*
X209987222Y-113937591D01*
X209903557Y-113781066D01*
X209852037Y-113611227D01*
X209834641Y-113434600D01*
X209852037Y-113257973D01*
X209903557Y-113088134D01*
X209987222Y-112931609D01*
X210016552Y-112895871D01*
X210099814Y-112794414D01*
X210201271Y-112711152D01*
X210237009Y-112681822D01*
X210393534Y-112598157D01*
X210563373Y-112546637D01*
X210629558Y-112540118D01*
X210695740Y-112533600D01*
X210784260Y-112533600D01*
X210850442Y-112540118D01*
X210850442Y-112540118D01*
G37*
G36*
X213390442Y-112540118D02*
G01*
X213456627Y-112546637D01*
X213626466Y-112598157D01*
X213782991Y-112681822D01*
X213818729Y-112711152D01*
X213920186Y-112794414D01*
X214003448Y-112895871D01*
X214032778Y-112931609D01*
X214116443Y-113088134D01*
X214167963Y-113257973D01*
X214185359Y-113434600D01*
X214167963Y-113611227D01*
X214116443Y-113781066D01*
X214032778Y-113937591D01*
X214003448Y-113973329D01*
X213920186Y-114074786D01*
X213818729Y-114158048D01*
X213782991Y-114187378D01*
X213626466Y-114271043D01*
X213456627Y-114322563D01*
X213390442Y-114329082D01*
X213324260Y-114335600D01*
X213235740Y-114335600D01*
X213169558Y-114329082D01*
X213103373Y-114322563D01*
X212933534Y-114271043D01*
X212777009Y-114187378D01*
X212741271Y-114158048D01*
X212639814Y-114074786D01*
X212556552Y-113973329D01*
X212527222Y-113937591D01*
X212443557Y-113781066D01*
X212392037Y-113611227D01*
X212374641Y-113434600D01*
X212392037Y-113257973D01*
X212443557Y-113088134D01*
X212527222Y-112931609D01*
X212556552Y-112895871D01*
X212639814Y-112794414D01*
X212741271Y-112711152D01*
X212777009Y-112681822D01*
X212933534Y-112598157D01*
X213103373Y-112546637D01*
X213169558Y-112540118D01*
X213235740Y-112533600D01*
X213324260Y-112533600D01*
X213390442Y-112540118D01*
X213390442Y-112540118D01*
G37*
G36*
X141261400Y-111975200D02*
G01*
X139459400Y-111975200D01*
X139459400Y-110173200D01*
X141261400Y-110173200D01*
X141261400Y-111975200D01*
X141261400Y-111975200D01*
G37*
G36*
X137930842Y-110179718D02*
G01*
X137997027Y-110186237D01*
X138166866Y-110237757D01*
X138323391Y-110321422D01*
X138359129Y-110350752D01*
X138460586Y-110434014D01*
X138543848Y-110535471D01*
X138573178Y-110571209D01*
X138656843Y-110727734D01*
X138708363Y-110897573D01*
X138725759Y-111074200D01*
X138708363Y-111250827D01*
X138656843Y-111420666D01*
X138573178Y-111577191D01*
X138543848Y-111612929D01*
X138460586Y-111714386D01*
X138359129Y-111797648D01*
X138323391Y-111826978D01*
X138166866Y-111910643D01*
X137997027Y-111962163D01*
X137930843Y-111968681D01*
X137864660Y-111975200D01*
X137776140Y-111975200D01*
X137709957Y-111968681D01*
X137643773Y-111962163D01*
X137473934Y-111910643D01*
X137317409Y-111826978D01*
X137281671Y-111797648D01*
X137180214Y-111714386D01*
X137096952Y-111612929D01*
X137067622Y-111577191D01*
X136983957Y-111420666D01*
X136932437Y-111250827D01*
X136915041Y-111074200D01*
X136932437Y-110897573D01*
X136983957Y-110727734D01*
X137067622Y-110571209D01*
X137096952Y-110535471D01*
X137180214Y-110434014D01*
X137281671Y-110350752D01*
X137317409Y-110321422D01*
X137473934Y-110237757D01*
X137643773Y-110186237D01*
X137709958Y-110179718D01*
X137776140Y-110173200D01*
X137864660Y-110173200D01*
X137930842Y-110179718D01*
X137930842Y-110179718D01*
G37*
G36*
X150684800Y-111213200D02*
G01*
X148882800Y-111213200D01*
X148882800Y-109411200D01*
X150684800Y-109411200D01*
X150684800Y-111213200D01*
X150684800Y-111213200D01*
G37*
G36*
X152434243Y-109417719D02*
G01*
X152500427Y-109424237D01*
X152670266Y-109475757D01*
X152826791Y-109559422D01*
X152862529Y-109588752D01*
X152963986Y-109672014D01*
X153047248Y-109773471D01*
X153076578Y-109809209D01*
X153160243Y-109965734D01*
X153211763Y-110135573D01*
X153229159Y-110312200D01*
X153211763Y-110488827D01*
X153160243Y-110658666D01*
X153076578Y-110815191D01*
X153047248Y-110850929D01*
X152963986Y-110952386D01*
X152862529Y-111035648D01*
X152826791Y-111064978D01*
X152670266Y-111148643D01*
X152500427Y-111200163D01*
X152434242Y-111206682D01*
X152368060Y-111213200D01*
X152279540Y-111213200D01*
X152213358Y-111206682D01*
X152147173Y-111200163D01*
X151977334Y-111148643D01*
X151820809Y-111064978D01*
X151785071Y-111035648D01*
X151683614Y-110952386D01*
X151600352Y-110850929D01*
X151571022Y-110815191D01*
X151487357Y-110658666D01*
X151435837Y-110488827D01*
X151418441Y-110312200D01*
X151435837Y-110135573D01*
X151487357Y-109965734D01*
X151571022Y-109809209D01*
X151600352Y-109773471D01*
X151683614Y-109672014D01*
X151785071Y-109588752D01*
X151820809Y-109559422D01*
X151977334Y-109475757D01*
X152147173Y-109424237D01*
X152213357Y-109417719D01*
X152279540Y-109411200D01*
X152368060Y-109411200D01*
X152434243Y-109417719D01*
X152434243Y-109417719D01*
G37*
G36*
X154974243Y-109417719D02*
G01*
X155040427Y-109424237D01*
X155210266Y-109475757D01*
X155366791Y-109559422D01*
X155402529Y-109588752D01*
X155503986Y-109672014D01*
X155587248Y-109773471D01*
X155616578Y-109809209D01*
X155700243Y-109965734D01*
X155751763Y-110135573D01*
X155769159Y-110312200D01*
X155751763Y-110488827D01*
X155700243Y-110658666D01*
X155616578Y-110815191D01*
X155587248Y-110850929D01*
X155503986Y-110952386D01*
X155402529Y-111035648D01*
X155366791Y-111064978D01*
X155210266Y-111148643D01*
X155040427Y-111200163D01*
X154974242Y-111206682D01*
X154908060Y-111213200D01*
X154819540Y-111213200D01*
X154753358Y-111206682D01*
X154687173Y-111200163D01*
X154517334Y-111148643D01*
X154360809Y-111064978D01*
X154325071Y-111035648D01*
X154223614Y-110952386D01*
X154140352Y-110850929D01*
X154111022Y-110815191D01*
X154027357Y-110658666D01*
X153975837Y-110488827D01*
X153958441Y-110312200D01*
X153975837Y-110135573D01*
X154027357Y-109965734D01*
X154111022Y-109809209D01*
X154140352Y-109773471D01*
X154223614Y-109672014D01*
X154325071Y-109588752D01*
X154360809Y-109559422D01*
X154517334Y-109475757D01*
X154687173Y-109424237D01*
X154753357Y-109417719D01*
X154819540Y-109411200D01*
X154908060Y-109411200D01*
X154974243Y-109417719D01*
X154974243Y-109417719D01*
G37*
G36*
X157514243Y-109417719D02*
G01*
X157580427Y-109424237D01*
X157750266Y-109475757D01*
X157906791Y-109559422D01*
X157942529Y-109588752D01*
X158043986Y-109672014D01*
X158127248Y-109773471D01*
X158156578Y-109809209D01*
X158240243Y-109965734D01*
X158291763Y-110135573D01*
X158309159Y-110312200D01*
X158291763Y-110488827D01*
X158240243Y-110658666D01*
X158156578Y-110815191D01*
X158127248Y-110850929D01*
X158043986Y-110952386D01*
X157942529Y-111035648D01*
X157906791Y-111064978D01*
X157750266Y-111148643D01*
X157580427Y-111200163D01*
X157514242Y-111206682D01*
X157448060Y-111213200D01*
X157359540Y-111213200D01*
X157293358Y-111206682D01*
X157227173Y-111200163D01*
X157057334Y-111148643D01*
X156900809Y-111064978D01*
X156865071Y-111035648D01*
X156763614Y-110952386D01*
X156680352Y-110850929D01*
X156651022Y-110815191D01*
X156567357Y-110658666D01*
X156515837Y-110488827D01*
X156498441Y-110312200D01*
X156515837Y-110135573D01*
X156567357Y-109965734D01*
X156651022Y-109809209D01*
X156680352Y-109773471D01*
X156763614Y-109672014D01*
X156865071Y-109588752D01*
X156900809Y-109559422D01*
X157057334Y-109475757D01*
X157227173Y-109424237D01*
X157293357Y-109417719D01*
X157359540Y-109411200D01*
X157448060Y-109411200D01*
X157514243Y-109417719D01*
X157514243Y-109417719D01*
G37*
G36*
X162594243Y-109417719D02*
G01*
X162660427Y-109424237D01*
X162830266Y-109475757D01*
X162986791Y-109559422D01*
X163022529Y-109588752D01*
X163123986Y-109672014D01*
X163207248Y-109773471D01*
X163236578Y-109809209D01*
X163320243Y-109965734D01*
X163371763Y-110135573D01*
X163389159Y-110312200D01*
X163371763Y-110488827D01*
X163320243Y-110658666D01*
X163236578Y-110815191D01*
X163207248Y-110850929D01*
X163123986Y-110952386D01*
X163022529Y-111035648D01*
X162986791Y-111064978D01*
X162830266Y-111148643D01*
X162660427Y-111200163D01*
X162594242Y-111206682D01*
X162528060Y-111213200D01*
X162439540Y-111213200D01*
X162373358Y-111206682D01*
X162307173Y-111200163D01*
X162137334Y-111148643D01*
X161980809Y-111064978D01*
X161945071Y-111035648D01*
X161843614Y-110952386D01*
X161760352Y-110850929D01*
X161731022Y-110815191D01*
X161647357Y-110658666D01*
X161595837Y-110488827D01*
X161578441Y-110312200D01*
X161595837Y-110135573D01*
X161647357Y-109965734D01*
X161731022Y-109809209D01*
X161760352Y-109773471D01*
X161843614Y-109672014D01*
X161945071Y-109588752D01*
X161980809Y-109559422D01*
X162137334Y-109475757D01*
X162307173Y-109424237D01*
X162373357Y-109417719D01*
X162439540Y-109411200D01*
X162528060Y-109411200D01*
X162594243Y-109417719D01*
X162594243Y-109417719D01*
G37*
G36*
X165134243Y-109417719D02*
G01*
X165200427Y-109424237D01*
X165370266Y-109475757D01*
X165526791Y-109559422D01*
X165562529Y-109588752D01*
X165663986Y-109672014D01*
X165747248Y-109773471D01*
X165776578Y-109809209D01*
X165860243Y-109965734D01*
X165911763Y-110135573D01*
X165929159Y-110312200D01*
X165911763Y-110488827D01*
X165860243Y-110658666D01*
X165776578Y-110815191D01*
X165747248Y-110850929D01*
X165663986Y-110952386D01*
X165562529Y-111035648D01*
X165526791Y-111064978D01*
X165370266Y-111148643D01*
X165200427Y-111200163D01*
X165134242Y-111206682D01*
X165068060Y-111213200D01*
X164979540Y-111213200D01*
X164913358Y-111206682D01*
X164847173Y-111200163D01*
X164677334Y-111148643D01*
X164520809Y-111064978D01*
X164485071Y-111035648D01*
X164383614Y-110952386D01*
X164300352Y-110850929D01*
X164271022Y-110815191D01*
X164187357Y-110658666D01*
X164135837Y-110488827D01*
X164118441Y-110312200D01*
X164135837Y-110135573D01*
X164187357Y-109965734D01*
X164271022Y-109809209D01*
X164300352Y-109773471D01*
X164383614Y-109672014D01*
X164485071Y-109588752D01*
X164520809Y-109559422D01*
X164677334Y-109475757D01*
X164847173Y-109424237D01*
X164913357Y-109417719D01*
X164979540Y-109411200D01*
X165068060Y-109411200D01*
X165134243Y-109417719D01*
X165134243Y-109417719D01*
G37*
G36*
X167674243Y-109417719D02*
G01*
X167740427Y-109424237D01*
X167910266Y-109475757D01*
X168066791Y-109559422D01*
X168102529Y-109588752D01*
X168203986Y-109672014D01*
X168287248Y-109773471D01*
X168316578Y-109809209D01*
X168400243Y-109965734D01*
X168451763Y-110135573D01*
X168469159Y-110312200D01*
X168451763Y-110488827D01*
X168400243Y-110658666D01*
X168316578Y-110815191D01*
X168287248Y-110850929D01*
X168203986Y-110952386D01*
X168102529Y-111035648D01*
X168066791Y-111064978D01*
X167910266Y-111148643D01*
X167740427Y-111200163D01*
X167674242Y-111206682D01*
X167608060Y-111213200D01*
X167519540Y-111213200D01*
X167453358Y-111206682D01*
X167387173Y-111200163D01*
X167217334Y-111148643D01*
X167060809Y-111064978D01*
X167025071Y-111035648D01*
X166923614Y-110952386D01*
X166840352Y-110850929D01*
X166811022Y-110815191D01*
X166727357Y-110658666D01*
X166675837Y-110488827D01*
X166658441Y-110312200D01*
X166675837Y-110135573D01*
X166727357Y-109965734D01*
X166811022Y-109809209D01*
X166840352Y-109773471D01*
X166923614Y-109672014D01*
X167025071Y-109588752D01*
X167060809Y-109559422D01*
X167217334Y-109475757D01*
X167387173Y-109424237D01*
X167453357Y-109417719D01*
X167519540Y-109411200D01*
X167608060Y-109411200D01*
X167674243Y-109417719D01*
X167674243Y-109417719D01*
G37*
G36*
X160054243Y-109417719D02*
G01*
X160120427Y-109424237D01*
X160290266Y-109475757D01*
X160446791Y-109559422D01*
X160482529Y-109588752D01*
X160583986Y-109672014D01*
X160667248Y-109773471D01*
X160696578Y-109809209D01*
X160780243Y-109965734D01*
X160831763Y-110135573D01*
X160849159Y-110312200D01*
X160831763Y-110488827D01*
X160780243Y-110658666D01*
X160696578Y-110815191D01*
X160667248Y-110850929D01*
X160583986Y-110952386D01*
X160482529Y-111035648D01*
X160446791Y-111064978D01*
X160290266Y-111148643D01*
X160120427Y-111200163D01*
X160054242Y-111206682D01*
X159988060Y-111213200D01*
X159899540Y-111213200D01*
X159833358Y-111206682D01*
X159767173Y-111200163D01*
X159597334Y-111148643D01*
X159440809Y-111064978D01*
X159405071Y-111035648D01*
X159303614Y-110952386D01*
X159220352Y-110850929D01*
X159191022Y-110815191D01*
X159107357Y-110658666D01*
X159055837Y-110488827D01*
X159038441Y-110312200D01*
X159055837Y-110135573D01*
X159107357Y-109965734D01*
X159191022Y-109809209D01*
X159220352Y-109773471D01*
X159303614Y-109672014D01*
X159405071Y-109588752D01*
X159440809Y-109559422D01*
X159597334Y-109475757D01*
X159767173Y-109424237D01*
X159833357Y-109417719D01*
X159899540Y-109411200D01*
X159988060Y-109411200D01*
X160054243Y-109417719D01*
X160054243Y-109417719D01*
G37*
G36*
X140470842Y-107639718D02*
G01*
X140537027Y-107646237D01*
X140706866Y-107697757D01*
X140863391Y-107781422D01*
X140899129Y-107810752D01*
X141000586Y-107894014D01*
X141083848Y-107995471D01*
X141113178Y-108031209D01*
X141196843Y-108187734D01*
X141248363Y-108357573D01*
X141265759Y-108534200D01*
X141248363Y-108710827D01*
X141196843Y-108880666D01*
X141113178Y-109037191D01*
X141083848Y-109072929D01*
X141000586Y-109174386D01*
X140899129Y-109257648D01*
X140863391Y-109286978D01*
X140706866Y-109370643D01*
X140537027Y-109422163D01*
X140470843Y-109428681D01*
X140404660Y-109435200D01*
X140316140Y-109435200D01*
X140249957Y-109428681D01*
X140183773Y-109422163D01*
X140013934Y-109370643D01*
X139857409Y-109286978D01*
X139821671Y-109257648D01*
X139720214Y-109174386D01*
X139636952Y-109072929D01*
X139607622Y-109037191D01*
X139523957Y-108880666D01*
X139472437Y-108710827D01*
X139455041Y-108534200D01*
X139472437Y-108357573D01*
X139523957Y-108187734D01*
X139607622Y-108031209D01*
X139636952Y-107995471D01*
X139720214Y-107894014D01*
X139821671Y-107810752D01*
X139857409Y-107781422D01*
X140013934Y-107697757D01*
X140183773Y-107646237D01*
X140249958Y-107639718D01*
X140316140Y-107633200D01*
X140404660Y-107633200D01*
X140470842Y-107639718D01*
X140470842Y-107639718D01*
G37*
G36*
X137930842Y-107639718D02*
G01*
X137997027Y-107646237D01*
X138166866Y-107697757D01*
X138323391Y-107781422D01*
X138359129Y-107810752D01*
X138460586Y-107894014D01*
X138543848Y-107995471D01*
X138573178Y-108031209D01*
X138656843Y-108187734D01*
X138708363Y-108357573D01*
X138725759Y-108534200D01*
X138708363Y-108710827D01*
X138656843Y-108880666D01*
X138573178Y-109037191D01*
X138543848Y-109072929D01*
X138460586Y-109174386D01*
X138359129Y-109257648D01*
X138323391Y-109286978D01*
X138166866Y-109370643D01*
X137997027Y-109422163D01*
X137930843Y-109428681D01*
X137864660Y-109435200D01*
X137776140Y-109435200D01*
X137709957Y-109428681D01*
X137643773Y-109422163D01*
X137473934Y-109370643D01*
X137317409Y-109286978D01*
X137281671Y-109257648D01*
X137180214Y-109174386D01*
X137096952Y-109072929D01*
X137067622Y-109037191D01*
X136983957Y-108880666D01*
X136932437Y-108710827D01*
X136915041Y-108534200D01*
X136932437Y-108357573D01*
X136983957Y-108187734D01*
X137067622Y-108031209D01*
X137096952Y-107995471D01*
X137180214Y-107894014D01*
X137281671Y-107810752D01*
X137317409Y-107781422D01*
X137473934Y-107697757D01*
X137643773Y-107646237D01*
X137709958Y-107639718D01*
X137776140Y-107633200D01*
X137864660Y-107633200D01*
X137930842Y-107639718D01*
X137930842Y-107639718D01*
G37*
G36*
X200746823Y-107541313D02*
G01*
X200907242Y-107589976D01*
X200988108Y-107633200D01*
X201055078Y-107668996D01*
X201184659Y-107775341D01*
X201291004Y-107904922D01*
X201291005Y-107904924D01*
X201370024Y-108052758D01*
X201418687Y-108213177D01*
X201435117Y-108380000D01*
X201418687Y-108546823D01*
X201370024Y-108707242D01*
X201299114Y-108839906D01*
X201291004Y-108855078D01*
X201184659Y-108984659D01*
X201055078Y-109091004D01*
X201055076Y-109091005D01*
X200907242Y-109170024D01*
X200746823Y-109218687D01*
X200621804Y-109231000D01*
X200538196Y-109231000D01*
X200413177Y-109218687D01*
X200252758Y-109170024D01*
X200104924Y-109091005D01*
X200104922Y-109091004D01*
X199975341Y-108984659D01*
X199868996Y-108855078D01*
X199860886Y-108839906D01*
X199789976Y-108707242D01*
X199741313Y-108546823D01*
X199724883Y-108380000D01*
X199741313Y-108213177D01*
X199789976Y-108052758D01*
X199868995Y-107904924D01*
X199868996Y-107904922D01*
X199975341Y-107775341D01*
X200104922Y-107668996D01*
X200171892Y-107633200D01*
X200252758Y-107589976D01*
X200413177Y-107541313D01*
X200538196Y-107529000D01*
X200621804Y-107529000D01*
X200746823Y-107541313D01*
X200746823Y-107541313D01*
G37*
G36*
X195666823Y-107541313D02*
G01*
X195827242Y-107589976D01*
X195908108Y-107633200D01*
X195975078Y-107668996D01*
X196104659Y-107775341D01*
X196211004Y-107904922D01*
X196211005Y-107904924D01*
X196290024Y-108052758D01*
X196338687Y-108213177D01*
X196355117Y-108380000D01*
X196338687Y-108546823D01*
X196290024Y-108707242D01*
X196219114Y-108839906D01*
X196211004Y-108855078D01*
X196104659Y-108984659D01*
X195975078Y-109091004D01*
X195975076Y-109091005D01*
X195827242Y-109170024D01*
X195666823Y-109218687D01*
X195541804Y-109231000D01*
X195458196Y-109231000D01*
X195333177Y-109218687D01*
X195172758Y-109170024D01*
X195024924Y-109091005D01*
X195024922Y-109091004D01*
X194895341Y-108984659D01*
X194788996Y-108855078D01*
X194780886Y-108839906D01*
X194709976Y-108707242D01*
X194661313Y-108546823D01*
X194644883Y-108380000D01*
X194661313Y-108213177D01*
X194709976Y-108052758D01*
X194788995Y-107904924D01*
X194788996Y-107904922D01*
X194895341Y-107775341D01*
X195024922Y-107668996D01*
X195091892Y-107633200D01*
X195172758Y-107589976D01*
X195333177Y-107541313D01*
X195458196Y-107529000D01*
X195541804Y-107529000D01*
X195666823Y-107541313D01*
X195666823Y-107541313D01*
G37*
G36*
X198206823Y-107541313D02*
G01*
X198367242Y-107589976D01*
X198448108Y-107633200D01*
X198515078Y-107668996D01*
X198644659Y-107775341D01*
X198751004Y-107904922D01*
X198751005Y-107904924D01*
X198830024Y-108052758D01*
X198878687Y-108213177D01*
X198895117Y-108380000D01*
X198878687Y-108546823D01*
X198830024Y-108707242D01*
X198759114Y-108839906D01*
X198751004Y-108855078D01*
X198644659Y-108984659D01*
X198515078Y-109091004D01*
X198515076Y-109091005D01*
X198367242Y-109170024D01*
X198206823Y-109218687D01*
X198081804Y-109231000D01*
X197998196Y-109231000D01*
X197873177Y-109218687D01*
X197712758Y-109170024D01*
X197564924Y-109091005D01*
X197564922Y-109091004D01*
X197435341Y-108984659D01*
X197328996Y-108855078D01*
X197320886Y-108839906D01*
X197249976Y-108707242D01*
X197201313Y-108546823D01*
X197184883Y-108380000D01*
X197201313Y-108213177D01*
X197249976Y-108052758D01*
X197328995Y-107904924D01*
X197328996Y-107904922D01*
X197435341Y-107775341D01*
X197564922Y-107668996D01*
X197631892Y-107633200D01*
X197712758Y-107589976D01*
X197873177Y-107541313D01*
X197998196Y-107529000D01*
X198081804Y-107529000D01*
X198206823Y-107541313D01*
X198206823Y-107541313D01*
G37*
G36*
X193126823Y-107541313D02*
G01*
X193287242Y-107589976D01*
X193368108Y-107633200D01*
X193435078Y-107668996D01*
X193564659Y-107775341D01*
X193671004Y-107904922D01*
X193671005Y-107904924D01*
X193750024Y-108052758D01*
X193798687Y-108213177D01*
X193815117Y-108380000D01*
X193798687Y-108546823D01*
X193750024Y-108707242D01*
X193679114Y-108839906D01*
X193671004Y-108855078D01*
X193564659Y-108984659D01*
X193435078Y-109091004D01*
X193435076Y-109091005D01*
X193287242Y-109170024D01*
X193126823Y-109218687D01*
X193001804Y-109231000D01*
X192918196Y-109231000D01*
X192793177Y-109218687D01*
X192632758Y-109170024D01*
X192484924Y-109091005D01*
X192484922Y-109091004D01*
X192355341Y-108984659D01*
X192248996Y-108855078D01*
X192240886Y-108839906D01*
X192169976Y-108707242D01*
X192121313Y-108546823D01*
X192104883Y-108380000D01*
X192121313Y-108213177D01*
X192169976Y-108052758D01*
X192248995Y-107904924D01*
X192248996Y-107904922D01*
X192355341Y-107775341D01*
X192484922Y-107668996D01*
X192551892Y-107633200D01*
X192632758Y-107589976D01*
X192793177Y-107541313D01*
X192918196Y-107529000D01*
X193001804Y-107529000D01*
X193126823Y-107541313D01*
X193126823Y-107541313D01*
G37*
G36*
X190586823Y-107541313D02*
G01*
X190747242Y-107589976D01*
X190828108Y-107633200D01*
X190895078Y-107668996D01*
X191024659Y-107775341D01*
X191131004Y-107904922D01*
X191131005Y-107904924D01*
X191210024Y-108052758D01*
X191258687Y-108213177D01*
X191275117Y-108380000D01*
X191258687Y-108546823D01*
X191210024Y-108707242D01*
X191139114Y-108839906D01*
X191131004Y-108855078D01*
X191024659Y-108984659D01*
X190895078Y-109091004D01*
X190895076Y-109091005D01*
X190747242Y-109170024D01*
X190586823Y-109218687D01*
X190461804Y-109231000D01*
X190378196Y-109231000D01*
X190253177Y-109218687D01*
X190092758Y-109170024D01*
X189944924Y-109091005D01*
X189944922Y-109091004D01*
X189815341Y-108984659D01*
X189708996Y-108855078D01*
X189700886Y-108839906D01*
X189629976Y-108707242D01*
X189581313Y-108546823D01*
X189564883Y-108380000D01*
X189581313Y-108213177D01*
X189629976Y-108052758D01*
X189708995Y-107904924D01*
X189708996Y-107904922D01*
X189815341Y-107775341D01*
X189944922Y-107668996D01*
X190011892Y-107633200D01*
X190092758Y-107589976D01*
X190253177Y-107541313D01*
X190378196Y-107529000D01*
X190461804Y-107529000D01*
X190586823Y-107541313D01*
X190586823Y-107541313D01*
G37*
G36*
X203286823Y-107541313D02*
G01*
X203447242Y-107589976D01*
X203528108Y-107633200D01*
X203595078Y-107668996D01*
X203724659Y-107775341D01*
X203831004Y-107904922D01*
X203831005Y-107904924D01*
X203910024Y-108052758D01*
X203958687Y-108213177D01*
X203975117Y-108380000D01*
X203958687Y-108546823D01*
X203910024Y-108707242D01*
X203839114Y-108839906D01*
X203831004Y-108855078D01*
X203724659Y-108984659D01*
X203595078Y-109091004D01*
X203595076Y-109091005D01*
X203447242Y-109170024D01*
X203286823Y-109218687D01*
X203161804Y-109231000D01*
X203078196Y-109231000D01*
X202953177Y-109218687D01*
X202792758Y-109170024D01*
X202644924Y-109091005D01*
X202644922Y-109091004D01*
X202515341Y-108984659D01*
X202408996Y-108855078D01*
X202400886Y-108839906D01*
X202329976Y-108707242D01*
X202281313Y-108546823D01*
X202264883Y-108380000D01*
X202281313Y-108213177D01*
X202329976Y-108052758D01*
X202408995Y-107904924D01*
X202408996Y-107904922D01*
X202515341Y-107775341D01*
X202644922Y-107668996D01*
X202711892Y-107633200D01*
X202792758Y-107589976D01*
X202953177Y-107541313D01*
X203078196Y-107529000D01*
X203161804Y-107529000D01*
X203286823Y-107541313D01*
X203286823Y-107541313D01*
G37*
G36*
X208366823Y-107541313D02*
G01*
X208527242Y-107589976D01*
X208608108Y-107633200D01*
X208675078Y-107668996D01*
X208804659Y-107775341D01*
X208911004Y-107904922D01*
X208911005Y-107904924D01*
X208990024Y-108052758D01*
X209038687Y-108213177D01*
X209055117Y-108380000D01*
X209038687Y-108546823D01*
X208990024Y-108707242D01*
X208919114Y-108839906D01*
X208911004Y-108855078D01*
X208804659Y-108984659D01*
X208675078Y-109091004D01*
X208675076Y-109091005D01*
X208527242Y-109170024D01*
X208366823Y-109218687D01*
X208241804Y-109231000D01*
X208158196Y-109231000D01*
X208033177Y-109218687D01*
X207872758Y-109170024D01*
X207724924Y-109091005D01*
X207724922Y-109091004D01*
X207595341Y-108984659D01*
X207488996Y-108855078D01*
X207480886Y-108839906D01*
X207409976Y-108707242D01*
X207361313Y-108546823D01*
X207344883Y-108380000D01*
X207361313Y-108213177D01*
X207409976Y-108052758D01*
X207488995Y-107904924D01*
X207488996Y-107904922D01*
X207595341Y-107775341D01*
X207724922Y-107668996D01*
X207791892Y-107633200D01*
X207872758Y-107589976D01*
X208033177Y-107541313D01*
X208158196Y-107529000D01*
X208241804Y-107529000D01*
X208366823Y-107541313D01*
X208366823Y-107541313D01*
G37*
G36*
X210906823Y-107541313D02*
G01*
X211067242Y-107589976D01*
X211148108Y-107633200D01*
X211215078Y-107668996D01*
X211344659Y-107775341D01*
X211451004Y-107904922D01*
X211451005Y-107904924D01*
X211530024Y-108052758D01*
X211578687Y-108213177D01*
X211595117Y-108380000D01*
X211578687Y-108546823D01*
X211530024Y-108707242D01*
X211459114Y-108839906D01*
X211451004Y-108855078D01*
X211344659Y-108984659D01*
X211215078Y-109091004D01*
X211215076Y-109091005D01*
X211067242Y-109170024D01*
X210906823Y-109218687D01*
X210781804Y-109231000D01*
X210698196Y-109231000D01*
X210573177Y-109218687D01*
X210412758Y-109170024D01*
X210264924Y-109091005D01*
X210264922Y-109091004D01*
X210135341Y-108984659D01*
X210028996Y-108855078D01*
X210020886Y-108839906D01*
X209949976Y-108707242D01*
X209901313Y-108546823D01*
X209884883Y-108380000D01*
X209901313Y-108213177D01*
X209949976Y-108052758D01*
X210028995Y-107904924D01*
X210028996Y-107904922D01*
X210135341Y-107775341D01*
X210264922Y-107668996D01*
X210331892Y-107633200D01*
X210412758Y-107589976D01*
X210573177Y-107541313D01*
X210698196Y-107529000D01*
X210781804Y-107529000D01*
X210906823Y-107541313D01*
X210906823Y-107541313D01*
G37*
G36*
X213446823Y-107541313D02*
G01*
X213607242Y-107589976D01*
X213688108Y-107633200D01*
X213755078Y-107668996D01*
X213884659Y-107775341D01*
X213991004Y-107904922D01*
X213991005Y-107904924D01*
X214070024Y-108052758D01*
X214118687Y-108213177D01*
X214135117Y-108380000D01*
X214118687Y-108546823D01*
X214070024Y-108707242D01*
X213999114Y-108839906D01*
X213991004Y-108855078D01*
X213884659Y-108984659D01*
X213755078Y-109091004D01*
X213755076Y-109091005D01*
X213607242Y-109170024D01*
X213446823Y-109218687D01*
X213321804Y-109231000D01*
X213238196Y-109231000D01*
X213113177Y-109218687D01*
X212952758Y-109170024D01*
X212804924Y-109091005D01*
X212804922Y-109091004D01*
X212675341Y-108984659D01*
X212568996Y-108855078D01*
X212560886Y-108839906D01*
X212489976Y-108707242D01*
X212441313Y-108546823D01*
X212424883Y-108380000D01*
X212441313Y-108213177D01*
X212489976Y-108052758D01*
X212568995Y-107904924D01*
X212568996Y-107904922D01*
X212675341Y-107775341D01*
X212804922Y-107668996D01*
X212871892Y-107633200D01*
X212952758Y-107589976D01*
X213113177Y-107541313D01*
X213238196Y-107529000D01*
X213321804Y-107529000D01*
X213446823Y-107541313D01*
X213446823Y-107541313D01*
G37*
G36*
X205826823Y-107541313D02*
G01*
X205987242Y-107589976D01*
X206068108Y-107633200D01*
X206135078Y-107668996D01*
X206264659Y-107775341D01*
X206371004Y-107904922D01*
X206371005Y-107904924D01*
X206450024Y-108052758D01*
X206498687Y-108213177D01*
X206515117Y-108380000D01*
X206498687Y-108546823D01*
X206450024Y-108707242D01*
X206379114Y-108839906D01*
X206371004Y-108855078D01*
X206264659Y-108984659D01*
X206135078Y-109091004D01*
X206135076Y-109091005D01*
X205987242Y-109170024D01*
X205826823Y-109218687D01*
X205701804Y-109231000D01*
X205618196Y-109231000D01*
X205493177Y-109218687D01*
X205332758Y-109170024D01*
X205184924Y-109091005D01*
X205184922Y-109091004D01*
X205055341Y-108984659D01*
X204948996Y-108855078D01*
X204940886Y-108839906D01*
X204869976Y-108707242D01*
X204821313Y-108546823D01*
X204804883Y-108380000D01*
X204821313Y-108213177D01*
X204869976Y-108052758D01*
X204948995Y-107904924D01*
X204948996Y-107904922D01*
X205055341Y-107775341D01*
X205184922Y-107668996D01*
X205251892Y-107633200D01*
X205332758Y-107589976D01*
X205493177Y-107541313D01*
X205618196Y-107529000D01*
X205701804Y-107529000D01*
X205826823Y-107541313D01*
X205826823Y-107541313D01*
G37*
G36*
X191321000Y-106715600D02*
G01*
X189519000Y-106715600D01*
X189519000Y-104913600D01*
X191321000Y-104913600D01*
X191321000Y-106715600D01*
X191321000Y-106715600D01*
G37*
G36*
X210850442Y-104920118D02*
G01*
X210916627Y-104926637D01*
X211086466Y-104978157D01*
X211242991Y-105061822D01*
X211278729Y-105091152D01*
X211380186Y-105174414D01*
X211463448Y-105275871D01*
X211492778Y-105311609D01*
X211576443Y-105468134D01*
X211627963Y-105637973D01*
X211645359Y-105814600D01*
X211627963Y-105991227D01*
X211576443Y-106161066D01*
X211492778Y-106317591D01*
X211463448Y-106353329D01*
X211380186Y-106454786D01*
X211278729Y-106538048D01*
X211242991Y-106567378D01*
X211086466Y-106651043D01*
X210916627Y-106702563D01*
X210850442Y-106709082D01*
X210784260Y-106715600D01*
X210695740Y-106715600D01*
X210629558Y-106709082D01*
X210563373Y-106702563D01*
X210393534Y-106651043D01*
X210237009Y-106567378D01*
X210201271Y-106538048D01*
X210099814Y-106454786D01*
X210016552Y-106353329D01*
X209987222Y-106317591D01*
X209903557Y-106161066D01*
X209852037Y-105991227D01*
X209834641Y-105814600D01*
X209852037Y-105637973D01*
X209903557Y-105468134D01*
X209987222Y-105311609D01*
X210016552Y-105275871D01*
X210099814Y-105174414D01*
X210201271Y-105091152D01*
X210237009Y-105061822D01*
X210393534Y-104978157D01*
X210563373Y-104926637D01*
X210629558Y-104920118D01*
X210695740Y-104913600D01*
X210784260Y-104913600D01*
X210850442Y-104920118D01*
X210850442Y-104920118D01*
G37*
G36*
X198150442Y-104920118D02*
G01*
X198216627Y-104926637D01*
X198386466Y-104978157D01*
X198542991Y-105061822D01*
X198578729Y-105091152D01*
X198680186Y-105174414D01*
X198763448Y-105275871D01*
X198792778Y-105311609D01*
X198876443Y-105468134D01*
X198927963Y-105637973D01*
X198945359Y-105814600D01*
X198927963Y-105991227D01*
X198876443Y-106161066D01*
X198792778Y-106317591D01*
X198763448Y-106353329D01*
X198680186Y-106454786D01*
X198578729Y-106538048D01*
X198542991Y-106567378D01*
X198386466Y-106651043D01*
X198216627Y-106702563D01*
X198150442Y-106709082D01*
X198084260Y-106715600D01*
X197995740Y-106715600D01*
X197929558Y-106709082D01*
X197863373Y-106702563D01*
X197693534Y-106651043D01*
X197537009Y-106567378D01*
X197501271Y-106538048D01*
X197399814Y-106454786D01*
X197316552Y-106353329D01*
X197287222Y-106317591D01*
X197203557Y-106161066D01*
X197152037Y-105991227D01*
X197134641Y-105814600D01*
X197152037Y-105637973D01*
X197203557Y-105468134D01*
X197287222Y-105311609D01*
X197316552Y-105275871D01*
X197399814Y-105174414D01*
X197501271Y-105091152D01*
X197537009Y-105061822D01*
X197693534Y-104978157D01*
X197863373Y-104926637D01*
X197929558Y-104920118D01*
X197995740Y-104913600D01*
X198084260Y-104913600D01*
X198150442Y-104920118D01*
X198150442Y-104920118D01*
G37*
G36*
X208310442Y-104920118D02*
G01*
X208376627Y-104926637D01*
X208546466Y-104978157D01*
X208702991Y-105061822D01*
X208738729Y-105091152D01*
X208840186Y-105174414D01*
X208923448Y-105275871D01*
X208952778Y-105311609D01*
X209036443Y-105468134D01*
X209087963Y-105637973D01*
X209105359Y-105814600D01*
X209087963Y-105991227D01*
X209036443Y-106161066D01*
X208952778Y-106317591D01*
X208923448Y-106353329D01*
X208840186Y-106454786D01*
X208738729Y-106538048D01*
X208702991Y-106567378D01*
X208546466Y-106651043D01*
X208376627Y-106702563D01*
X208310442Y-106709082D01*
X208244260Y-106715600D01*
X208155740Y-106715600D01*
X208089558Y-106709082D01*
X208023373Y-106702563D01*
X207853534Y-106651043D01*
X207697009Y-106567378D01*
X207661271Y-106538048D01*
X207559814Y-106454786D01*
X207476552Y-106353329D01*
X207447222Y-106317591D01*
X207363557Y-106161066D01*
X207312037Y-105991227D01*
X207294641Y-105814600D01*
X207312037Y-105637973D01*
X207363557Y-105468134D01*
X207447222Y-105311609D01*
X207476552Y-105275871D01*
X207559814Y-105174414D01*
X207661271Y-105091152D01*
X207697009Y-105061822D01*
X207853534Y-104978157D01*
X208023373Y-104926637D01*
X208089558Y-104920118D01*
X208155740Y-104913600D01*
X208244260Y-104913600D01*
X208310442Y-104920118D01*
X208310442Y-104920118D01*
G37*
G36*
X205770442Y-104920118D02*
G01*
X205836627Y-104926637D01*
X206006466Y-104978157D01*
X206162991Y-105061822D01*
X206198729Y-105091152D01*
X206300186Y-105174414D01*
X206383448Y-105275871D01*
X206412778Y-105311609D01*
X206496443Y-105468134D01*
X206547963Y-105637973D01*
X206565359Y-105814600D01*
X206547963Y-105991227D01*
X206496443Y-106161066D01*
X206412778Y-106317591D01*
X206383448Y-106353329D01*
X206300186Y-106454786D01*
X206198729Y-106538048D01*
X206162991Y-106567378D01*
X206006466Y-106651043D01*
X205836627Y-106702563D01*
X205770442Y-106709082D01*
X205704260Y-106715600D01*
X205615740Y-106715600D01*
X205549558Y-106709082D01*
X205483373Y-106702563D01*
X205313534Y-106651043D01*
X205157009Y-106567378D01*
X205121271Y-106538048D01*
X205019814Y-106454786D01*
X204936552Y-106353329D01*
X204907222Y-106317591D01*
X204823557Y-106161066D01*
X204772037Y-105991227D01*
X204754641Y-105814600D01*
X204772037Y-105637973D01*
X204823557Y-105468134D01*
X204907222Y-105311609D01*
X204936552Y-105275871D01*
X205019814Y-105174414D01*
X205121271Y-105091152D01*
X205157009Y-105061822D01*
X205313534Y-104978157D01*
X205483373Y-104926637D01*
X205549558Y-104920118D01*
X205615740Y-104913600D01*
X205704260Y-104913600D01*
X205770442Y-104920118D01*
X205770442Y-104920118D01*
G37*
G36*
X195610442Y-104920118D02*
G01*
X195676627Y-104926637D01*
X195846466Y-104978157D01*
X196002991Y-105061822D01*
X196038729Y-105091152D01*
X196140186Y-105174414D01*
X196223448Y-105275871D01*
X196252778Y-105311609D01*
X196336443Y-105468134D01*
X196387963Y-105637973D01*
X196405359Y-105814600D01*
X196387963Y-105991227D01*
X196336443Y-106161066D01*
X196252778Y-106317591D01*
X196223448Y-106353329D01*
X196140186Y-106454786D01*
X196038729Y-106538048D01*
X196002991Y-106567378D01*
X195846466Y-106651043D01*
X195676627Y-106702563D01*
X195610442Y-106709082D01*
X195544260Y-106715600D01*
X195455740Y-106715600D01*
X195389558Y-106709082D01*
X195323373Y-106702563D01*
X195153534Y-106651043D01*
X194997009Y-106567378D01*
X194961271Y-106538048D01*
X194859814Y-106454786D01*
X194776552Y-106353329D01*
X194747222Y-106317591D01*
X194663557Y-106161066D01*
X194612037Y-105991227D01*
X194594641Y-105814600D01*
X194612037Y-105637973D01*
X194663557Y-105468134D01*
X194747222Y-105311609D01*
X194776552Y-105275871D01*
X194859814Y-105174414D01*
X194961271Y-105091152D01*
X194997009Y-105061822D01*
X195153534Y-104978157D01*
X195323373Y-104926637D01*
X195389558Y-104920118D01*
X195455740Y-104913600D01*
X195544260Y-104913600D01*
X195610442Y-104920118D01*
X195610442Y-104920118D01*
G37*
G36*
X193070442Y-104920118D02*
G01*
X193136627Y-104926637D01*
X193306466Y-104978157D01*
X193462991Y-105061822D01*
X193498729Y-105091152D01*
X193600186Y-105174414D01*
X193683448Y-105275871D01*
X193712778Y-105311609D01*
X193796443Y-105468134D01*
X193847963Y-105637973D01*
X193865359Y-105814600D01*
X193847963Y-105991227D01*
X193796443Y-106161066D01*
X193712778Y-106317591D01*
X193683448Y-106353329D01*
X193600186Y-106454786D01*
X193498729Y-106538048D01*
X193462991Y-106567378D01*
X193306466Y-106651043D01*
X193136627Y-106702563D01*
X193070442Y-106709082D01*
X193004260Y-106715600D01*
X192915740Y-106715600D01*
X192849558Y-106709082D01*
X192783373Y-106702563D01*
X192613534Y-106651043D01*
X192457009Y-106567378D01*
X192421271Y-106538048D01*
X192319814Y-106454786D01*
X192236552Y-106353329D01*
X192207222Y-106317591D01*
X192123557Y-106161066D01*
X192072037Y-105991227D01*
X192054641Y-105814600D01*
X192072037Y-105637973D01*
X192123557Y-105468134D01*
X192207222Y-105311609D01*
X192236552Y-105275871D01*
X192319814Y-105174414D01*
X192421271Y-105091152D01*
X192457009Y-105061822D01*
X192613534Y-104978157D01*
X192783373Y-104926637D01*
X192849558Y-104920118D01*
X192915740Y-104913600D01*
X193004260Y-104913600D01*
X193070442Y-104920118D01*
X193070442Y-104920118D01*
G37*
G36*
X203230442Y-104920118D02*
G01*
X203296627Y-104926637D01*
X203466466Y-104978157D01*
X203622991Y-105061822D01*
X203658729Y-105091152D01*
X203760186Y-105174414D01*
X203843448Y-105275871D01*
X203872778Y-105311609D01*
X203956443Y-105468134D01*
X204007963Y-105637973D01*
X204025359Y-105814600D01*
X204007963Y-105991227D01*
X203956443Y-106161066D01*
X203872778Y-106317591D01*
X203843448Y-106353329D01*
X203760186Y-106454786D01*
X203658729Y-106538048D01*
X203622991Y-106567378D01*
X203466466Y-106651043D01*
X203296627Y-106702563D01*
X203230442Y-106709082D01*
X203164260Y-106715600D01*
X203075740Y-106715600D01*
X203009558Y-106709082D01*
X202943373Y-106702563D01*
X202773534Y-106651043D01*
X202617009Y-106567378D01*
X202581271Y-106538048D01*
X202479814Y-106454786D01*
X202396552Y-106353329D01*
X202367222Y-106317591D01*
X202283557Y-106161066D01*
X202232037Y-105991227D01*
X202214641Y-105814600D01*
X202232037Y-105637973D01*
X202283557Y-105468134D01*
X202367222Y-105311609D01*
X202396552Y-105275871D01*
X202479814Y-105174414D01*
X202581271Y-105091152D01*
X202617009Y-105061822D01*
X202773534Y-104978157D01*
X202943373Y-104926637D01*
X203009558Y-104920118D01*
X203075740Y-104913600D01*
X203164260Y-104913600D01*
X203230442Y-104920118D01*
X203230442Y-104920118D01*
G37*
G36*
X200690442Y-104920118D02*
G01*
X200756627Y-104926637D01*
X200926466Y-104978157D01*
X201082991Y-105061822D01*
X201118729Y-105091152D01*
X201220186Y-105174414D01*
X201303448Y-105275871D01*
X201332778Y-105311609D01*
X201416443Y-105468134D01*
X201467963Y-105637973D01*
X201485359Y-105814600D01*
X201467963Y-105991227D01*
X201416443Y-106161066D01*
X201332778Y-106317591D01*
X201303448Y-106353329D01*
X201220186Y-106454786D01*
X201118729Y-106538048D01*
X201082991Y-106567378D01*
X200926466Y-106651043D01*
X200756627Y-106702563D01*
X200690442Y-106709082D01*
X200624260Y-106715600D01*
X200535740Y-106715600D01*
X200469558Y-106709082D01*
X200403373Y-106702563D01*
X200233534Y-106651043D01*
X200077009Y-106567378D01*
X200041271Y-106538048D01*
X199939814Y-106454786D01*
X199856552Y-106353329D01*
X199827222Y-106317591D01*
X199743557Y-106161066D01*
X199692037Y-105991227D01*
X199674641Y-105814600D01*
X199692037Y-105637973D01*
X199743557Y-105468134D01*
X199827222Y-105311609D01*
X199856552Y-105275871D01*
X199939814Y-105174414D01*
X200041271Y-105091152D01*
X200077009Y-105061822D01*
X200233534Y-104978157D01*
X200403373Y-104926637D01*
X200469558Y-104920118D01*
X200535740Y-104913600D01*
X200624260Y-104913600D01*
X200690442Y-104920118D01*
X200690442Y-104920118D01*
G37*
G36*
X213390442Y-104920118D02*
G01*
X213456627Y-104926637D01*
X213626466Y-104978157D01*
X213782991Y-105061822D01*
X213818729Y-105091152D01*
X213920186Y-105174414D01*
X214003448Y-105275871D01*
X214032778Y-105311609D01*
X214116443Y-105468134D01*
X214167963Y-105637973D01*
X214185359Y-105814600D01*
X214167963Y-105991227D01*
X214116443Y-106161066D01*
X214032778Y-106317591D01*
X214003448Y-106353329D01*
X213920186Y-106454786D01*
X213818729Y-106538048D01*
X213782991Y-106567378D01*
X213626466Y-106651043D01*
X213456627Y-106702563D01*
X213390442Y-106709082D01*
X213324260Y-106715600D01*
X213235740Y-106715600D01*
X213169558Y-106709082D01*
X213103373Y-106702563D01*
X212933534Y-106651043D01*
X212777009Y-106567378D01*
X212741271Y-106538048D01*
X212639814Y-106454786D01*
X212556552Y-106353329D01*
X212527222Y-106317591D01*
X212443557Y-106161066D01*
X212392037Y-105991227D01*
X212374641Y-105814600D01*
X212392037Y-105637973D01*
X212443557Y-105468134D01*
X212527222Y-105311609D01*
X212556552Y-105275871D01*
X212639814Y-105174414D01*
X212741271Y-105091152D01*
X212777009Y-105061822D01*
X212933534Y-104978157D01*
X213103373Y-104926637D01*
X213169558Y-104920118D01*
X213235740Y-104913600D01*
X213324260Y-104913600D01*
X213390442Y-104920118D01*
X213390442Y-104920118D01*
G37*
G36*
X121350442Y-92405518D02*
G01*
X121416627Y-92412037D01*
X121586466Y-92463557D01*
X121742991Y-92547222D01*
X121778729Y-92576552D01*
X121880186Y-92659814D01*
X121963448Y-92761271D01*
X121992778Y-92797009D01*
X122076443Y-92953534D01*
X122127963Y-93123373D01*
X122145359Y-93300000D01*
X122127963Y-93476627D01*
X122076443Y-93646466D01*
X121992778Y-93802991D01*
X121963448Y-93838729D01*
X121880186Y-93940186D01*
X121778729Y-94023448D01*
X121742991Y-94052778D01*
X121586466Y-94136443D01*
X121416627Y-94187963D01*
X121350443Y-94194481D01*
X121284260Y-94201000D01*
X121195740Y-94201000D01*
X121129557Y-94194481D01*
X121063373Y-94187963D01*
X120893534Y-94136443D01*
X120737009Y-94052778D01*
X120701271Y-94023448D01*
X120599814Y-93940186D01*
X120516552Y-93838729D01*
X120487222Y-93802991D01*
X120403557Y-93646466D01*
X120352037Y-93476627D01*
X120334641Y-93300000D01*
X120352037Y-93123373D01*
X120403557Y-92953534D01*
X120487222Y-92797009D01*
X120516552Y-92761271D01*
X120599814Y-92659814D01*
X120701271Y-92576552D01*
X120737009Y-92547222D01*
X120893534Y-92463557D01*
X121063373Y-92412037D01*
X121129558Y-92405518D01*
X121195740Y-92399000D01*
X121284260Y-92399000D01*
X121350442Y-92405518D01*
X121350442Y-92405518D01*
G37*
G36*
X116270442Y-92405518D02*
G01*
X116336627Y-92412037D01*
X116506466Y-92463557D01*
X116662991Y-92547222D01*
X116698729Y-92576552D01*
X116800186Y-92659814D01*
X116883448Y-92761271D01*
X116912778Y-92797009D01*
X116996443Y-92953534D01*
X117047963Y-93123373D01*
X117065359Y-93300000D01*
X117047963Y-93476627D01*
X116996443Y-93646466D01*
X116912778Y-93802991D01*
X116883448Y-93838729D01*
X116800186Y-93940186D01*
X116698729Y-94023448D01*
X116662991Y-94052778D01*
X116506466Y-94136443D01*
X116336627Y-94187963D01*
X116270443Y-94194481D01*
X116204260Y-94201000D01*
X116115740Y-94201000D01*
X116049557Y-94194481D01*
X115983373Y-94187963D01*
X115813534Y-94136443D01*
X115657009Y-94052778D01*
X115621271Y-94023448D01*
X115519814Y-93940186D01*
X115436552Y-93838729D01*
X115407222Y-93802991D01*
X115323557Y-93646466D01*
X115272037Y-93476627D01*
X115254641Y-93300000D01*
X115272037Y-93123373D01*
X115323557Y-92953534D01*
X115407222Y-92797009D01*
X115436552Y-92761271D01*
X115519814Y-92659814D01*
X115621271Y-92576552D01*
X115657009Y-92547222D01*
X115813534Y-92463557D01*
X115983373Y-92412037D01*
X116049558Y-92405518D01*
X116115740Y-92399000D01*
X116204260Y-92399000D01*
X116270442Y-92405518D01*
X116270442Y-92405518D01*
G37*
G36*
X111190442Y-92405518D02*
G01*
X111256627Y-92412037D01*
X111426466Y-92463557D01*
X111582991Y-92547222D01*
X111618729Y-92576552D01*
X111720186Y-92659814D01*
X111803448Y-92761271D01*
X111832778Y-92797009D01*
X111916443Y-92953534D01*
X111967963Y-93123373D01*
X111985359Y-93300000D01*
X111967963Y-93476627D01*
X111916443Y-93646466D01*
X111832778Y-93802991D01*
X111803448Y-93838729D01*
X111720186Y-93940186D01*
X111618729Y-94023448D01*
X111582991Y-94052778D01*
X111426466Y-94136443D01*
X111256627Y-94187963D01*
X111190443Y-94194481D01*
X111124260Y-94201000D01*
X111035740Y-94201000D01*
X110969557Y-94194481D01*
X110903373Y-94187963D01*
X110733534Y-94136443D01*
X110577009Y-94052778D01*
X110541271Y-94023448D01*
X110439814Y-93940186D01*
X110356552Y-93838729D01*
X110327222Y-93802991D01*
X110243557Y-93646466D01*
X110192037Y-93476627D01*
X110174641Y-93300000D01*
X110192037Y-93123373D01*
X110243557Y-92953534D01*
X110327222Y-92797009D01*
X110356552Y-92761271D01*
X110439814Y-92659814D01*
X110541271Y-92576552D01*
X110577009Y-92547222D01*
X110733534Y-92463557D01*
X110903373Y-92412037D01*
X110969558Y-92405518D01*
X111035740Y-92399000D01*
X111124260Y-92399000D01*
X111190442Y-92405518D01*
X111190442Y-92405518D01*
G37*
G36*
X113730442Y-92405518D02*
G01*
X113796627Y-92412037D01*
X113966466Y-92463557D01*
X114122991Y-92547222D01*
X114158729Y-92576552D01*
X114260186Y-92659814D01*
X114343448Y-92761271D01*
X114372778Y-92797009D01*
X114456443Y-92953534D01*
X114507963Y-93123373D01*
X114525359Y-93300000D01*
X114507963Y-93476627D01*
X114456443Y-93646466D01*
X114372778Y-93802991D01*
X114343448Y-93838729D01*
X114260186Y-93940186D01*
X114158729Y-94023448D01*
X114122991Y-94052778D01*
X113966466Y-94136443D01*
X113796627Y-94187963D01*
X113730443Y-94194481D01*
X113664260Y-94201000D01*
X113575740Y-94201000D01*
X113509557Y-94194481D01*
X113443373Y-94187963D01*
X113273534Y-94136443D01*
X113117009Y-94052778D01*
X113081271Y-94023448D01*
X112979814Y-93940186D01*
X112896552Y-93838729D01*
X112867222Y-93802991D01*
X112783557Y-93646466D01*
X112732037Y-93476627D01*
X112714641Y-93300000D01*
X112732037Y-93123373D01*
X112783557Y-92953534D01*
X112867222Y-92797009D01*
X112896552Y-92761271D01*
X112979814Y-92659814D01*
X113081271Y-92576552D01*
X113117009Y-92547222D01*
X113273534Y-92463557D01*
X113443373Y-92412037D01*
X113509558Y-92405518D01*
X113575740Y-92399000D01*
X113664260Y-92399000D01*
X113730442Y-92405518D01*
X113730442Y-92405518D01*
G37*
G36*
X118810442Y-92405518D02*
G01*
X118876627Y-92412037D01*
X119046466Y-92463557D01*
X119202991Y-92547222D01*
X119238729Y-92576552D01*
X119340186Y-92659814D01*
X119423448Y-92761271D01*
X119452778Y-92797009D01*
X119536443Y-92953534D01*
X119587963Y-93123373D01*
X119605359Y-93300000D01*
X119587963Y-93476627D01*
X119536443Y-93646466D01*
X119452778Y-93802991D01*
X119423448Y-93838729D01*
X119340186Y-93940186D01*
X119238729Y-94023448D01*
X119202991Y-94052778D01*
X119046466Y-94136443D01*
X118876627Y-94187963D01*
X118810443Y-94194481D01*
X118744260Y-94201000D01*
X118655740Y-94201000D01*
X118589557Y-94194481D01*
X118523373Y-94187963D01*
X118353534Y-94136443D01*
X118197009Y-94052778D01*
X118161271Y-94023448D01*
X118059814Y-93940186D01*
X117976552Y-93838729D01*
X117947222Y-93802991D01*
X117863557Y-93646466D01*
X117812037Y-93476627D01*
X117794641Y-93300000D01*
X117812037Y-93123373D01*
X117863557Y-92953534D01*
X117947222Y-92797009D01*
X117976552Y-92761271D01*
X118059814Y-92659814D01*
X118161271Y-92576552D01*
X118197009Y-92547222D01*
X118353534Y-92463557D01*
X118523373Y-92412037D01*
X118589558Y-92405518D01*
X118655740Y-92399000D01*
X118744260Y-92399000D01*
X118810442Y-92405518D01*
X118810442Y-92405518D01*
G37*
G36*
X123890442Y-92405518D02*
G01*
X123956627Y-92412037D01*
X124126466Y-92463557D01*
X124282991Y-92547222D01*
X124318729Y-92576552D01*
X124420186Y-92659814D01*
X124503448Y-92761271D01*
X124532778Y-92797009D01*
X124616443Y-92953534D01*
X124667963Y-93123373D01*
X124685359Y-93300000D01*
X124667963Y-93476627D01*
X124616443Y-93646466D01*
X124532778Y-93802991D01*
X124503448Y-93838729D01*
X124420186Y-93940186D01*
X124318729Y-94023448D01*
X124282991Y-94052778D01*
X124126466Y-94136443D01*
X123956627Y-94187963D01*
X123890443Y-94194481D01*
X123824260Y-94201000D01*
X123735740Y-94201000D01*
X123669557Y-94194481D01*
X123603373Y-94187963D01*
X123433534Y-94136443D01*
X123277009Y-94052778D01*
X123241271Y-94023448D01*
X123139814Y-93940186D01*
X123056552Y-93838729D01*
X123027222Y-93802991D01*
X122943557Y-93646466D01*
X122892037Y-93476627D01*
X122874641Y-93300000D01*
X122892037Y-93123373D01*
X122943557Y-92953534D01*
X123027222Y-92797009D01*
X123056552Y-92761271D01*
X123139814Y-92659814D01*
X123241271Y-92576552D01*
X123277009Y-92547222D01*
X123433534Y-92463557D01*
X123603373Y-92412037D01*
X123669558Y-92405518D01*
X123735740Y-92399000D01*
X123824260Y-92399000D01*
X123890442Y-92405518D01*
X123890442Y-92405518D01*
G37*
G36*
X126430442Y-92405518D02*
G01*
X126496627Y-92412037D01*
X126666466Y-92463557D01*
X126822991Y-92547222D01*
X126858729Y-92576552D01*
X126960186Y-92659814D01*
X127043448Y-92761271D01*
X127072778Y-92797009D01*
X127156443Y-92953534D01*
X127207963Y-93123373D01*
X127225359Y-93300000D01*
X127207963Y-93476627D01*
X127156443Y-93646466D01*
X127072778Y-93802991D01*
X127043448Y-93838729D01*
X126960186Y-93940186D01*
X126858729Y-94023448D01*
X126822991Y-94052778D01*
X126666466Y-94136443D01*
X126496627Y-94187963D01*
X126430443Y-94194481D01*
X126364260Y-94201000D01*
X126275740Y-94201000D01*
X126209557Y-94194481D01*
X126143373Y-94187963D01*
X125973534Y-94136443D01*
X125817009Y-94052778D01*
X125781271Y-94023448D01*
X125679814Y-93940186D01*
X125596552Y-93838729D01*
X125567222Y-93802991D01*
X125483557Y-93646466D01*
X125432037Y-93476627D01*
X125414641Y-93300000D01*
X125432037Y-93123373D01*
X125483557Y-92953534D01*
X125567222Y-92797009D01*
X125596552Y-92761271D01*
X125679814Y-92659814D01*
X125781271Y-92576552D01*
X125817009Y-92547222D01*
X125973534Y-92463557D01*
X126143373Y-92412037D01*
X126209558Y-92405518D01*
X126275740Y-92399000D01*
X126364260Y-92399000D01*
X126430442Y-92405518D01*
X126430442Y-92405518D01*
G37*
G36*
X106901000Y-94201000D02*
G01*
X105099000Y-94201000D01*
X105099000Y-92399000D01*
X106901000Y-92399000D01*
X106901000Y-94201000D01*
X106901000Y-94201000D01*
G37*
G36*
X108650442Y-92405518D02*
G01*
X108716627Y-92412037D01*
X108886466Y-92463557D01*
X109042991Y-92547222D01*
X109078729Y-92576552D01*
X109180186Y-92659814D01*
X109263448Y-92761271D01*
X109292778Y-92797009D01*
X109376443Y-92953534D01*
X109427963Y-93123373D01*
X109445359Y-93300000D01*
X109427963Y-93476627D01*
X109376443Y-93646466D01*
X109292778Y-93802991D01*
X109263448Y-93838729D01*
X109180186Y-93940186D01*
X109078729Y-94023448D01*
X109042991Y-94052778D01*
X108886466Y-94136443D01*
X108716627Y-94187963D01*
X108650443Y-94194481D01*
X108584260Y-94201000D01*
X108495740Y-94201000D01*
X108429557Y-94194481D01*
X108363373Y-94187963D01*
X108193534Y-94136443D01*
X108037009Y-94052778D01*
X108001271Y-94023448D01*
X107899814Y-93940186D01*
X107816552Y-93838729D01*
X107787222Y-93802991D01*
X107703557Y-93646466D01*
X107652037Y-93476627D01*
X107634641Y-93300000D01*
X107652037Y-93123373D01*
X107703557Y-92953534D01*
X107787222Y-92797009D01*
X107816552Y-92761271D01*
X107899814Y-92659814D01*
X108001271Y-92576552D01*
X108037009Y-92547222D01*
X108193534Y-92463557D01*
X108363373Y-92412037D01*
X108429558Y-92405518D01*
X108495740Y-92399000D01*
X108584260Y-92399000D01*
X108650442Y-92405518D01*
X108650442Y-92405518D01*
G37*
G36*
X142998533Y-90910542D02*
G01*
X143069641Y-90917545D01*
X143206492Y-90959059D01*
X143206495Y-90959060D01*
X143332614Y-91026472D01*
X143443163Y-91117197D01*
X143533888Y-91227746D01*
X143601300Y-91353865D01*
X143601301Y-91353868D01*
X143642815Y-91490719D01*
X143656832Y-91633040D01*
X143642815Y-91775361D01*
X143601301Y-91912212D01*
X143601300Y-91912215D01*
X143533888Y-92038334D01*
X143443163Y-92148883D01*
X143332614Y-92239608D01*
X143206495Y-92307020D01*
X143206492Y-92307021D01*
X143069641Y-92348535D01*
X142998533Y-92355538D01*
X142962980Y-92359040D01*
X142891660Y-92359040D01*
X142856107Y-92355538D01*
X142784999Y-92348535D01*
X142648148Y-92307021D01*
X142648145Y-92307020D01*
X142522026Y-92239608D01*
X142411477Y-92148883D01*
X142320752Y-92038334D01*
X142253340Y-91912215D01*
X142253339Y-91912212D01*
X142211825Y-91775361D01*
X142197808Y-91633040D01*
X142211825Y-91490719D01*
X142253339Y-91353868D01*
X142253340Y-91353865D01*
X142320752Y-91227746D01*
X142411477Y-91117197D01*
X142522026Y-91026472D01*
X142648145Y-90959060D01*
X142648148Y-90959059D01*
X142784999Y-90917545D01*
X142856107Y-90910542D01*
X142891660Y-90907040D01*
X142962980Y-90907040D01*
X142998533Y-90910542D01*
X142998533Y-90910542D01*
G37*
G36*
X145653320Y-92359040D02*
G01*
X144201320Y-92359040D01*
X144201320Y-90907040D01*
X145653320Y-90907040D01*
X145653320Y-92359040D01*
X145653320Y-92359040D01*
G37*
G36*
X142998533Y-88910542D02*
G01*
X143069641Y-88917545D01*
X143206492Y-88959059D01*
X143206495Y-88959060D01*
X143332614Y-89026472D01*
X143443163Y-89117197D01*
X143533888Y-89227746D01*
X143601300Y-89353865D01*
X143601301Y-89353868D01*
X143642815Y-89490719D01*
X143656832Y-89633040D01*
X143642815Y-89775361D01*
X143601301Y-89912212D01*
X143601300Y-89912215D01*
X143533888Y-90038334D01*
X143443163Y-90148883D01*
X143332614Y-90239608D01*
X143206495Y-90307020D01*
X143206492Y-90307021D01*
X143069641Y-90348535D01*
X142998533Y-90355538D01*
X142962980Y-90359040D01*
X142891660Y-90359040D01*
X142856107Y-90355538D01*
X142784999Y-90348535D01*
X142648148Y-90307021D01*
X142648145Y-90307020D01*
X142522026Y-90239608D01*
X142411477Y-90148883D01*
X142320752Y-90038334D01*
X142253340Y-89912215D01*
X142253339Y-89912212D01*
X142211825Y-89775361D01*
X142197808Y-89633040D01*
X142211825Y-89490719D01*
X142253339Y-89353868D01*
X142253340Y-89353865D01*
X142320752Y-89227746D01*
X142411477Y-89117197D01*
X142522026Y-89026472D01*
X142648145Y-88959060D01*
X142648148Y-88959059D01*
X142784999Y-88917545D01*
X142856107Y-88910542D01*
X142891660Y-88907040D01*
X142962980Y-88907040D01*
X142998533Y-88910542D01*
X142998533Y-88910542D01*
G37*
G36*
X144998533Y-88910542D02*
G01*
X145069641Y-88917545D01*
X145206492Y-88959059D01*
X145206495Y-88959060D01*
X145332614Y-89026472D01*
X145443163Y-89117197D01*
X145533888Y-89227746D01*
X145601300Y-89353865D01*
X145601301Y-89353868D01*
X145642815Y-89490719D01*
X145656832Y-89633040D01*
X145642815Y-89775361D01*
X145601301Y-89912212D01*
X145601300Y-89912215D01*
X145533888Y-90038334D01*
X145443163Y-90148883D01*
X145332614Y-90239608D01*
X145206495Y-90307020D01*
X145206492Y-90307021D01*
X145069641Y-90348535D01*
X144998533Y-90355538D01*
X144962980Y-90359040D01*
X144891660Y-90359040D01*
X144856107Y-90355538D01*
X144784999Y-90348535D01*
X144648148Y-90307021D01*
X144648145Y-90307020D01*
X144522026Y-90239608D01*
X144411477Y-90148883D01*
X144320752Y-90038334D01*
X144253340Y-89912215D01*
X144253339Y-89912212D01*
X144211825Y-89775361D01*
X144197808Y-89633040D01*
X144211825Y-89490719D01*
X144253339Y-89353868D01*
X144253340Y-89353865D01*
X144320752Y-89227746D01*
X144411477Y-89117197D01*
X144522026Y-89026472D01*
X144648145Y-88959060D01*
X144648148Y-88959059D01*
X144784999Y-88917545D01*
X144856107Y-88910542D01*
X144891660Y-88907040D01*
X144962980Y-88907040D01*
X144998533Y-88910542D01*
X144998533Y-88910542D01*
G37*
G36*
X142998533Y-86910542D02*
G01*
X143069641Y-86917545D01*
X143206492Y-86959059D01*
X143206495Y-86959060D01*
X143332614Y-87026472D01*
X143443163Y-87117197D01*
X143533888Y-87227746D01*
X143601300Y-87353865D01*
X143601301Y-87353868D01*
X143642815Y-87490719D01*
X143656832Y-87633040D01*
X143642815Y-87775361D01*
X143601301Y-87912212D01*
X143601300Y-87912215D01*
X143533888Y-88038334D01*
X143443163Y-88148883D01*
X143332614Y-88239608D01*
X143206495Y-88307020D01*
X143206492Y-88307021D01*
X143069641Y-88348535D01*
X142998533Y-88355538D01*
X142962980Y-88359040D01*
X142891660Y-88359040D01*
X142856107Y-88355538D01*
X142784999Y-88348535D01*
X142648148Y-88307021D01*
X142648145Y-88307020D01*
X142522026Y-88239608D01*
X142411477Y-88148883D01*
X142320752Y-88038334D01*
X142253340Y-87912215D01*
X142253339Y-87912212D01*
X142211825Y-87775361D01*
X142197808Y-87633040D01*
X142211825Y-87490719D01*
X142253339Y-87353868D01*
X142253340Y-87353865D01*
X142320752Y-87227746D01*
X142411477Y-87117197D01*
X142522026Y-87026472D01*
X142648145Y-86959060D01*
X142648148Y-86959059D01*
X142784999Y-86917545D01*
X142856107Y-86910542D01*
X142891660Y-86907040D01*
X142962980Y-86907040D01*
X142998533Y-86910542D01*
X142998533Y-86910542D01*
G37*
G36*
X144998533Y-86910542D02*
G01*
X145069641Y-86917545D01*
X145206492Y-86959059D01*
X145206495Y-86959060D01*
X145332614Y-87026472D01*
X145443163Y-87117197D01*
X145533888Y-87227746D01*
X145601300Y-87353865D01*
X145601301Y-87353868D01*
X145642815Y-87490719D01*
X145656832Y-87633040D01*
X145642815Y-87775361D01*
X145601301Y-87912212D01*
X145601300Y-87912215D01*
X145533888Y-88038334D01*
X145443163Y-88148883D01*
X145332614Y-88239608D01*
X145206495Y-88307020D01*
X145206492Y-88307021D01*
X145069641Y-88348535D01*
X144998533Y-88355538D01*
X144962980Y-88359040D01*
X144891660Y-88359040D01*
X144856107Y-88355538D01*
X144784999Y-88348535D01*
X144648148Y-88307021D01*
X144648145Y-88307020D01*
X144522026Y-88239608D01*
X144411477Y-88148883D01*
X144320752Y-88038334D01*
X144253340Y-87912215D01*
X144253339Y-87912212D01*
X144211825Y-87775361D01*
X144197808Y-87633040D01*
X144211825Y-87490719D01*
X144253339Y-87353868D01*
X144253340Y-87353865D01*
X144320752Y-87227746D01*
X144411477Y-87117197D01*
X144522026Y-87026472D01*
X144648145Y-86959060D01*
X144648148Y-86959059D01*
X144784999Y-86917545D01*
X144856107Y-86910542D01*
X144891660Y-86907040D01*
X144962980Y-86907040D01*
X144998533Y-86910542D01*
X144998533Y-86910542D01*
G37*
G36*
X116270442Y-84785518D02*
G01*
X116336627Y-84792037D01*
X116506466Y-84843557D01*
X116662991Y-84927222D01*
X116698729Y-84956552D01*
X116800186Y-85039814D01*
X116883448Y-85141271D01*
X116912778Y-85177009D01*
X116996443Y-85333534D01*
X117047963Y-85503373D01*
X117065359Y-85680000D01*
X117047963Y-85856627D01*
X116996443Y-86026466D01*
X116912778Y-86182991D01*
X116883448Y-86218729D01*
X116800186Y-86320186D01*
X116698729Y-86403448D01*
X116662991Y-86432778D01*
X116506466Y-86516443D01*
X116336627Y-86567963D01*
X116270442Y-86574482D01*
X116204260Y-86581000D01*
X116115740Y-86581000D01*
X116049558Y-86574482D01*
X115983373Y-86567963D01*
X115813534Y-86516443D01*
X115657009Y-86432778D01*
X115621271Y-86403448D01*
X115519814Y-86320186D01*
X115436552Y-86218729D01*
X115407222Y-86182991D01*
X115323557Y-86026466D01*
X115272037Y-85856627D01*
X115254641Y-85680000D01*
X115272037Y-85503373D01*
X115323557Y-85333534D01*
X115407222Y-85177009D01*
X115436552Y-85141271D01*
X115519814Y-85039814D01*
X115621271Y-84956552D01*
X115657009Y-84927222D01*
X115813534Y-84843557D01*
X115983373Y-84792037D01*
X116049558Y-84785518D01*
X116115740Y-84779000D01*
X116204260Y-84779000D01*
X116270442Y-84785518D01*
X116270442Y-84785518D01*
G37*
G36*
X106901000Y-86581000D02*
G01*
X105099000Y-86581000D01*
X105099000Y-84779000D01*
X106901000Y-84779000D01*
X106901000Y-86581000D01*
X106901000Y-86581000D01*
G37*
G36*
X111190442Y-84785518D02*
G01*
X111256627Y-84792037D01*
X111426466Y-84843557D01*
X111582991Y-84927222D01*
X111618729Y-84956552D01*
X111720186Y-85039814D01*
X111803448Y-85141271D01*
X111832778Y-85177009D01*
X111916443Y-85333534D01*
X111967963Y-85503373D01*
X111985359Y-85680000D01*
X111967963Y-85856627D01*
X111916443Y-86026466D01*
X111832778Y-86182991D01*
X111803448Y-86218729D01*
X111720186Y-86320186D01*
X111618729Y-86403448D01*
X111582991Y-86432778D01*
X111426466Y-86516443D01*
X111256627Y-86567963D01*
X111190442Y-86574482D01*
X111124260Y-86581000D01*
X111035740Y-86581000D01*
X110969558Y-86574482D01*
X110903373Y-86567963D01*
X110733534Y-86516443D01*
X110577009Y-86432778D01*
X110541271Y-86403448D01*
X110439814Y-86320186D01*
X110356552Y-86218729D01*
X110327222Y-86182991D01*
X110243557Y-86026466D01*
X110192037Y-85856627D01*
X110174641Y-85680000D01*
X110192037Y-85503373D01*
X110243557Y-85333534D01*
X110327222Y-85177009D01*
X110356552Y-85141271D01*
X110439814Y-85039814D01*
X110541271Y-84956552D01*
X110577009Y-84927222D01*
X110733534Y-84843557D01*
X110903373Y-84792037D01*
X110969558Y-84785518D01*
X111035740Y-84779000D01*
X111124260Y-84779000D01*
X111190442Y-84785518D01*
X111190442Y-84785518D01*
G37*
G36*
X113730442Y-84785518D02*
G01*
X113796627Y-84792037D01*
X113966466Y-84843557D01*
X114122991Y-84927222D01*
X114158729Y-84956552D01*
X114260186Y-85039814D01*
X114343448Y-85141271D01*
X114372778Y-85177009D01*
X114456443Y-85333534D01*
X114507963Y-85503373D01*
X114525359Y-85680000D01*
X114507963Y-85856627D01*
X114456443Y-86026466D01*
X114372778Y-86182991D01*
X114343448Y-86218729D01*
X114260186Y-86320186D01*
X114158729Y-86403448D01*
X114122991Y-86432778D01*
X113966466Y-86516443D01*
X113796627Y-86567963D01*
X113730442Y-86574482D01*
X113664260Y-86581000D01*
X113575740Y-86581000D01*
X113509558Y-86574482D01*
X113443373Y-86567963D01*
X113273534Y-86516443D01*
X113117009Y-86432778D01*
X113081271Y-86403448D01*
X112979814Y-86320186D01*
X112896552Y-86218729D01*
X112867222Y-86182991D01*
X112783557Y-86026466D01*
X112732037Y-85856627D01*
X112714641Y-85680000D01*
X112732037Y-85503373D01*
X112783557Y-85333534D01*
X112867222Y-85177009D01*
X112896552Y-85141271D01*
X112979814Y-85039814D01*
X113081271Y-84956552D01*
X113117009Y-84927222D01*
X113273534Y-84843557D01*
X113443373Y-84792037D01*
X113509558Y-84785518D01*
X113575740Y-84779000D01*
X113664260Y-84779000D01*
X113730442Y-84785518D01*
X113730442Y-84785518D01*
G37*
G36*
X118810442Y-84785518D02*
G01*
X118876627Y-84792037D01*
X119046466Y-84843557D01*
X119202991Y-84927222D01*
X119238729Y-84956552D01*
X119340186Y-85039814D01*
X119423448Y-85141271D01*
X119452778Y-85177009D01*
X119536443Y-85333534D01*
X119587963Y-85503373D01*
X119605359Y-85680000D01*
X119587963Y-85856627D01*
X119536443Y-86026466D01*
X119452778Y-86182991D01*
X119423448Y-86218729D01*
X119340186Y-86320186D01*
X119238729Y-86403448D01*
X119202991Y-86432778D01*
X119046466Y-86516443D01*
X118876627Y-86567963D01*
X118810442Y-86574482D01*
X118744260Y-86581000D01*
X118655740Y-86581000D01*
X118589558Y-86574482D01*
X118523373Y-86567963D01*
X118353534Y-86516443D01*
X118197009Y-86432778D01*
X118161271Y-86403448D01*
X118059814Y-86320186D01*
X117976552Y-86218729D01*
X117947222Y-86182991D01*
X117863557Y-86026466D01*
X117812037Y-85856627D01*
X117794641Y-85680000D01*
X117812037Y-85503373D01*
X117863557Y-85333534D01*
X117947222Y-85177009D01*
X117976552Y-85141271D01*
X118059814Y-85039814D01*
X118161271Y-84956552D01*
X118197009Y-84927222D01*
X118353534Y-84843557D01*
X118523373Y-84792037D01*
X118589558Y-84785518D01*
X118655740Y-84779000D01*
X118744260Y-84779000D01*
X118810442Y-84785518D01*
X118810442Y-84785518D01*
G37*
G36*
X123890442Y-84785518D02*
G01*
X123956627Y-84792037D01*
X124126466Y-84843557D01*
X124282991Y-84927222D01*
X124318729Y-84956552D01*
X124420186Y-85039814D01*
X124503448Y-85141271D01*
X124532778Y-85177009D01*
X124616443Y-85333534D01*
X124667963Y-85503373D01*
X124685359Y-85680000D01*
X124667963Y-85856627D01*
X124616443Y-86026466D01*
X124532778Y-86182991D01*
X124503448Y-86218729D01*
X124420186Y-86320186D01*
X124318729Y-86403448D01*
X124282991Y-86432778D01*
X124126466Y-86516443D01*
X123956627Y-86567963D01*
X123890442Y-86574482D01*
X123824260Y-86581000D01*
X123735740Y-86581000D01*
X123669558Y-86574482D01*
X123603373Y-86567963D01*
X123433534Y-86516443D01*
X123277009Y-86432778D01*
X123241271Y-86403448D01*
X123139814Y-86320186D01*
X123056552Y-86218729D01*
X123027222Y-86182991D01*
X122943557Y-86026466D01*
X122892037Y-85856627D01*
X122874641Y-85680000D01*
X122892037Y-85503373D01*
X122943557Y-85333534D01*
X123027222Y-85177009D01*
X123056552Y-85141271D01*
X123139814Y-85039814D01*
X123241271Y-84956552D01*
X123277009Y-84927222D01*
X123433534Y-84843557D01*
X123603373Y-84792037D01*
X123669558Y-84785518D01*
X123735740Y-84779000D01*
X123824260Y-84779000D01*
X123890442Y-84785518D01*
X123890442Y-84785518D01*
G37*
G36*
X121350442Y-84785518D02*
G01*
X121416627Y-84792037D01*
X121586466Y-84843557D01*
X121742991Y-84927222D01*
X121778729Y-84956552D01*
X121880186Y-85039814D01*
X121963448Y-85141271D01*
X121992778Y-85177009D01*
X122076443Y-85333534D01*
X122127963Y-85503373D01*
X122145359Y-85680000D01*
X122127963Y-85856627D01*
X122076443Y-86026466D01*
X121992778Y-86182991D01*
X121963448Y-86218729D01*
X121880186Y-86320186D01*
X121778729Y-86403448D01*
X121742991Y-86432778D01*
X121586466Y-86516443D01*
X121416627Y-86567963D01*
X121350442Y-86574482D01*
X121284260Y-86581000D01*
X121195740Y-86581000D01*
X121129558Y-86574482D01*
X121063373Y-86567963D01*
X120893534Y-86516443D01*
X120737009Y-86432778D01*
X120701271Y-86403448D01*
X120599814Y-86320186D01*
X120516552Y-86218729D01*
X120487222Y-86182991D01*
X120403557Y-86026466D01*
X120352037Y-85856627D01*
X120334641Y-85680000D01*
X120352037Y-85503373D01*
X120403557Y-85333534D01*
X120487222Y-85177009D01*
X120516552Y-85141271D01*
X120599814Y-85039814D01*
X120701271Y-84956552D01*
X120737009Y-84927222D01*
X120893534Y-84843557D01*
X121063373Y-84792037D01*
X121129558Y-84785518D01*
X121195740Y-84779000D01*
X121284260Y-84779000D01*
X121350442Y-84785518D01*
X121350442Y-84785518D01*
G37*
G36*
X126430442Y-84785518D02*
G01*
X126496627Y-84792037D01*
X126666466Y-84843557D01*
X126822991Y-84927222D01*
X126858729Y-84956552D01*
X126960186Y-85039814D01*
X127043448Y-85141271D01*
X127072778Y-85177009D01*
X127156443Y-85333534D01*
X127207963Y-85503373D01*
X127225359Y-85680000D01*
X127207963Y-85856627D01*
X127156443Y-86026466D01*
X127072778Y-86182991D01*
X127043448Y-86218729D01*
X126960186Y-86320186D01*
X126858729Y-86403448D01*
X126822991Y-86432778D01*
X126666466Y-86516443D01*
X126496627Y-86567963D01*
X126430442Y-86574482D01*
X126364260Y-86581000D01*
X126275740Y-86581000D01*
X126209558Y-86574482D01*
X126143373Y-86567963D01*
X125973534Y-86516443D01*
X125817009Y-86432778D01*
X125781271Y-86403448D01*
X125679814Y-86320186D01*
X125596552Y-86218729D01*
X125567222Y-86182991D01*
X125483557Y-86026466D01*
X125432037Y-85856627D01*
X125414641Y-85680000D01*
X125432037Y-85503373D01*
X125483557Y-85333534D01*
X125567222Y-85177009D01*
X125596552Y-85141271D01*
X125679814Y-85039814D01*
X125781271Y-84956552D01*
X125817009Y-84927222D01*
X125973534Y-84843557D01*
X126143373Y-84792037D01*
X126209558Y-84785518D01*
X126275740Y-84779000D01*
X126364260Y-84779000D01*
X126430442Y-84785518D01*
X126430442Y-84785518D01*
G37*
G36*
X108650442Y-84785518D02*
G01*
X108716627Y-84792037D01*
X108886466Y-84843557D01*
X109042991Y-84927222D01*
X109078729Y-84956552D01*
X109180186Y-85039814D01*
X109263448Y-85141271D01*
X109292778Y-85177009D01*
X109376443Y-85333534D01*
X109427963Y-85503373D01*
X109445359Y-85680000D01*
X109427963Y-85856627D01*
X109376443Y-86026466D01*
X109292778Y-86182991D01*
X109263448Y-86218729D01*
X109180186Y-86320186D01*
X109078729Y-86403448D01*
X109042991Y-86432778D01*
X108886466Y-86516443D01*
X108716627Y-86567963D01*
X108650442Y-86574482D01*
X108584260Y-86581000D01*
X108495740Y-86581000D01*
X108429558Y-86574482D01*
X108363373Y-86567963D01*
X108193534Y-86516443D01*
X108037009Y-86432778D01*
X108001271Y-86403448D01*
X107899814Y-86320186D01*
X107816552Y-86218729D01*
X107787222Y-86182991D01*
X107703557Y-86026466D01*
X107652037Y-85856627D01*
X107634641Y-85680000D01*
X107652037Y-85503373D01*
X107703557Y-85333534D01*
X107787222Y-85177009D01*
X107816552Y-85141271D01*
X107899814Y-85039814D01*
X108001271Y-84956552D01*
X108037009Y-84927222D01*
X108193534Y-84843557D01*
X108363373Y-84792037D01*
X108429558Y-84785518D01*
X108495740Y-84779000D01*
X108584260Y-84779000D01*
X108650442Y-84785518D01*
X108650442Y-84785518D01*
G37*
G36*
X142998533Y-84910542D02*
G01*
X143069641Y-84917545D01*
X143206492Y-84959059D01*
X143206495Y-84959060D01*
X143332614Y-85026472D01*
X143443163Y-85117197D01*
X143533888Y-85227746D01*
X143601300Y-85353865D01*
X143601301Y-85353868D01*
X143642815Y-85490719D01*
X143656832Y-85633040D01*
X143642815Y-85775361D01*
X143618163Y-85856625D01*
X143601300Y-85912215D01*
X143533888Y-86038334D01*
X143443163Y-86148883D01*
X143332614Y-86239608D01*
X143206495Y-86307020D01*
X143206492Y-86307021D01*
X143069641Y-86348535D01*
X142998533Y-86355538D01*
X142962980Y-86359040D01*
X142891660Y-86359040D01*
X142856107Y-86355538D01*
X142784999Y-86348535D01*
X142648148Y-86307021D01*
X142648145Y-86307020D01*
X142522026Y-86239608D01*
X142411477Y-86148883D01*
X142320752Y-86038334D01*
X142253340Y-85912215D01*
X142236477Y-85856625D01*
X142211825Y-85775361D01*
X142197808Y-85633040D01*
X142211825Y-85490719D01*
X142253339Y-85353868D01*
X142253340Y-85353865D01*
X142320752Y-85227746D01*
X142411477Y-85117197D01*
X142522026Y-85026472D01*
X142648145Y-84959060D01*
X142648148Y-84959059D01*
X142784999Y-84917545D01*
X142856107Y-84910542D01*
X142891660Y-84907040D01*
X142962980Y-84907040D01*
X142998533Y-84910542D01*
X142998533Y-84910542D01*
G37*
G36*
X144998533Y-84910542D02*
G01*
X145069641Y-84917545D01*
X145206492Y-84959059D01*
X145206495Y-84959060D01*
X145332614Y-85026472D01*
X145443163Y-85117197D01*
X145533888Y-85227746D01*
X145601300Y-85353865D01*
X145601301Y-85353868D01*
X145642815Y-85490719D01*
X145656832Y-85633040D01*
X145642815Y-85775361D01*
X145618163Y-85856625D01*
X145601300Y-85912215D01*
X145533888Y-86038334D01*
X145443163Y-86148883D01*
X145332614Y-86239608D01*
X145206495Y-86307020D01*
X145206492Y-86307021D01*
X145069641Y-86348535D01*
X144998533Y-86355538D01*
X144962980Y-86359040D01*
X144891660Y-86359040D01*
X144856107Y-86355538D01*
X144784999Y-86348535D01*
X144648148Y-86307021D01*
X144648145Y-86307020D01*
X144522026Y-86239608D01*
X144411477Y-86148883D01*
X144320752Y-86038334D01*
X144253340Y-85912215D01*
X144236477Y-85856625D01*
X144211825Y-85775361D01*
X144197808Y-85633040D01*
X144211825Y-85490719D01*
X144253339Y-85353868D01*
X144253340Y-85353865D01*
X144320752Y-85227746D01*
X144411477Y-85117197D01*
X144522026Y-85026472D01*
X144648145Y-84959060D01*
X144648148Y-84959059D01*
X144784999Y-84917545D01*
X144856107Y-84910542D01*
X144891660Y-84907040D01*
X144962980Y-84907040D01*
X144998533Y-84910542D01*
X144998533Y-84910542D01*
G37*
G36*
X108650443Y-79725519D02*
G01*
X108716627Y-79732037D01*
X108886466Y-79783557D01*
X109042991Y-79867222D01*
X109078729Y-79896552D01*
X109180186Y-79979814D01*
X109263448Y-80081271D01*
X109292778Y-80117009D01*
X109376443Y-80273534D01*
X109427963Y-80443373D01*
X109445359Y-80620000D01*
X109427963Y-80796627D01*
X109376443Y-80966466D01*
X109292778Y-81122991D01*
X109263448Y-81158729D01*
X109180186Y-81260186D01*
X109078729Y-81343448D01*
X109042991Y-81372778D01*
X108886466Y-81456443D01*
X108716627Y-81507963D01*
X108650443Y-81514481D01*
X108584260Y-81521000D01*
X108495740Y-81521000D01*
X108429557Y-81514481D01*
X108363373Y-81507963D01*
X108193534Y-81456443D01*
X108037009Y-81372778D01*
X108001271Y-81343448D01*
X107899814Y-81260186D01*
X107816552Y-81158729D01*
X107787222Y-81122991D01*
X107703557Y-80966466D01*
X107652037Y-80796627D01*
X107634641Y-80620000D01*
X107652037Y-80443373D01*
X107703557Y-80273534D01*
X107787222Y-80117009D01*
X107816552Y-80081271D01*
X107899814Y-79979814D01*
X108001271Y-79896552D01*
X108037009Y-79867222D01*
X108193534Y-79783557D01*
X108363373Y-79732037D01*
X108429557Y-79725519D01*
X108495740Y-79719000D01*
X108584260Y-79719000D01*
X108650443Y-79725519D01*
X108650443Y-79725519D01*
G37*
G36*
X126430443Y-79725519D02*
G01*
X126496627Y-79732037D01*
X126666466Y-79783557D01*
X126822991Y-79867222D01*
X126858729Y-79896552D01*
X126960186Y-79979814D01*
X127043448Y-80081271D01*
X127072778Y-80117009D01*
X127156443Y-80273534D01*
X127207963Y-80443373D01*
X127225359Y-80620000D01*
X127207963Y-80796627D01*
X127156443Y-80966466D01*
X127072778Y-81122991D01*
X127043448Y-81158729D01*
X126960186Y-81260186D01*
X126858729Y-81343448D01*
X126822991Y-81372778D01*
X126666466Y-81456443D01*
X126496627Y-81507963D01*
X126430443Y-81514481D01*
X126364260Y-81521000D01*
X126275740Y-81521000D01*
X126209557Y-81514481D01*
X126143373Y-81507963D01*
X125973534Y-81456443D01*
X125817009Y-81372778D01*
X125781271Y-81343448D01*
X125679814Y-81260186D01*
X125596552Y-81158729D01*
X125567222Y-81122991D01*
X125483557Y-80966466D01*
X125432037Y-80796627D01*
X125414641Y-80620000D01*
X125432037Y-80443373D01*
X125483557Y-80273534D01*
X125567222Y-80117009D01*
X125596552Y-80081271D01*
X125679814Y-79979814D01*
X125781271Y-79896552D01*
X125817009Y-79867222D01*
X125973534Y-79783557D01*
X126143373Y-79732037D01*
X126209557Y-79725519D01*
X126275740Y-79719000D01*
X126364260Y-79719000D01*
X126430443Y-79725519D01*
X126430443Y-79725519D01*
G37*
G36*
X123890443Y-79725519D02*
G01*
X123956627Y-79732037D01*
X124126466Y-79783557D01*
X124282991Y-79867222D01*
X124318729Y-79896552D01*
X124420186Y-79979814D01*
X124503448Y-80081271D01*
X124532778Y-80117009D01*
X124616443Y-80273534D01*
X124667963Y-80443373D01*
X124685359Y-80620000D01*
X124667963Y-80796627D01*
X124616443Y-80966466D01*
X124532778Y-81122991D01*
X124503448Y-81158729D01*
X124420186Y-81260186D01*
X124318729Y-81343448D01*
X124282991Y-81372778D01*
X124126466Y-81456443D01*
X123956627Y-81507963D01*
X123890443Y-81514481D01*
X123824260Y-81521000D01*
X123735740Y-81521000D01*
X123669557Y-81514481D01*
X123603373Y-81507963D01*
X123433534Y-81456443D01*
X123277009Y-81372778D01*
X123241271Y-81343448D01*
X123139814Y-81260186D01*
X123056552Y-81158729D01*
X123027222Y-81122991D01*
X122943557Y-80966466D01*
X122892037Y-80796627D01*
X122874641Y-80620000D01*
X122892037Y-80443373D01*
X122943557Y-80273534D01*
X123027222Y-80117009D01*
X123056552Y-80081271D01*
X123139814Y-79979814D01*
X123241271Y-79896552D01*
X123277009Y-79867222D01*
X123433534Y-79783557D01*
X123603373Y-79732037D01*
X123669557Y-79725519D01*
X123735740Y-79719000D01*
X123824260Y-79719000D01*
X123890443Y-79725519D01*
X123890443Y-79725519D01*
G37*
G36*
X121350443Y-79725519D02*
G01*
X121416627Y-79732037D01*
X121586466Y-79783557D01*
X121742991Y-79867222D01*
X121778729Y-79896552D01*
X121880186Y-79979814D01*
X121963448Y-80081271D01*
X121992778Y-80117009D01*
X122076443Y-80273534D01*
X122127963Y-80443373D01*
X122145359Y-80620000D01*
X122127963Y-80796627D01*
X122076443Y-80966466D01*
X121992778Y-81122991D01*
X121963448Y-81158729D01*
X121880186Y-81260186D01*
X121778729Y-81343448D01*
X121742991Y-81372778D01*
X121586466Y-81456443D01*
X121416627Y-81507963D01*
X121350443Y-81514481D01*
X121284260Y-81521000D01*
X121195740Y-81521000D01*
X121129557Y-81514481D01*
X121063373Y-81507963D01*
X120893534Y-81456443D01*
X120737009Y-81372778D01*
X120701271Y-81343448D01*
X120599814Y-81260186D01*
X120516552Y-81158729D01*
X120487222Y-81122991D01*
X120403557Y-80966466D01*
X120352037Y-80796627D01*
X120334641Y-80620000D01*
X120352037Y-80443373D01*
X120403557Y-80273534D01*
X120487222Y-80117009D01*
X120516552Y-80081271D01*
X120599814Y-79979814D01*
X120701271Y-79896552D01*
X120737009Y-79867222D01*
X120893534Y-79783557D01*
X121063373Y-79732037D01*
X121129557Y-79725519D01*
X121195740Y-79719000D01*
X121284260Y-79719000D01*
X121350443Y-79725519D01*
X121350443Y-79725519D01*
G37*
G36*
X118810443Y-79725519D02*
G01*
X118876627Y-79732037D01*
X119046466Y-79783557D01*
X119202991Y-79867222D01*
X119238729Y-79896552D01*
X119340186Y-79979814D01*
X119423448Y-80081271D01*
X119452778Y-80117009D01*
X119536443Y-80273534D01*
X119587963Y-80443373D01*
X119605359Y-80620000D01*
X119587963Y-80796627D01*
X119536443Y-80966466D01*
X119452778Y-81122991D01*
X119423448Y-81158729D01*
X119340186Y-81260186D01*
X119238729Y-81343448D01*
X119202991Y-81372778D01*
X119046466Y-81456443D01*
X118876627Y-81507963D01*
X118810443Y-81514481D01*
X118744260Y-81521000D01*
X118655740Y-81521000D01*
X118589557Y-81514481D01*
X118523373Y-81507963D01*
X118353534Y-81456443D01*
X118197009Y-81372778D01*
X118161271Y-81343448D01*
X118059814Y-81260186D01*
X117976552Y-81158729D01*
X117947222Y-81122991D01*
X117863557Y-80966466D01*
X117812037Y-80796627D01*
X117794641Y-80620000D01*
X117812037Y-80443373D01*
X117863557Y-80273534D01*
X117947222Y-80117009D01*
X117976552Y-80081271D01*
X118059814Y-79979814D01*
X118161271Y-79896552D01*
X118197009Y-79867222D01*
X118353534Y-79783557D01*
X118523373Y-79732037D01*
X118589557Y-79725519D01*
X118655740Y-79719000D01*
X118744260Y-79719000D01*
X118810443Y-79725519D01*
X118810443Y-79725519D01*
G37*
G36*
X116270443Y-79725519D02*
G01*
X116336627Y-79732037D01*
X116506466Y-79783557D01*
X116662991Y-79867222D01*
X116698729Y-79896552D01*
X116800186Y-79979814D01*
X116883448Y-80081271D01*
X116912778Y-80117009D01*
X116996443Y-80273534D01*
X117047963Y-80443373D01*
X117065359Y-80620000D01*
X117047963Y-80796627D01*
X116996443Y-80966466D01*
X116912778Y-81122991D01*
X116883448Y-81158729D01*
X116800186Y-81260186D01*
X116698729Y-81343448D01*
X116662991Y-81372778D01*
X116506466Y-81456443D01*
X116336627Y-81507963D01*
X116270443Y-81514481D01*
X116204260Y-81521000D01*
X116115740Y-81521000D01*
X116049557Y-81514481D01*
X115983373Y-81507963D01*
X115813534Y-81456443D01*
X115657009Y-81372778D01*
X115621271Y-81343448D01*
X115519814Y-81260186D01*
X115436552Y-81158729D01*
X115407222Y-81122991D01*
X115323557Y-80966466D01*
X115272037Y-80796627D01*
X115254641Y-80620000D01*
X115272037Y-80443373D01*
X115323557Y-80273534D01*
X115407222Y-80117009D01*
X115436552Y-80081271D01*
X115519814Y-79979814D01*
X115621271Y-79896552D01*
X115657009Y-79867222D01*
X115813534Y-79783557D01*
X115983373Y-79732037D01*
X116049557Y-79725519D01*
X116115740Y-79719000D01*
X116204260Y-79719000D01*
X116270443Y-79725519D01*
X116270443Y-79725519D01*
G37*
G36*
X113730443Y-79725519D02*
G01*
X113796627Y-79732037D01*
X113966466Y-79783557D01*
X114122991Y-79867222D01*
X114158729Y-79896552D01*
X114260186Y-79979814D01*
X114343448Y-80081271D01*
X114372778Y-80117009D01*
X114456443Y-80273534D01*
X114507963Y-80443373D01*
X114525359Y-80620000D01*
X114507963Y-80796627D01*
X114456443Y-80966466D01*
X114372778Y-81122991D01*
X114343448Y-81158729D01*
X114260186Y-81260186D01*
X114158729Y-81343448D01*
X114122991Y-81372778D01*
X113966466Y-81456443D01*
X113796627Y-81507963D01*
X113730443Y-81514481D01*
X113664260Y-81521000D01*
X113575740Y-81521000D01*
X113509557Y-81514481D01*
X113443373Y-81507963D01*
X113273534Y-81456443D01*
X113117009Y-81372778D01*
X113081271Y-81343448D01*
X112979814Y-81260186D01*
X112896552Y-81158729D01*
X112867222Y-81122991D01*
X112783557Y-80966466D01*
X112732037Y-80796627D01*
X112714641Y-80620000D01*
X112732037Y-80443373D01*
X112783557Y-80273534D01*
X112867222Y-80117009D01*
X112896552Y-80081271D01*
X112979814Y-79979814D01*
X113081271Y-79896552D01*
X113117009Y-79867222D01*
X113273534Y-79783557D01*
X113443373Y-79732037D01*
X113509557Y-79725519D01*
X113575740Y-79719000D01*
X113664260Y-79719000D01*
X113730443Y-79725519D01*
X113730443Y-79725519D01*
G37*
G36*
X111190443Y-79725519D02*
G01*
X111256627Y-79732037D01*
X111426466Y-79783557D01*
X111582991Y-79867222D01*
X111618729Y-79896552D01*
X111720186Y-79979814D01*
X111803448Y-80081271D01*
X111832778Y-80117009D01*
X111916443Y-80273534D01*
X111967963Y-80443373D01*
X111985359Y-80620000D01*
X111967963Y-80796627D01*
X111916443Y-80966466D01*
X111832778Y-81122991D01*
X111803448Y-81158729D01*
X111720186Y-81260186D01*
X111618729Y-81343448D01*
X111582991Y-81372778D01*
X111426466Y-81456443D01*
X111256627Y-81507963D01*
X111190443Y-81514481D01*
X111124260Y-81521000D01*
X111035740Y-81521000D01*
X110969557Y-81514481D01*
X110903373Y-81507963D01*
X110733534Y-81456443D01*
X110577009Y-81372778D01*
X110541271Y-81343448D01*
X110439814Y-81260186D01*
X110356552Y-81158729D01*
X110327222Y-81122991D01*
X110243557Y-80966466D01*
X110192037Y-80796627D01*
X110174641Y-80620000D01*
X110192037Y-80443373D01*
X110243557Y-80273534D01*
X110327222Y-80117009D01*
X110356552Y-80081271D01*
X110439814Y-79979814D01*
X110541271Y-79896552D01*
X110577009Y-79867222D01*
X110733534Y-79783557D01*
X110903373Y-79732037D01*
X110969557Y-79725519D01*
X111035740Y-79719000D01*
X111124260Y-79719000D01*
X111190443Y-79725519D01*
X111190443Y-79725519D01*
G37*
G36*
X106901000Y-81521000D02*
G01*
X105099000Y-81521000D01*
X105099000Y-79719000D01*
X106901000Y-79719000D01*
X106901000Y-81521000D01*
X106901000Y-81521000D01*
G37*
G36*
X106901000Y-73901000D02*
G01*
X105099000Y-73901000D01*
X105099000Y-72099000D01*
X106901000Y-72099000D01*
X106901000Y-73901000D01*
X106901000Y-73901000D01*
G37*
G36*
X108650442Y-72105518D02*
G01*
X108716627Y-72112037D01*
X108886466Y-72163557D01*
X109042991Y-72247222D01*
X109078729Y-72276552D01*
X109180186Y-72359814D01*
X109263448Y-72461271D01*
X109292778Y-72497009D01*
X109376443Y-72653534D01*
X109427963Y-72823373D01*
X109445359Y-73000000D01*
X109427963Y-73176627D01*
X109376443Y-73346466D01*
X109292778Y-73502991D01*
X109263448Y-73538729D01*
X109180186Y-73640186D01*
X109078729Y-73723448D01*
X109042991Y-73752778D01*
X108886466Y-73836443D01*
X108716627Y-73887963D01*
X108650443Y-73894481D01*
X108584260Y-73901000D01*
X108495740Y-73901000D01*
X108429557Y-73894481D01*
X108363373Y-73887963D01*
X108193534Y-73836443D01*
X108037009Y-73752778D01*
X108001271Y-73723448D01*
X107899814Y-73640186D01*
X107816552Y-73538729D01*
X107787222Y-73502991D01*
X107703557Y-73346466D01*
X107652037Y-73176627D01*
X107634641Y-73000000D01*
X107652037Y-72823373D01*
X107703557Y-72653534D01*
X107787222Y-72497009D01*
X107816552Y-72461271D01*
X107899814Y-72359814D01*
X108001271Y-72276552D01*
X108037009Y-72247222D01*
X108193534Y-72163557D01*
X108363373Y-72112037D01*
X108429558Y-72105518D01*
X108495740Y-72099000D01*
X108584260Y-72099000D01*
X108650442Y-72105518D01*
X108650442Y-72105518D01*
G37*
G36*
X111190442Y-72105518D02*
G01*
X111256627Y-72112037D01*
X111426466Y-72163557D01*
X111582991Y-72247222D01*
X111618729Y-72276552D01*
X111720186Y-72359814D01*
X111803448Y-72461271D01*
X111832778Y-72497009D01*
X111916443Y-72653534D01*
X111967963Y-72823373D01*
X111985359Y-73000000D01*
X111967963Y-73176627D01*
X111916443Y-73346466D01*
X111832778Y-73502991D01*
X111803448Y-73538729D01*
X111720186Y-73640186D01*
X111618729Y-73723448D01*
X111582991Y-73752778D01*
X111426466Y-73836443D01*
X111256627Y-73887963D01*
X111190443Y-73894481D01*
X111124260Y-73901000D01*
X111035740Y-73901000D01*
X110969557Y-73894481D01*
X110903373Y-73887963D01*
X110733534Y-73836443D01*
X110577009Y-73752778D01*
X110541271Y-73723448D01*
X110439814Y-73640186D01*
X110356552Y-73538729D01*
X110327222Y-73502991D01*
X110243557Y-73346466D01*
X110192037Y-73176627D01*
X110174641Y-73000000D01*
X110192037Y-72823373D01*
X110243557Y-72653534D01*
X110327222Y-72497009D01*
X110356552Y-72461271D01*
X110439814Y-72359814D01*
X110541271Y-72276552D01*
X110577009Y-72247222D01*
X110733534Y-72163557D01*
X110903373Y-72112037D01*
X110969558Y-72105518D01*
X111035740Y-72099000D01*
X111124260Y-72099000D01*
X111190442Y-72105518D01*
X111190442Y-72105518D01*
G37*
G36*
X113730442Y-72105518D02*
G01*
X113796627Y-72112037D01*
X113966466Y-72163557D01*
X114122991Y-72247222D01*
X114158729Y-72276552D01*
X114260186Y-72359814D01*
X114343448Y-72461271D01*
X114372778Y-72497009D01*
X114456443Y-72653534D01*
X114507963Y-72823373D01*
X114525359Y-73000000D01*
X114507963Y-73176627D01*
X114456443Y-73346466D01*
X114372778Y-73502991D01*
X114343448Y-73538729D01*
X114260186Y-73640186D01*
X114158729Y-73723448D01*
X114122991Y-73752778D01*
X113966466Y-73836443D01*
X113796627Y-73887963D01*
X113730443Y-73894481D01*
X113664260Y-73901000D01*
X113575740Y-73901000D01*
X113509557Y-73894481D01*
X113443373Y-73887963D01*
X113273534Y-73836443D01*
X113117009Y-73752778D01*
X113081271Y-73723448D01*
X112979814Y-73640186D01*
X112896552Y-73538729D01*
X112867222Y-73502991D01*
X112783557Y-73346466D01*
X112732037Y-73176627D01*
X112714641Y-73000000D01*
X112732037Y-72823373D01*
X112783557Y-72653534D01*
X112867222Y-72497009D01*
X112896552Y-72461271D01*
X112979814Y-72359814D01*
X113081271Y-72276552D01*
X113117009Y-72247222D01*
X113273534Y-72163557D01*
X113443373Y-72112037D01*
X113509558Y-72105518D01*
X113575740Y-72099000D01*
X113664260Y-72099000D01*
X113730442Y-72105518D01*
X113730442Y-72105518D01*
G37*
G36*
X116270442Y-72105518D02*
G01*
X116336627Y-72112037D01*
X116506466Y-72163557D01*
X116662991Y-72247222D01*
X116698729Y-72276552D01*
X116800186Y-72359814D01*
X116883448Y-72461271D01*
X116912778Y-72497009D01*
X116996443Y-72653534D01*
X117047963Y-72823373D01*
X117065359Y-73000000D01*
X117047963Y-73176627D01*
X116996443Y-73346466D01*
X116912778Y-73502991D01*
X116883448Y-73538729D01*
X116800186Y-73640186D01*
X116698729Y-73723448D01*
X116662991Y-73752778D01*
X116506466Y-73836443D01*
X116336627Y-73887963D01*
X116270443Y-73894481D01*
X116204260Y-73901000D01*
X116115740Y-73901000D01*
X116049557Y-73894481D01*
X115983373Y-73887963D01*
X115813534Y-73836443D01*
X115657009Y-73752778D01*
X115621271Y-73723448D01*
X115519814Y-73640186D01*
X115436552Y-73538729D01*
X115407222Y-73502991D01*
X115323557Y-73346466D01*
X115272037Y-73176627D01*
X115254641Y-73000000D01*
X115272037Y-72823373D01*
X115323557Y-72653534D01*
X115407222Y-72497009D01*
X115436552Y-72461271D01*
X115519814Y-72359814D01*
X115621271Y-72276552D01*
X115657009Y-72247222D01*
X115813534Y-72163557D01*
X115983373Y-72112037D01*
X116049558Y-72105518D01*
X116115740Y-72099000D01*
X116204260Y-72099000D01*
X116270442Y-72105518D01*
X116270442Y-72105518D01*
G37*
G36*
X118810442Y-72105518D02*
G01*
X118876627Y-72112037D01*
X119046466Y-72163557D01*
X119202991Y-72247222D01*
X119238729Y-72276552D01*
X119340186Y-72359814D01*
X119423448Y-72461271D01*
X119452778Y-72497009D01*
X119536443Y-72653534D01*
X119587963Y-72823373D01*
X119605359Y-73000000D01*
X119587963Y-73176627D01*
X119536443Y-73346466D01*
X119452778Y-73502991D01*
X119423448Y-73538729D01*
X119340186Y-73640186D01*
X119238729Y-73723448D01*
X119202991Y-73752778D01*
X119046466Y-73836443D01*
X118876627Y-73887963D01*
X118810443Y-73894481D01*
X118744260Y-73901000D01*
X118655740Y-73901000D01*
X118589557Y-73894481D01*
X118523373Y-73887963D01*
X118353534Y-73836443D01*
X118197009Y-73752778D01*
X118161271Y-73723448D01*
X118059814Y-73640186D01*
X117976552Y-73538729D01*
X117947222Y-73502991D01*
X117863557Y-73346466D01*
X117812037Y-73176627D01*
X117794641Y-73000000D01*
X117812037Y-72823373D01*
X117863557Y-72653534D01*
X117947222Y-72497009D01*
X117976552Y-72461271D01*
X118059814Y-72359814D01*
X118161271Y-72276552D01*
X118197009Y-72247222D01*
X118353534Y-72163557D01*
X118523373Y-72112037D01*
X118589558Y-72105518D01*
X118655740Y-72099000D01*
X118744260Y-72099000D01*
X118810442Y-72105518D01*
X118810442Y-72105518D01*
G37*
G36*
X121350442Y-72105518D02*
G01*
X121416627Y-72112037D01*
X121586466Y-72163557D01*
X121742991Y-72247222D01*
X121778729Y-72276552D01*
X121880186Y-72359814D01*
X121963448Y-72461271D01*
X121992778Y-72497009D01*
X122076443Y-72653534D01*
X122127963Y-72823373D01*
X122145359Y-73000000D01*
X122127963Y-73176627D01*
X122076443Y-73346466D01*
X121992778Y-73502991D01*
X121963448Y-73538729D01*
X121880186Y-73640186D01*
X121778729Y-73723448D01*
X121742991Y-73752778D01*
X121586466Y-73836443D01*
X121416627Y-73887963D01*
X121350443Y-73894481D01*
X121284260Y-73901000D01*
X121195740Y-73901000D01*
X121129557Y-73894481D01*
X121063373Y-73887963D01*
X120893534Y-73836443D01*
X120737009Y-73752778D01*
X120701271Y-73723448D01*
X120599814Y-73640186D01*
X120516552Y-73538729D01*
X120487222Y-73502991D01*
X120403557Y-73346466D01*
X120352037Y-73176627D01*
X120334641Y-73000000D01*
X120352037Y-72823373D01*
X120403557Y-72653534D01*
X120487222Y-72497009D01*
X120516552Y-72461271D01*
X120599814Y-72359814D01*
X120701271Y-72276552D01*
X120737009Y-72247222D01*
X120893534Y-72163557D01*
X121063373Y-72112037D01*
X121129558Y-72105518D01*
X121195740Y-72099000D01*
X121284260Y-72099000D01*
X121350442Y-72105518D01*
X121350442Y-72105518D01*
G37*
G36*
X123890442Y-72105518D02*
G01*
X123956627Y-72112037D01*
X124126466Y-72163557D01*
X124282991Y-72247222D01*
X124318729Y-72276552D01*
X124420186Y-72359814D01*
X124503448Y-72461271D01*
X124532778Y-72497009D01*
X124616443Y-72653534D01*
X124667963Y-72823373D01*
X124685359Y-73000000D01*
X124667963Y-73176627D01*
X124616443Y-73346466D01*
X124532778Y-73502991D01*
X124503448Y-73538729D01*
X124420186Y-73640186D01*
X124318729Y-73723448D01*
X124282991Y-73752778D01*
X124126466Y-73836443D01*
X123956627Y-73887963D01*
X123890443Y-73894481D01*
X123824260Y-73901000D01*
X123735740Y-73901000D01*
X123669557Y-73894481D01*
X123603373Y-73887963D01*
X123433534Y-73836443D01*
X123277009Y-73752778D01*
X123241271Y-73723448D01*
X123139814Y-73640186D01*
X123056552Y-73538729D01*
X123027222Y-73502991D01*
X122943557Y-73346466D01*
X122892037Y-73176627D01*
X122874641Y-73000000D01*
X122892037Y-72823373D01*
X122943557Y-72653534D01*
X123027222Y-72497009D01*
X123056552Y-72461271D01*
X123139814Y-72359814D01*
X123241271Y-72276552D01*
X123277009Y-72247222D01*
X123433534Y-72163557D01*
X123603373Y-72112037D01*
X123669558Y-72105518D01*
X123735740Y-72099000D01*
X123824260Y-72099000D01*
X123890442Y-72105518D01*
X123890442Y-72105518D01*
G37*
G36*
X126430442Y-72105518D02*
G01*
X126496627Y-72112037D01*
X126666466Y-72163557D01*
X126822991Y-72247222D01*
X126858729Y-72276552D01*
X126960186Y-72359814D01*
X127043448Y-72461271D01*
X127072778Y-72497009D01*
X127156443Y-72653534D01*
X127207963Y-72823373D01*
X127225359Y-73000000D01*
X127207963Y-73176627D01*
X127156443Y-73346466D01*
X127072778Y-73502991D01*
X127043448Y-73538729D01*
X126960186Y-73640186D01*
X126858729Y-73723448D01*
X126822991Y-73752778D01*
X126666466Y-73836443D01*
X126496627Y-73887963D01*
X126430443Y-73894481D01*
X126364260Y-73901000D01*
X126275740Y-73901000D01*
X126209557Y-73894481D01*
X126143373Y-73887963D01*
X125973534Y-73836443D01*
X125817009Y-73752778D01*
X125781271Y-73723448D01*
X125679814Y-73640186D01*
X125596552Y-73538729D01*
X125567222Y-73502991D01*
X125483557Y-73346466D01*
X125432037Y-73176627D01*
X125414641Y-73000000D01*
X125432037Y-72823373D01*
X125483557Y-72653534D01*
X125567222Y-72497009D01*
X125596552Y-72461271D01*
X125679814Y-72359814D01*
X125781271Y-72276552D01*
X125817009Y-72247222D01*
X125973534Y-72163557D01*
X126143373Y-72112037D01*
X126209558Y-72105518D01*
X126275740Y-72099000D01*
X126364260Y-72099000D01*
X126430442Y-72105518D01*
X126430442Y-72105518D01*
G37*
M02*
