M48
; DRILL file {KiCad (5.1.0)-1} date 18.03.2021 21:33:46
; FORMAT={-:-/ absolute / inch / decimal}
; #@! TF.CreationDate,2021-03-18T21:33:46+01:00
; #@! TF.GenerationSoftware,Kicad,Pcbnew,(5.1.0)-1
; #@! TF.FileFunction,Plated,1,2,PTH
FMAT,2
INCH
T1C0.0157
T2C0.0197
T3C0.0236
T4C0.0315
T5C0.0394
%
G90
G05
T1
X4.151Y-4.029
X4.201Y-4.029
X4.252Y-4.029
X4.301Y-4.028
X4.379Y-4.4
X4.397Y-4.1
X4.421Y-3.619
X4.457Y-4.14
X4.551Y-4.028
X4.587Y-3.544
X4.601Y-4.029
X4.622Y-3.581
X4.651Y-4.029
X4.6772Y-4.4488
X4.688Y-3.477
X4.688Y-3.53
X4.701Y-4.03
X4.751Y-4.022
X4.8176Y-3.31
X4.82Y-4.401
X4.858Y-4.061
X4.871Y-4.402
X4.902Y-4.533
X4.918Y-3.815
X4.921Y-4.403
X4.969Y-4.03
X4.9772Y-3.2492
X5.019Y-4.032
X5.021Y-4.404
X5.069Y-4.032
X5.114Y-3.515
X5.1204Y-4.0312
X5.1288Y-3.7386
X5.1384Y-3.655
X5.1684Y-4.0284
X5.174Y-4.209
X5.195Y-4.3
X5.207Y-4.238
X5.3051Y-3.4449
X5.315Y-3.918
X5.369Y-4.029
X5.382Y-3.524
X5.419Y-4.029
X5.469Y-4.028
X5.519Y-4.028
X7.01Y-4.365
X7.105Y-4.365
T2
X4.151Y-3.746
X4.303Y-4.641
X4.4Y-4.942
X4.401Y-4.83
X4.487Y-4.707
X4.501Y-4.831
X4.553Y-4.723
X4.602Y-4.831
X5.303Y-4.441
X6.449Y-4.527
X6.649Y-4.526
X6.651Y-4.423
X7.276Y-4.492
X7.346Y-4.462
X7.355Y-4.544
T3
X4.133Y-4.405
X4.133Y-4.775
X4.1339Y-4.9055
X4.1512Y-3.8888
X4.154Y-3.056
X4.168Y-3.271
X4.168Y-3.518
X4.2126Y-3.056
X4.3071Y-4.3465
X4.4409Y-4.3465
X4.4685Y-2.9724
X4.58Y-4.332
X4.58Y-4.389
X4.6654Y-2.9724
X4.811Y-4.2992
X4.862Y-4.0022
X4.8622Y-2.9724
X4.9291Y-4.2992
X5.0315Y-4.2992
X5.0394Y-2.9724
X5.12Y-4.35
X5.121Y-4.402
X5.243Y-4.385
X5.5344Y-3.595
X5.673Y-3.719
X5.674Y-3.822
X5.6756Y-3.9146
X5.676Y-4.185
X5.767Y-3.717
X5.767Y-3.823
X5.7677Y-4.0453
X5.769Y-3.914
X6.069Y-4.719
X6.121Y-4.719
X6.449Y-4.719
X6.499Y-4.72
T4
X4.252Y-4.584
X4.252Y-4.884
X4.352Y-4.584
X4.352Y-4.884
X4.452Y-4.584
X4.452Y-4.884
X4.552Y-4.584
X4.552Y-4.884
X4.652Y-4.584
X4.652Y-4.884
X4.752Y-4.584
X4.752Y-4.884
X4.852Y-4.584
X4.852Y-4.884
X4.952Y-4.584
X4.952Y-4.884
X5.052Y-4.584
X5.052Y-4.884
X5.152Y-4.584
X5.152Y-4.884
X5.252Y-4.584
X5.252Y-4.884
X5.352Y-4.584
X5.352Y-4.884
X5.6271Y-3.3714
X5.6271Y-3.4501
X5.6271Y-3.5289
X5.6271Y-3.6076
X5.7058Y-3.3714
X5.7058Y-3.4501
X5.7058Y-3.5289
X5.7058Y-3.6076
X7.4969Y-4.2669
X7.4969Y-4.5669
X7.5969Y-4.2669
X7.5969Y-4.5669
X7.6969Y-4.2669
X7.6969Y-4.5669
X7.7969Y-4.2669
X7.7969Y-4.5669
X7.8969Y-4.2669
X7.8969Y-4.5669
X7.9969Y-4.2669
X7.9969Y-4.5669
X8.0969Y-4.2669
X8.0969Y-4.5669
X8.1969Y-4.2669
X8.1969Y-4.5669
X8.2969Y-4.2669
X8.2969Y-4.5669
X8.3969Y-4.2669
X8.3969Y-4.5669
T5
X4.1732Y-2.874
X4.2732Y-2.874
X4.3732Y-2.874
X4.4732Y-2.874
X4.5732Y-2.874
X4.6732Y-2.874
X4.7732Y-2.874
X4.8732Y-2.874
X4.9732Y-2.874
X5.897Y-4.343
X5.997Y-4.343
X6.097Y-4.343
X6.197Y-4.343
X6.297Y-4.343
X6.397Y-4.343
X6.497Y-4.343
X6.597Y-4.343
X4.1732Y-3.174
X4.2732Y-3.174
X4.3732Y-3.174
X4.4732Y-3.174
X4.5732Y-3.174
X4.6732Y-3.174
X4.7732Y-3.174
X4.8732Y-3.174
X4.9732Y-3.174
X4.1732Y-3.6732
X4.2732Y-3.6732
X4.3732Y-3.6732
X4.4732Y-3.6732
X4.5732Y-3.6732
X4.6732Y-3.6732
X4.7732Y-3.6732
X4.8732Y-3.6732
X4.9732Y-3.6732
X4.1732Y-3.3732
X4.2732Y-3.3732
X4.3732Y-3.3732
X4.4732Y-3.3732
X4.5732Y-3.3732
X4.6732Y-3.3732
X4.7732Y-3.3732
X4.8732Y-3.3732
X4.9732Y-3.3732
X5.426Y-4.273
X5.426Y-4.373
X5.526Y-4.273
X5.526Y-4.373
X5.8984Y-4.884
X5.9984Y-4.884
X6.0984Y-4.884
X6.1984Y-4.884
X6.2984Y-4.884
X6.3984Y-4.884
X6.4984Y-4.884
X6.5984Y-4.884
X6.6984Y-4.884
X6.7984Y-4.884
X5.8984Y-4.584
X5.9984Y-4.584
X6.0984Y-4.584
X6.1984Y-4.584
X6.2984Y-4.584
X6.3984Y-4.584
X6.4984Y-4.584
X6.5984Y-4.584
X6.6984Y-4.584
X6.7984Y-4.584
X7.4969Y-4.1659
X7.5969Y-4.1659
X7.6969Y-4.1659
X7.7969Y-4.1659
X7.8969Y-4.1659
X7.9969Y-4.1659
X8.0969Y-4.1659
X8.1969Y-4.1659
X8.2969Y-4.1659
X8.3969Y-4.1659
X7.4969Y-4.4659
X7.5969Y-4.4659
X7.6969Y-4.4659
X7.7969Y-4.4659
X7.8969Y-4.4659
X7.9969Y-4.4659
X8.0969Y-4.4659
X8.1969Y-4.4659
X8.2969Y-4.4659
X8.3969Y-4.4659
T0
M30
